<svg width="251" height="94" viewBox="0 0 251 94" fill="none" xmlns="http://www.w3.org/2000/svg">
<path d="M26.1495 91.424C28.4535 91.424 30.2455 90.8693 31.5255 89.76C32.8055 88.608 33.4455 87.1147 33.4455 85.28C33.4455 83.872 33.1042 82.592 32.4215 81.44C31.7815 80.288 30.6295 79.2 28.9655 78.176C27.3015 77.1093 24.9975 76.0853 22.0535 75.104C16.4215 73.184 12.0055 71.0933 8.8055 68.832C5.64817 66.5707 3.4295 64.0533 2.1495 61.28C0.8695 58.5067 0.2295 55.392 0.2295 51.936C0.2295 45.92 2.25617 41.312 6.3095 38.112C10.4055 34.912 15.8668 33.312 22.6935 33.312C25.3815 33.312 27.5788 33.568 29.2855 34.08C31.0348 34.5493 32.3575 35.04 33.2535 35.552C34.1922 36.0213 34.8322 36.256 35.1735 36.256C35.6855 36.256 36.6455 36.0213 38.0535 35.552C39.5042 35.04 40.9335 34.5493 42.3415 34.08C43.7922 33.568 44.7522 33.312 45.2215 33.312C45.4348 33.312 45.6482 33.376 45.8615 33.504C46.1175 33.632 46.2668 33.888 46.3095 34.272L48.9975 54.56C49.0828 54.9867 49.0828 55.328 48.9975 55.584C48.9548 55.84 48.8482 56.0107 48.6775 56.096C48.5495 56.1813 48.4215 56.1813 48.2935 56.096C48.1655 56.0107 48.0375 55.8827 47.9095 55.712C44.6668 50.3787 41.7228 46.1973 39.0775 43.168C36.4748 40.1387 33.9362 38.0053 31.4615 36.768C29.0295 35.5307 26.4482 34.912 23.7175 34.912C21.2855 34.912 19.4508 35.5307 18.2135 36.768C17.0188 38.0053 16.4215 39.648 16.4215 41.696C16.4215 43.2747 16.8055 44.7253 17.5735 46.048C18.3415 47.328 19.7068 48.5227 21.6695 49.632C23.6748 50.7413 26.5335 51.808 30.2455 52.832C35.1522 54.1973 39.0348 55.9467 41.8935 58.08C44.7948 60.1707 46.8642 62.56 48.1015 65.248C49.3815 67.936 50.0215 70.8373 50.0215 73.952C50.0215 77.9627 49.0188 81.4187 47.0135 84.32C45.0082 87.1787 42.3628 89.3973 39.0775 90.976C35.7922 92.512 32.1655 93.28 28.1975 93.28C25.8082 93.28 23.7388 92.9813 21.9895 92.384C20.2402 91.7867 18.8322 91.1893 17.7655 90.592C16.7415 89.9947 16.1228 89.696 15.9095 89.696C15.5255 89.696 14.6722 89.9733 13.3495 90.528C12.0268 91.04 10.6615 91.552 9.2535 92.064C7.8455 92.6187 6.90683 92.896 6.4375 92.896C6.13883 92.896 5.84017 92.7467 5.5415 92.448C5.24283 92.192 5.05083 91.744 4.9655 91.104L2.7895 74.4C2.74683 73.76 2.74683 73.3333 2.7895 73.12C2.87483 72.864 3.02417 72.672 3.2375 72.544C3.32283 72.4587 3.4295 72.48 3.5575 72.608C3.6855 72.6933 3.85617 72.8427 4.0695 73.056C8.20817 79.584 12.0268 84.2773 15.5255 87.136C19.0242 89.9947 22.5655 91.424 26.1495 91.424ZM57.5575 37.088L52.8855 35.808C52.5442 35.7227 52.3308 35.6373 52.2455 35.552C52.1175 35.424 52.0535 35.296 52.0535 35.168C52.0535 35.04 52.1175 34.912 52.2455 34.784C52.3735 34.656 52.5015 34.592 52.6295 34.592H57.7495C57.8775 34.592 58.0055 34.5707 58.1335 34.528C58.3042 34.4853 58.5175 34.3787 58.7735 34.208L77.3975 21.024C77.7388 20.768 78.1015 20.5547 78.4855 20.384C78.9122 20.2133 79.2535 20.128 79.5095 20.128C79.8508 20.128 80.1282 20.256 80.3415 20.512C80.5548 20.7253 80.6615 21.0667 80.6615 21.536V73.376C80.6615 77.1733 81.3442 80.0107 82.7095 81.888C84.0748 83.7227 85.9095 84.64 88.2135 84.64C88.9815 84.64 89.7068 84.512 90.3895 84.256C91.1148 84 91.7762 83.5733 92.3735 82.976C92.9708 82.3787 93.5042 81.568 93.9735 80.544C94.4428 79.52 94.8268 78.24 95.1255 76.704C95.2108 76.3627 95.3815 76.192 95.6375 76.192C95.9362 76.192 96.0428 76.384 95.9575 76.768C95.3175 80.48 94.2722 83.552 92.8215 85.984C91.3708 88.416 89.4082 90.2507 86.9335 91.488C84.5015 92.6827 81.4295 93.28 77.7175 93.28C71.4028 93.28 66.5815 91.8293 63.2535 88.928C59.9682 86.0267 58.3255 81.5467 58.3255 75.488V38.304C58.3255 37.8773 58.2828 37.5787 58.1975 37.408C58.1122 37.2373 57.8988 37.1307 57.5575 37.088ZM74.0055 36.32L74.7735 34.592H95.6375C95.8508 34.592 96.0002 34.6347 96.0855 34.72C96.2135 34.8053 96.2775 34.9547 96.2775 35.168C96.2775 35.4667 96.1068 35.744 95.7655 36C95.4242 36.2133 94.9335 36.32 94.2935 36.32H74.0055ZM139.187 90.464V81.12V80.672V42.656C139.187 42.3147 139.101 42.0587 138.931 41.888C138.76 41.6747 138.483 41.568 138.099 41.568H135.603C135.304 41.568 135.091 41.5253 134.963 41.44C134.877 41.312 134.835 41.1627 134.835 40.992C134.835 40.8213 134.899 40.6933 135.027 40.608C135.155 40.5227 135.304 40.4373 135.475 40.352L159.667 33.696C160.136 33.5253 160.477 33.4187 160.691 33.376C160.947 33.3333 161.203 33.312 161.459 33.312C161.757 33.312 161.992 33.4187 162.163 33.632C162.333 33.8027 162.419 34.016 162.419 34.272V87.84C162.419 88.5227 162.525 89.0773 162.739 89.504C162.995 89.888 163.4 90.144 163.955 90.272L166.323 90.848C166.664 90.8907 166.877 90.976 166.963 91.104C167.091 91.1893 167.155 91.3173 167.155 91.488C167.155 91.6587 167.091 91.7867 166.963 91.872C166.835 91.9573 166.664 92 166.451 92H140.787C140.275 92 139.869 91.872 139.571 91.616C139.315 91.3173 139.187 90.9333 139.187 90.464ZM102.323 77.984V42.656C102.323 42.3147 102.237 42.0587 102.067 41.888C101.896 41.6747 101.619 41.568 101.235 41.568H98.7385C98.4398 41.568 98.2265 41.5253 98.0985 41.44C98.0132 41.312 97.9705 41.1627 97.9705 40.992C97.9705 40.8213 98.0345 40.6933 98.1625 40.608C98.2905 40.5227 98.4612 40.4373 98.6745 40.352L122.803 33.696C123.357 33.5253 123.72 33.4187 123.891 33.376C124.104 33.3333 124.339 33.312 124.595 33.312C124.936 33.312 125.171 33.4187 125.299 33.632C125.469 33.8027 125.555 34.016 125.555 34.272V75.552C125.555 78.1547 126.045 80.0747 127.027 81.312C128.051 82.5067 129.565 83.104 131.571 83.104C132.851 83.104 134.131 82.848 135.411 82.336C136.733 81.824 137.928 81.0987 138.995 80.16L141.427 78.048L142.387 79.072L139.827 81.312C135.005 85.4507 130.568 88.48 126.515 90.4C122.504 92.32 118.92 93.28 115.763 93.28C111.795 93.28 108.552 92.0853 106.035 89.696C103.56 87.264 102.323 83.36 102.323 77.984ZM199.981 87.712C199.981 88.224 200.087 88.6507 200.301 88.992C200.557 89.2907 200.983 89.504 201.581 89.632L207.981 90.784C208.237 90.8267 208.45 90.8907 208.621 90.976C208.791 91.0613 208.877 91.232 208.877 91.488C208.877 91.8293 208.642 92 208.173 92H171.565C171.437 92 171.309 91.9787 171.181 91.936C171.053 91.8507 170.989 91.744 170.989 91.616C170.989 91.4453 171.031 91.3173 171.117 91.232C171.245 91.1467 171.437 91.0827 171.693 91.04L176.109 89.888C176.621 89.76 176.962 89.568 177.133 89.312C177.346 89.056 177.453 88.736 177.453 88.352V38.816C177.453 38.56 177.389 38.3253 177.26 38.112C177.133 37.856 176.919 37.7067 176.621 37.664L170.413 35.744C170.242 35.6587 170.093 35.5733 169.965 35.488C169.879 35.4027 169.837 35.296 169.837 35.168C169.837 35.04 169.901 34.9333 170.029 34.848C170.199 34.72 170.37 34.656 170.541 34.656H178.477L177.453 35.424V35.168C177.453 34.1867 177.154 33.184 176.557 32.16C175.959 31.136 175.277 30.0267 174.509 28.832C173.741 27.6373 173.037 26.272 172.397 24.736C171.799 23.2 171.501 21.4293 171.501 19.424C171.501 13.3227 173.271 8.65066 176.812 5.408C180.397 2.12266 185.346 0.479996 191.661 0.479996C195.842 0.479996 199.255 1.16266 201.901 2.52799C204.546 3.89333 206.487 5.728 207.725 8.032C209.005 10.2933 209.645 12.8107 209.645 15.584C209.645 19.0827 208.77 21.664 207.021 23.328C205.271 24.992 202.989 25.824 200.173 25.824C197.314 25.824 194.925 24.8427 193.005 22.88C191.127 20.8747 190.189 18.272 190.189 15.072V6.17599C190.189 4.68266 189.954 3.616 189.485 2.976C189.058 2.336 188.311 2.016 187.245 2.016C185.538 2.016 184.215 2.656 183.277 3.936C182.338 5.17333 181.869 7.05066 181.869 9.56799C181.869 12.3413 182.466 14.8587 183.661 17.12C184.855 19.3387 186.349 21.3653 188.141 23.2C189.933 25.0347 191.725 26.72 193.517 28.256C195.309 29.7493 196.802 31.1573 197.997 32.48C199.234 33.8027 199.853 35.0827 199.853 36.32V36.704L198.829 34.656H208.493C208.834 34.656 209.069 34.6987 209.197 34.784C209.325 34.8267 209.389 34.9547 209.389 35.168C209.389 35.552 209.175 35.8507 208.749 36.064C208.365 36.2773 207.831 36.384 207.149 36.384H199.981V87.712ZM240.856 87.712C240.856 88.224 240.962 88.6507 241.176 88.992C241.432 89.2907 241.858 89.504 242.456 89.632L248.856 90.784C249.112 90.8267 249.325 90.8907 249.496 90.976C249.666 91.0613 249.752 91.232 249.752 91.488C249.752 91.8293 249.517 92 249.048 92H212.44C212.312 92 212.184 91.9787 212.056 91.936C211.928 91.8507 211.864 91.744 211.864 91.616C211.864 91.4453 211.906 91.3173 211.992 91.232C212.12 91.1467 212.312 91.0827 212.568 91.04L216.984 89.888C217.496 89.76 217.837 89.568 218.008 89.312C218.221 89.056 218.328 88.736 218.328 88.352V38.816C218.328 38.56 218.264 38.3253 218.135 38.112C218.008 37.856 217.794 37.7067 217.496 37.664L211.288 35.744C211.117 35.6587 210.968 35.5733 210.84 35.488C210.754 35.4027 210.712 35.296 210.712 35.168C210.712 35.04 210.776 34.9333 210.904 34.848C211.074 34.72 211.245 34.656 211.416 34.656H219.352L218.328 35.424V35.168C218.328 34.1867 218.029 33.184 217.432 32.16C216.834 31.136 216.152 30.0267 215.384 28.832C214.616 27.6373 213.912 26.272 213.272 24.736C212.674 23.2 212.376 21.4293 212.376 19.424C212.376 13.3227 214.146 8.65066 217.688 5.408C221.272 2.12266 226.221 0.479996 232.536 0.479996C236.717 0.479996 240.13 1.16266 242.776 2.52799C245.421 3.89333 247.362 5.728 248.6 8.032C249.88 10.2933 250.52 12.8107 250.52 15.584C250.52 19.0827 249.645 21.664 247.896 23.328C246.146 24.992 243.864 25.824 241.048 25.824C238.189 25.824 235.8 24.8427 233.88 22.88C232.002 20.8747 231.064 18.272 231.064 15.072V6.17599C231.064 4.68266 230.829 3.616 230.36 2.976C229.933 2.336 229.186 2.016 228.12 2.016C226.413 2.016 225.09 2.656 224.152 3.936C223.213 5.17333 222.744 7.05066 222.744 9.56799C222.744 12.3413 223.341 14.8587 224.536 17.12C225.73 19.3387 227.224 21.3653 229.016 23.2C230.808 25.0347 232.6 26.72 234.392 28.256C236.184 29.7493 237.677 31.1573 238.872 32.48C240.109 33.8027 240.728 35.0827 240.728 36.32V36.704L239.704 34.656H249.368C249.709 34.656 249.944 34.6987 250.072 34.784C250.2 34.8267 250.264 34.9547 250.264 35.168C250.264 35.552 250.05 35.8507 249.624 36.064C249.24 36.2773 248.706 36.384 248.024 36.384H240.856V87.712Z" fill="black"/>
</svg>
