<svg width="200" height="115" viewBox="0 0 200 115" fill="none" xmlns="http://www.w3.org/2000/svg">
<rect width="200" height="115" rx="16" fill="#2A7BE8"/>
<path d="M19.9618 46.592C20.5698 46.592 21.0231 46.4587 21.3218 46.192C21.6204 45.9253 21.7698 45.6 21.7698 45.216C21.7698 44.9707 21.7218 44.7467 21.6258 44.544C21.5298 44.3307 21.3164 44.1387 20.9858 43.968C20.6658 43.7867 20.1698 43.632 19.4978 43.504C17.5778 43.1627 16.1111 42.7147 15.0978 42.16C14.0951 41.6053 13.4071 40.96 13.0338 40.224C12.6711 39.4773 12.4898 38.6347 12.4898 37.696C12.4898 35.9893 13.0818 34.656 14.2658 33.696C15.4604 32.7253 17.1991 32.24 19.4818 32.24C20.2818 32.24 20.9164 32.304 21.3858 32.432C21.8658 32.56 22.2498 32.688 22.5378 32.816C22.8258 32.944 23.0764 33.008 23.2898 33.008C23.5458 33.008 23.7538 32.944 23.9138 32.816C24.0844 32.688 24.2604 32.56 24.4418 32.432C24.6231 32.304 24.8471 32.24 25.1138 32.24C25.3164 32.24 25.4978 32.3093 25.6578 32.448C25.8284 32.5867 25.9671 32.8373 26.0738 33.2L26.8898 36.304C27.0391 36.8053 27.0818 37.2053 27.0178 37.504C26.9538 37.8027 26.7724 38.0107 26.4738 38.128C26.1644 38.2453 25.8978 38.2507 25.6738 38.144C25.4498 38.0373 25.2311 37.824 25.0178 37.504C24.4951 36.7147 23.9564 36.0693 23.4018 35.568C22.8578 35.0667 22.2924 34.6933 21.7058 34.448C21.1298 34.2027 20.5271 34.08 19.8978 34.08C19.1938 34.08 18.6658 34.2187 18.3138 34.496C17.9618 34.7627 17.7858 35.1253 17.7858 35.584C17.7858 35.872 17.8604 36.128 18.0098 36.352C18.1591 36.5653 18.4578 36.7627 18.9058 36.944C19.3644 37.1147 20.0418 37.2853 20.9378 37.456C22.4524 37.744 23.6524 38.1493 24.5378 38.672C25.4231 39.1947 26.0578 39.8293 26.4418 40.576C26.8258 41.312 27.0178 42.1813 27.0178 43.184C27.0178 44.24 26.7351 45.1627 26.1698 45.952C25.6044 46.7413 24.8311 47.3547 23.8498 47.792C22.8791 48.2187 21.7698 48.432 20.5218 48.432C19.7538 48.432 19.1458 48.3627 18.6978 48.224C18.2498 48.096 17.8818 47.9627 17.5938 47.824C17.3058 47.6853 17.0391 47.616 16.7938 47.616C16.5378 47.616 16.2978 47.6853 16.0738 47.824C15.8604 47.952 15.6471 48.08 15.4338 48.208C15.2204 48.3467 14.9964 48.416 14.7618 48.416C14.5484 48.416 14.3671 48.336 14.2178 48.176C14.0684 48.0267 13.9564 47.76 13.8818 47.376L13.3858 44.448C13.3004 43.9573 13.2951 43.5893 13.3698 43.344C13.4444 43.0987 13.6151 42.9173 13.8818 42.8C14.1804 42.672 14.4418 42.6773 14.6658 42.816C14.9004 42.944 15.1351 43.1733 15.3698 43.504C16.1484 44.624 16.9218 45.4187 17.6898 45.888C18.4578 46.3573 19.2151 46.592 19.9618 46.592ZM36.922 33.536V35.008L37.194 35.568V52.384C37.194 52.7787 37.226 53.056 37.29 53.216C37.354 53.3867 37.466 53.5093 37.626 53.584L38.01 53.728C38.234 53.824 38.394 53.9413 38.49 54.08C38.586 54.2293 38.634 54.4 38.634 54.592C38.634 54.8587 38.5487 55.0667 38.378 55.216C38.2073 55.376 37.93 55.456 37.546 55.456H30.186C29.802 55.456 29.5247 55.376 29.354 55.216C29.1833 55.0667 29.098 54.8587 29.098 54.592C29.098 54.4 29.146 54.2293 29.242 54.08C29.338 53.9413 29.498 53.824 29.722 53.728L30.106 53.584C30.266 53.5093 30.378 53.3867 30.442 53.216C30.506 53.056 30.538 52.7787 30.538 52.384V36.928C30.538 36.6187 30.4953 36.4 30.41 36.272C30.3247 36.144 30.1967 36.0533 30.026 36L29.642 35.904C29.4287 35.84 29.274 35.744 29.178 35.616C29.0927 35.488 29.05 35.328 29.05 35.136C29.05 34.912 29.114 34.7413 29.242 34.624C29.37 34.496 29.6047 34.3573 29.946 34.208L33.514 32.784C33.994 32.5813 34.3833 32.4427 34.682 32.368C34.9913 32.2827 35.274 32.24 35.53 32.24C35.9993 32.24 36.346 32.3627 36.57 32.608C36.8047 32.8533 36.922 33.1627 36.922 33.536ZM36.106 37.76L35.066 36.768C35.9513 35.3493 36.938 34.24 38.026 33.44C39.114 32.64 40.362 32.24 41.77 32.24C43.0287 32.24 44.154 32.56 45.146 33.2C46.138 33.84 46.9167 34.7307 47.482 35.872C48.058 37.0027 48.346 38.3147 48.346 39.808C48.346 41.536 47.994 43.0453 47.29 44.336C46.5967 45.6267 45.642 46.6347 44.426 47.36C43.21 48.0747 41.8393 48.432 40.314 48.432C39.0553 48.432 37.9673 48.176 37.05 47.664C36.1433 47.1413 35.3593 46.3467 34.698 45.28L36.282 44.224C36.73 44.896 37.162 45.376 37.578 45.664C38.0047 45.9413 38.4633 46.08 38.954 46.08C39.466 46.08 39.9087 45.8987 40.282 45.536C40.666 45.1733 40.9593 44.5813 41.162 43.76C41.3753 42.9387 41.482 41.8453 41.482 40.48C41.482 39.232 41.3753 38.2347 41.162 37.488C40.9487 36.7307 40.6553 36.1813 40.282 35.84C39.9193 35.4987 39.498 35.328 39.018 35.328C38.4527 35.328 37.93 35.52 37.45 35.904C36.97 36.288 36.522 36.9067 36.106 37.76ZM59.5098 45.888V45.536L59.0298 45.568V35.056C59.0298 34.6613 58.9178 34.3413 58.6938 34.096C58.4804 33.8507 58.1924 33.728 57.8298 33.728C57.5418 33.728 57.2911 33.8027 57.0778 33.952C56.8751 34.0907 56.7738 34.2827 56.7738 34.528V36.272C56.7738 37.1467 56.4698 37.8347 55.8618 38.336C55.2644 38.8267 54.4111 39.072 53.3018 39.072C52.3738 39.072 51.6751 38.8747 51.2057 38.48C50.7471 38.0747 50.5178 37.504 50.5178 36.768C50.5178 36.0747 50.8324 35.3867 51.4618 34.704C52.0911 34.0107 53.0298 33.4347 54.2778 32.976C55.5258 32.5067 57.1044 32.272 59.0138 32.272C61.2431 32.272 62.9018 32.6827 63.9898 33.504C65.0778 34.3253 65.6217 35.456 65.6217 36.896V44.576C65.6217 44.7893 65.6751 44.96 65.7818 45.088C65.8884 45.216 66.0431 45.28 66.2458 45.28C66.4271 45.28 66.5764 45.232 66.6938 45.136C66.8111 45.04 66.9124 44.928 66.9978 44.8C67.0618 44.7253 67.1311 44.6667 67.2058 44.624C67.2804 44.5707 67.3658 44.544 67.4618 44.544C67.6218 44.544 67.7391 44.608 67.8138 44.736C67.8884 44.8533 67.9258 45.0027 67.9258 45.184C67.9258 45.6213 67.7604 46.096 67.4298 46.608C67.0991 47.1093 66.5978 47.5413 65.9258 47.904C65.2644 48.256 64.4324 48.432 63.4298 48.432C62.2564 48.432 61.3071 48.192 60.5818 47.712C59.8671 47.2213 59.5098 46.6133 59.5098 45.888ZM49.9098 44.624C49.9098 43.184 50.5551 42.048 51.8458 41.216C53.1364 40.3733 54.9871 39.952 57.3978 39.952C58.0058 39.952 58.5338 40 58.9818 40.096C59.4298 40.1813 59.7978 40.304 60.0858 40.464L59.5898 41.696C59.3658 41.568 59.1524 41.4773 58.9498 41.424C58.7471 41.3707 58.5231 41.344 58.2778 41.344C57.7658 41.344 57.3551 41.5253 57.0458 41.888C56.7471 42.2507 56.5978 42.7787 56.5978 43.472C56.5978 44.1973 56.7471 44.7413 57.0458 45.104C57.3444 45.4667 57.7391 45.648 58.2298 45.648C58.5284 45.648 58.8111 45.5733 59.0778 45.424C59.3551 45.2747 59.5631 45.104 59.7018 44.912L60.0698 46.048C59.5578 46.8053 58.8218 47.392 57.8618 47.808C56.9124 48.224 55.8938 48.432 54.8058 48.432C53.3444 48.432 52.1604 48.0693 51.2538 47.344C50.3578 46.6187 49.9098 45.712 49.9098 44.624ZM76.3215 39.28C76.3215 37.68 76.5348 36.3627 76.9615 35.328C77.3882 34.2827 77.9535 33.5093 78.6575 33.008C79.3615 32.496 80.1295 32.24 80.9615 32.24C82.0602 32.24 82.9028 32.576 83.4895 33.248C84.0762 33.9093 84.3695 34.912 84.3695 36.256C84.3695 37.6213 84.0868 38.6293 83.5215 39.28C82.9668 39.9307 82.2468 40.256 81.3615 40.256C80.4762 40.256 79.8095 40.0267 79.3615 39.568C78.9242 39.1093 78.7055 38.4693 78.7055 37.648L78.6895 36.992C78.6788 36.7147 78.6202 36.5067 78.5135 36.368C78.4068 36.2187 78.2362 36.144 78.0015 36.144C77.7882 36.144 77.5962 36.24 77.4255 36.432C77.2655 36.624 77.1375 36.9333 77.0415 37.36C76.9562 37.7867 76.9135 38.3573 76.9135 39.072L76.3215 39.28ZM76.5135 33.552L76.9135 37.088V44.896C76.9135 45.248 76.9615 45.4987 77.0575 45.648C77.1642 45.7973 77.3935 45.904 77.7455 45.968L79.0095 46.224C79.2975 46.2773 79.5055 46.3787 79.6335 46.528C79.7722 46.6667 79.8415 46.864 79.8415 47.12C79.8415 47.3973 79.7455 47.616 79.5535 47.776C79.3722 47.9253 79.1002 48 78.7375 48H69.9055C69.5215 48 69.2388 47.9253 69.0575 47.776C68.8868 47.616 68.8015 47.4027 68.8015 47.136C68.8015 46.944 68.8495 46.7787 68.9455 46.64C69.0522 46.4907 69.2175 46.368 69.4415 46.272L69.8255 46.128C69.9748 46.0533 70.0815 45.936 70.1455 45.776C70.2095 45.6053 70.2415 45.3227 70.2415 44.928V36.976C70.2415 36.6667 70.1988 36.448 70.1135 36.32C70.0282 36.1813 69.9002 36.0853 69.7295 36.032L69.3455 35.936C69.1428 35.872 68.9935 35.7813 68.8975 35.664C68.8015 35.536 68.7535 35.376 68.7535 35.184C68.7535 34.9493 68.8175 34.7627 68.9455 34.624C69.0842 34.4853 69.3188 34.3573 69.6495 34.24L73.4095 32.88C74.0922 32.6133 74.5828 32.4427 74.8815 32.368C75.1802 32.2933 75.4095 32.256 75.5695 32.256C75.8468 32.256 76.0548 32.3573 76.1935 32.56C76.3428 32.752 76.4495 33.0827 76.5135 33.552ZM101.583 38.496C101.583 39.1573 101.396 39.6747 101.023 40.048C100.66 40.4213 100.137 40.608 99.4548 40.608H89.9028V39.088H94.1908C94.7348 39.088 95.0068 38.832 95.0068 38.32C95.0068 36.88 94.8468 35.8507 94.5268 35.232C94.2068 34.6133 93.7961 34.304 93.2948 34.304C92.9321 34.304 92.6014 34.4427 92.3028 34.72C92.0148 34.9973 91.7854 35.4347 91.6148 36.032C91.4441 36.6187 91.3588 37.376 91.3588 38.304C91.3588 40.2773 91.7961 41.7227 92.6708 42.64C93.5454 43.5573 94.7401 44.016 96.2548 44.016C97.0121 44.016 97.6894 43.9093 98.2868 43.696C98.8841 43.4827 99.4281 43.0987 99.9188 42.544C100.185 42.2987 100.388 42.1333 100.527 42.048C100.676 41.9627 100.815 41.92 100.943 41.92C101.135 41.92 101.279 42.016 101.375 42.208C101.471 42.3893 101.519 42.624 101.519 42.912C101.519 43.8933 101.193 44.8053 100.543 45.648C99.9028 46.4907 99.0121 47.168 97.8708 47.68C96.7401 48.1813 95.4281 48.432 93.9348 48.432C92.3241 48.432 90.8788 48.112 89.5988 47.472C88.3188 46.832 87.3054 45.936 86.5588 44.784C85.8121 43.632 85.4388 42.288 85.4388 40.752C85.4388 39.0347 85.7801 37.5413 86.4628 36.272C87.1561 34.992 88.1534 34 89.4548 33.296C90.7668 32.592 92.3454 32.24 94.1908 32.24C95.8121 32.24 97.1721 32.512 98.2708 33.056C99.3694 33.6 100.196 34.3413 100.751 35.28C101.305 36.2187 101.583 37.2907 101.583 38.496ZM117.024 46.592C117.632 46.592 118.086 46.4587 118.384 46.192C118.683 45.9253 118.832 45.6 118.832 45.216C118.832 44.9707 118.784 44.7467 118.688 44.544C118.592 44.3307 118.379 44.1387 118.048 43.968C117.728 43.7867 117.232 43.632 116.56 43.504C114.64 43.1627 113.174 42.7147 112.16 42.16C111.158 41.6053 110.47 40.96 110.096 40.224C109.734 39.4773 109.552 38.6347 109.552 37.696C109.552 35.9893 110.144 34.656 111.328 33.696C112.523 32.7253 114.262 32.24 116.544 32.24C117.344 32.24 117.979 32.304 118.448 32.432C118.928 32.56 119.312 32.688 119.6 32.816C119.888 32.944 120.139 33.008 120.352 33.008C120.608 33.008 120.816 32.944 120.976 32.816C121.147 32.688 121.323 32.56 121.504 32.432C121.686 32.304 121.91 32.24 122.176 32.24C122.379 32.24 122.56 32.3093 122.72 32.448C122.891 32.5867 123.03 32.8373 123.136 33.2L123.952 36.304C124.102 36.8053 124.144 37.2053 124.08 37.504C124.016 37.8027 123.835 38.0107 123.536 38.128C123.227 38.2453 122.96 38.2507 122.736 38.144C122.512 38.0373 122.294 37.824 122.08 37.504C121.558 36.7147 121.019 36.0693 120.464 35.568C119.92 35.0667 119.355 34.6933 118.768 34.448C118.192 34.2027 117.59 34.08 116.96 34.08C116.256 34.08 115.728 34.2187 115.376 34.496C115.024 34.7627 114.848 35.1253 114.848 35.584C114.848 35.872 114.923 36.128 115.072 36.352C115.222 36.5653 115.52 36.7627 115.968 36.944C116.427 37.1147 117.104 37.2853 118 37.456C119.515 37.744 120.715 38.1493 121.6 38.672C122.486 39.1947 123.12 39.8293 123.504 40.576C123.888 41.312 124.08 42.1813 124.08 43.184C124.08 44.24 123.798 45.1627 123.232 45.952C122.667 46.7413 121.894 47.3547 120.912 47.792C119.942 48.2187 118.832 48.432 117.584 48.432C116.816 48.432 116.208 48.3627 115.76 48.224C115.312 48.096 114.944 47.9627 114.656 47.824C114.368 47.6853 114.102 47.616 113.856 47.616C113.6 47.616 113.36 47.6853 113.136 47.824C112.923 47.952 112.71 48.08 112.496 48.208C112.283 48.3467 112.059 48.416 111.824 48.416C111.611 48.416 111.43 48.336 111.28 48.176C111.131 48.0267 111.019 47.76 110.944 47.376L110.448 44.448C110.363 43.9573 110.358 43.5893 110.432 43.344C110.507 43.0987 110.678 42.9173 110.944 42.8C111.243 42.672 111.504 42.6773 111.728 42.816C111.963 42.944 112.198 43.1733 112.432 43.504C113.211 44.624 113.984 45.4187 114.752 45.888C115.52 46.3573 116.278 46.592 117.024 46.592ZM126.817 34.608L126.225 34.384C126.011 34.2987 125.851 34.192 125.745 34.064C125.638 33.9253 125.585 33.76 125.585 33.568C125.585 33.2907 125.675 33.0773 125.857 32.928C126.049 32.7787 126.289 32.704 126.577 32.704H127.505C127.686 32.704 127.857 32.656 128.017 32.56C128.177 32.464 128.385 32.2933 128.641 32.048L131.489 29.328C131.809 29.008 132.107 28.7733 132.385 28.624C132.673 28.464 132.939 28.384 133.185 28.384C133.473 28.384 133.697 28.48 133.857 28.672C134.017 28.8533 134.097 29.12 134.097 29.472V42.32C134.097 43.12 134.235 43.728 134.513 44.144C134.79 44.5493 135.185 44.752 135.697 44.752C136.07 44.752 136.363 44.6613 136.577 44.48C136.79 44.288 136.966 44.0693 137.105 43.824C137.243 43.5787 137.382 43.3547 137.521 43.152C137.67 42.9387 137.862 42.8053 138.097 42.752C138.289 42.7413 138.443 42.8053 138.561 42.944C138.678 43.072 138.737 43.3013 138.737 43.632C138.715 44.5387 138.454 45.3547 137.953 46.08C137.451 46.8053 136.758 47.3813 135.873 47.808C134.998 48.224 133.985 48.432 132.833 48.432C131.115 48.432 129.787 48.0213 128.849 47.2C127.921 46.3787 127.457 45.1307 127.457 43.456V35.552C127.457 35.2747 127.403 35.072 127.297 34.944C127.201 34.816 127.041 34.704 126.817 34.608ZM131.841 34.752L131.873 32.704H137.633C137.931 32.704 138.166 32.768 138.337 32.896C138.518 33.024 138.609 33.2107 138.609 33.456C138.609 33.8187 138.427 34.128 138.065 34.384C137.713 34.6293 137.126 34.752 136.305 34.752H131.841ZM151.479 45.072V44.608L151.271 44.592V36.944C151.271 36.6347 151.228 36.416 151.143 36.288C151.057 36.1493 150.929 36.0587 150.759 36.016L150.375 35.92C150.161 35.8453 150.007 35.7493 149.911 35.632C149.825 35.504 149.783 35.344 149.783 35.152C149.783 34.9173 149.847 34.736 149.975 34.608C150.103 34.4693 150.337 34.336 150.679 34.208L154.535 32.784C155.025 32.6027 155.42 32.4693 155.719 32.384C156.017 32.288 156.316 32.24 156.615 32.24C157.041 32.24 157.367 32.3627 157.591 32.608C157.815 32.8533 157.927 33.1627 157.927 33.536V44.928C157.927 45.3227 157.959 45.6053 158.023 45.776C158.087 45.936 158.199 46.0533 158.359 46.128L158.743 46.272C158.967 46.368 159.127 46.4907 159.223 46.64C159.319 46.7787 159.367 46.944 159.367 47.136C159.367 47.4027 159.281 47.616 159.111 47.776C158.94 47.9253 158.663 48 158.279 48H154.055C153.372 48 152.769 47.712 152.247 47.136C151.735 46.5493 151.479 45.8613 151.479 45.072ZM141.062 43.472V36.944C141.062 36.6347 141.02 36.416 140.935 36.288C140.849 36.1493 140.721 36.0587 140.551 36.016L140.167 35.92C139.964 35.8453 139.815 35.7493 139.719 35.632C139.633 35.504 139.59 35.344 139.59 35.152C139.59 34.9173 139.649 34.736 139.767 34.608C139.895 34.4693 140.129 34.336 140.471 34.208L144.327 32.784C144.849 32.592 145.26 32.4533 145.559 32.368C145.857 32.2827 146.124 32.24 146.359 32.24C146.817 32.24 147.159 32.3627 147.383 32.608C147.617 32.8533 147.735 33.1627 147.735 33.536V42.56C147.735 43.232 147.884 43.7387 148.183 44.08C148.492 44.4107 148.924 44.576 149.479 44.576C149.831 44.576 150.193 44.512 150.567 44.384C150.951 44.2453 151.287 44.0427 151.575 43.776L152.151 43.28L153.015 44.208L152.519 44.672C151.057 46.0587 149.777 47.0347 148.679 47.6C147.58 48.1547 146.572 48.432 145.655 48.432C144.289 48.432 143.18 47.9787 142.327 47.072C141.484 46.1653 141.062 44.9653 141.062 43.472ZM170.075 44.912C170.075 45.264 170.128 45.536 170.235 45.728C170.341 45.9093 170.528 46.016 170.795 46.048L172.443 46.256C172.731 46.288 172.933 46.3893 173.051 46.56C173.179 46.72 173.243 46.9067 173.243 47.12C173.243 47.7067 172.891 48 172.187 48H162.347C162.027 48 161.771 47.9253 161.579 47.776C161.397 47.6267 161.307 47.424 161.307 47.168C161.307 46.9333 161.371 46.7413 161.499 46.592C161.627 46.4427 161.829 46.3253 162.107 46.24L162.603 46.096C162.923 46 163.141 45.8667 163.259 45.696C163.376 45.5147 163.435 45.2693 163.435 44.96V36.416C163.435 36.2347 163.381 36.0747 163.275 35.936C163.179 35.7973 162.992 35.664 162.715 35.536L162.011 35.248C161.648 35.0773 161.397 34.912 161.259 34.752C161.12 34.592 161.051 34.4107 161.051 34.208C161.051 33.984 161.136 33.7973 161.307 33.648C161.477 33.4987 161.739 33.424 162.091 33.424H164.699L163.467 33.904V33.472C163.467 33.248 163.371 33.024 163.179 32.8C162.997 32.576 162.779 32.32 162.523 32.032C162.277 31.7333 162.059 31.3813 161.867 30.976C161.685 30.5707 161.595 30.08 161.595 29.504C161.595 28.0427 162.16 26.8747 163.291 26C164.421 25.1147 166.011 24.672 168.059 24.672C169.381 24.672 170.491 24.8747 171.387 25.28C172.283 25.6747 172.955 26.208 173.403 26.88C173.861 27.5413 174.091 28.2613 174.091 29.04C174.091 29.9147 173.845 30.5813 173.355 31.04C172.864 31.488 172.229 31.712 171.451 31.712C170.576 31.712 169.872 31.456 169.339 30.944C168.816 30.4213 168.555 29.728 168.555 28.864V27.44C168.555 27.0133 168.432 26.6987 168.187 26.496C167.941 26.2933 167.632 26.192 167.259 26.192C166.8 26.192 166.453 26.3307 166.219 26.608C165.995 26.8853 165.883 27.28 165.883 27.792C165.883 28.3467 166.005 28.848 166.251 29.296C166.507 29.7333 166.816 30.1387 167.179 30.512C167.552 30.8747 167.92 31.2213 168.283 31.552C168.656 31.872 168.965 32.192 169.211 32.512C169.456 32.832 169.579 33.1733 169.579 33.536V34.32L168.923 33.424H172.523C172.821 33.424 173.061 33.488 173.243 33.616C173.424 33.744 173.515 33.9307 173.515 34.176C173.515 34.5387 173.333 34.848 172.971 35.104C172.608 35.3493 172.021 35.472 171.211 35.472H170.075V44.912ZM184.169 44.912C184.169 45.264 184.222 45.536 184.329 45.728C184.435 45.9093 184.622 46.016 184.889 46.048L186.537 46.256C186.825 46.288 187.027 46.3893 187.145 46.56C187.273 46.72 187.337 46.9067 187.337 47.12C187.337 47.7067 186.985 48 186.281 48H176.441C176.121 48 175.865 47.9253 175.673 47.776C175.491 47.6267 175.401 47.424 175.401 47.168C175.401 46.9333 175.465 46.7413 175.593 46.592C175.721 46.4427 175.923 46.3253 176.201 46.24L176.697 46.096C177.017 46 177.235 45.8667 177.353 45.696C177.47 45.5147 177.529 45.2693 177.529 44.96V36.416C177.529 36.2347 177.475 36.0747 177.369 35.936C177.273 35.7973 177.086 35.664 176.809 35.536L176.105 35.248C175.742 35.0773 175.491 34.912 175.353 34.752C175.214 34.592 175.145 34.4107 175.145 34.208C175.145 33.984 175.23 33.7973 175.401 33.648C175.571 33.4987 175.833 33.424 176.185 33.424H178.793L177.561 33.904V33.472C177.561 33.248 177.465 33.024 177.273 32.8C177.091 32.576 176.873 32.32 176.617 32.032C176.371 31.7333 176.153 31.3813 175.961 30.976C175.779 30.5707 175.689 30.08 175.689 29.504C175.689 28.0427 176.254 26.8747 177.385 26C178.515 25.1147 180.105 24.672 182.153 24.672C183.475 24.672 184.585 24.8747 185.481 25.28C186.377 25.6747 187.049 26.208 187.497 26.88C187.955 27.5413 188.185 28.2613 188.185 29.04C188.185 29.9147 187.939 30.5813 187.449 31.04C186.958 31.488 186.323 31.712 185.545 31.712C184.67 31.712 183.966 31.456 183.433 30.944C182.91 30.4213 182.649 29.728 182.649 28.864V27.44C182.649 27.0133 182.526 26.6987 182.281 26.496C182.035 26.2933 181.726 26.192 181.353 26.192C180.894 26.192 180.547 26.3307 180.313 26.608C180.089 26.8853 179.977 27.28 179.977 27.792C179.977 28.3467 180.099 28.848 180.345 29.296C180.601 29.7333 180.91 30.1387 181.273 30.512C181.646 30.8747 182.014 31.2213 182.377 31.552C182.75 31.872 183.059 32.192 183.305 32.512C183.55 32.832 183.673 33.1733 183.673 33.536V34.32L183.017 33.424H186.617C186.915 33.424 187.155 33.488 187.337 33.616C187.518 33.744 187.609 33.9307 187.609 34.176C187.609 34.5387 187.427 34.848 187.065 35.104C186.702 35.3493 186.115 35.472 185.305 35.472H184.169V44.912ZM47.7501 75.536V77.008L48.0221 77.568V94.384C48.0221 94.7787 48.0541 95.056 48.1181 95.216C48.1821 95.3867 48.2941 95.5093 48.4541 95.584L48.8381 95.728C49.0621 95.824 49.2221 95.9413 49.3181 96.08C49.4141 96.2293 49.4621 96.4 49.4621 96.592C49.4621 96.8587 49.3768 97.0667 49.2061 97.216C49.0355 97.376 48.7581 97.456 48.3741 97.456H41.0141C40.6301 97.456 40.3528 97.376 40.1821 97.216C40.0115 97.0667 39.9261 96.8587 39.9261 96.592C39.9261 96.4 39.9741 96.2293 40.0701 96.08C40.1661 95.9413 40.3261 95.824 40.5501 95.728L40.9341 95.584C41.0941 95.5093 41.2061 95.3867 41.2701 95.216C41.3341 95.056 41.3661 94.7787 41.3661 94.384V78.928C41.3661 78.6187 41.3235 78.4 41.2381 78.272C41.1528 78.144 41.0248 78.0533 40.8541 78L40.4701 77.904C40.2568 77.84 40.1021 77.744 40.0061 77.616C39.9208 77.488 39.8781 77.328 39.8781 77.136C39.8781 76.912 39.9421 76.7413 40.0701 76.624C40.1981 76.496 40.4328 76.3573 40.7741 76.208L44.3421 74.784C44.8221 74.5813 45.2115 74.4427 45.5101 74.368C45.8195 74.2827 46.1021 74.24 46.3581 74.24C46.8275 74.24 47.1741 74.3627 47.3981 74.608C47.6328 74.8533 47.7501 75.1627 47.7501 75.536ZM46.9341 79.76L45.8941 78.768C46.7795 77.3493 47.7661 76.24 48.8541 75.44C49.9421 74.64 51.1901 74.24 52.5981 74.24C53.8568 74.24 54.9821 74.56 55.9741 75.2C56.9661 75.84 57.7448 76.7307 58.3101 77.872C58.8861 79.0027 59.1741 80.3147 59.1741 81.808C59.1741 83.536 58.8221 85.0453 58.1181 86.336C57.4248 87.6267 56.4701 88.6347 55.2541 89.36C54.0381 90.0747 52.6675 90.432 51.1421 90.432C49.8835 90.432 48.7955 90.176 47.8781 89.664C46.9715 89.1413 46.1875 88.3467 45.5261 87.28L47.1101 86.224C47.5581 86.896 47.9901 87.376 48.4061 87.664C48.8328 87.9413 49.2915 88.08 49.7821 88.08C50.2941 88.08 50.7368 87.8987 51.1101 87.536C51.4941 87.1733 51.7875 86.5813 51.9901 85.76C52.2035 84.9387 52.3101 83.8453 52.3101 82.48C52.3101 81.232 52.2035 80.2347 51.9901 79.488C51.7768 78.7307 51.4835 78.1813 51.1101 77.84C50.7475 77.4987 50.3261 77.328 49.8461 77.328C49.2808 77.328 48.7581 77.52 48.2781 77.904C47.7981 78.288 47.3501 78.9067 46.9341 79.76ZM68.9139 67.136V86.928C68.9139 87.3227 68.9459 87.6053 69.0099 87.776C69.0739 87.936 69.1805 88.0533 69.3299 88.128L69.7139 88.272C69.9379 88.368 70.0979 88.4907 70.1939 88.64C70.2899 88.7787 70.3379 88.944 70.3379 89.136C70.3379 89.4027 70.2525 89.616 70.0819 89.776C69.9112 89.9253 69.6339 90 69.2499 90H61.8899C61.5165 90 61.2392 89.9253 61.0579 89.776C60.8872 89.616 60.8019 89.4027 60.8019 89.136C60.8019 88.944 60.8499 88.7787 60.9459 88.64C61.0525 88.4907 61.2179 88.368 61.4419 88.272L61.8259 88.128C61.9752 88.0533 62.0819 87.936 62.1459 87.776C62.2099 87.6053 62.2419 87.3227 62.2419 86.928V70.528C62.2419 70.2187 62.1992 70 62.1139 69.872C62.0285 69.744 61.9005 69.6533 61.7299 69.6L61.3459 69.504C61.1432 69.44 60.9939 69.344 60.8979 69.216C60.8125 69.088 60.7699 68.928 60.7699 68.736C60.7699 68.512 60.8285 68.336 60.9459 68.208C61.0739 68.0693 61.3085 67.9307 61.6499 67.792L65.5059 66.384C66.0285 66.1813 66.4392 66.0427 66.7379 65.968C67.0365 65.8827 67.3032 65.84 67.5379 65.84C67.9965 65.84 68.3379 65.9627 68.5619 66.208C68.7965 66.4533 68.9139 66.7627 68.9139 67.136ZM87.7859 80.496C87.7859 81.1573 87.5992 81.6747 87.2259 82.048C86.8632 82.4213 86.3405 82.608 85.6579 82.608H76.1059V81.088H80.3939C80.9379 81.088 81.2099 80.832 81.2099 80.32C81.2099 78.88 81.0499 77.8507 80.7299 77.232C80.4099 76.6133 79.9992 76.304 79.4979 76.304C79.1352 76.304 78.8045 76.4427 78.5059 76.72C78.2179 76.9973 77.9885 77.4347 77.8179 78.032C77.6472 78.6187 77.5619 79.376 77.5619 80.304C77.5619 82.2773 77.9992 83.7227 78.8739 84.64C79.7485 85.5573 80.9432 86.016 82.4579 86.016C83.2152 86.016 83.8925 85.9093 84.4899 85.696C85.0872 85.4827 85.6312 85.0987 86.1219 84.544C86.3885 84.2987 86.5912 84.1333 86.7299 84.048C86.8792 83.9627 87.0179 83.92 87.1459 83.92C87.3379 83.92 87.4819 84.016 87.5779 84.208C87.6739 84.3893 87.7219 84.624 87.7219 84.912C87.7219 85.8933 87.3965 86.8053 86.7459 87.648C86.1059 88.4907 85.2152 89.168 84.0739 89.68C82.9432 90.1813 81.6312 90.432 80.1379 90.432C78.5272 90.432 77.0819 90.112 75.8019 89.472C74.5219 88.832 73.5085 87.936 72.7619 86.784C72.0152 85.632 71.6419 84.288 71.6419 82.752C71.6419 81.0347 71.9832 79.5413 72.6659 78.272C73.3592 76.992 74.3565 76 75.6579 75.296C76.9699 74.592 78.5485 74.24 80.3939 74.24C82.0152 74.24 83.3752 74.512 84.4739 75.056C85.5725 75.6 86.3992 76.3413 86.9539 77.28C87.5085 78.2187 87.7859 79.2907 87.7859 80.496ZM98.9316 87.888V87.536L98.4516 87.568V77.056C98.4516 76.6613 98.3396 76.3413 98.1156 76.096C97.9023 75.8507 97.6143 75.728 97.2516 75.728C96.9636 75.728 96.713 75.8027 96.4996 75.952C96.297 76.0907 96.1956 76.2827 96.1956 76.528V78.272C96.1956 79.1467 95.8916 79.8347 95.2836 80.336C94.6863 80.8267 93.833 81.072 92.7236 81.072C91.7956 81.072 91.097 80.8747 90.6276 80.48C90.169 80.0747 89.9396 79.504 89.9396 78.768C89.9396 78.0747 90.2543 77.3867 90.8836 76.704C91.513 76.0107 92.4516 75.4347 93.6996 74.976C94.9476 74.5067 96.5263 74.272 98.4356 74.272C100.665 74.272 102.324 74.6827 103.412 75.504C104.5 76.3253 105.044 77.456 105.044 78.896V86.576C105.044 86.7893 105.097 86.96 105.204 87.088C105.31 87.216 105.465 87.28 105.668 87.28C105.849 87.28 105.998 87.232 106.116 87.136C106.233 87.04 106.334 86.928 106.42 86.8C106.484 86.7253 106.553 86.6667 106.628 86.624C106.702 86.5707 106.788 86.544 106.884 86.544C107.044 86.544 107.161 86.608 107.236 86.736C107.31 86.8533 107.348 87.0027 107.348 87.184C107.348 87.6213 107.182 88.096 106.852 88.608C106.521 89.1093 106.02 89.5413 105.348 89.904C104.686 90.256 103.854 90.432 102.852 90.432C101.678 90.432 100.729 90.192 100.004 89.712C99.289 89.2213 98.9316 88.6133 98.9316 87.888ZM89.3316 86.624C89.3316 85.184 89.977 84.048 91.2676 83.216C92.5583 82.3733 94.409 81.952 96.8196 81.952C97.4276 81.952 97.9556 82 98.4036 82.096C98.8516 82.1813 99.2196 82.304 99.5076 82.464L99.0116 83.696C98.7876 83.568 98.5743 83.4773 98.3716 83.424C98.169 83.3707 97.945 83.344 97.6996 83.344C97.1876 83.344 96.777 83.5253 96.4676 83.888C96.169 84.2507 96.0196 84.7787 96.0196 85.472C96.0196 86.1973 96.169 86.7413 96.4676 87.104C96.7663 87.4667 97.161 87.648 97.6516 87.648C97.9503 87.648 98.233 87.5733 98.4996 87.424C98.777 87.2747 98.985 87.104 99.1236 86.912L99.4916 88.048C98.9796 88.8053 98.2436 89.392 97.2836 89.808C96.3343 90.224 95.3156 90.432 94.2276 90.432C92.7663 90.432 91.5823 90.0693 90.6756 89.344C89.7796 88.6187 89.3316 87.712 89.3316 86.624ZM115.727 88.592C116.335 88.592 116.789 88.4587 117.087 88.192C117.386 87.9253 117.535 87.6 117.535 87.216C117.535 86.9707 117.487 86.7467 117.391 86.544C117.295 86.3307 117.082 86.1387 116.751 85.968C116.431 85.7867 115.935 85.632 115.263 85.504C113.343 85.1627 111.877 84.7147 110.863 84.16C109.861 83.6053 109.173 82.96 108.799 82.224C108.437 81.4773 108.255 80.6347 108.255 79.696C108.255 77.9893 108.847 76.656 110.031 75.696C111.226 74.7253 112.965 74.24 115.247 74.24C116.047 74.24 116.682 74.304 117.151 74.432C117.631 74.56 118.015 74.688 118.303 74.816C118.591 74.944 118.842 75.008 119.055 75.008C119.311 75.008 119.519 74.944 119.679 74.816C119.85 74.688 120.026 74.56 120.207 74.432C120.389 74.304 120.613 74.24 120.879 74.24C121.082 74.24 121.263 74.3093 121.423 74.448C121.594 74.5867 121.733 74.8373 121.839 75.2L122.655 78.304C122.805 78.8053 122.847 79.2053 122.783 79.504C122.719 79.8027 122.538 80.0107 122.239 80.128C121.93 80.2453 121.663 80.2507 121.439 80.144C121.215 80.0373 120.997 79.824 120.783 79.504C120.261 78.7147 119.722 78.0693 119.167 77.568C118.623 77.0667 118.058 76.6933 117.471 76.448C116.895 76.2027 116.293 76.08 115.663 76.08C114.959 76.08 114.431 76.2187 114.079 76.496C113.727 76.7627 113.551 77.1253 113.551 77.584C113.551 77.872 113.626 78.128 113.775 78.352C113.925 78.5653 114.223 78.7627 114.671 78.944C115.13 79.1147 115.807 79.2853 116.703 79.456C118.218 79.744 119.418 80.1493 120.303 80.672C121.189 81.1947 121.823 81.8293 122.207 82.576C122.591 83.312 122.783 84.1813 122.783 85.184C122.783 86.24 122.501 87.1627 121.935 87.952C121.37 88.7413 120.597 89.3547 119.615 89.792C118.645 90.2187 117.535 90.432 116.287 90.432C115.519 90.432 114.911 90.3627 114.463 90.224C114.015 90.096 113.647 89.9627 113.359 89.824C113.071 89.6853 112.805 89.616 112.559 89.616C112.303 89.616 112.063 89.6853 111.839 89.824C111.626 89.952 111.413 90.08 111.199 90.208C110.986 90.3467 110.762 90.416 110.527 90.416C110.314 90.416 110.133 90.336 109.983 90.176C109.834 90.0267 109.722 89.76 109.647 89.376L109.151 86.448C109.066 85.9573 109.061 85.5893 109.135 85.344C109.21 85.0987 109.381 84.9173 109.647 84.8C109.946 84.672 110.207 84.6773 110.431 84.816C110.666 84.944 110.901 85.1733 111.135 85.504C111.914 86.624 112.687 87.4187 113.455 87.888C114.223 88.3573 114.981 88.592 115.727 88.592ZM140.88 80.496C140.88 81.1573 140.693 81.6747 140.32 82.048C139.957 82.4213 139.434 82.608 138.752 82.608H129.2V81.088H133.488C134.032 81.088 134.304 80.832 134.304 80.32C134.304 78.88 134.144 77.8507 133.824 77.232C133.504 76.6133 133.093 76.304 132.592 76.304C132.229 76.304 131.898 76.4427 131.6 76.72C131.312 76.9973 131.082 77.4347 130.912 78.032C130.741 78.6187 130.656 79.376 130.656 80.304C130.656 82.2773 131.093 83.7227 131.968 84.64C132.842 85.5573 134.037 86.016 135.552 86.016C136.309 86.016 136.986 85.9093 137.584 85.696C138.181 85.4827 138.725 85.0987 139.216 84.544C139.482 84.2987 139.685 84.1333 139.824 84.048C139.973 83.9627 140.112 83.92 140.24 83.92C140.432 83.92 140.576 84.016 140.672 84.208C140.768 84.3893 140.816 84.624 140.816 84.912C140.816 85.8933 140.49 86.8053 139.84 87.648C139.2 88.4907 138.309 89.168 137.168 89.68C136.037 90.1813 134.725 90.432 133.232 90.432C131.621 90.432 130.176 90.112 128.896 89.472C127.616 88.832 126.602 87.936 125.856 86.784C125.109 85.632 124.736 84.288 124.736 82.752C124.736 81.0347 125.077 79.5413 125.76 78.272C126.453 76.992 127.45 76 128.752 75.296C130.064 74.592 131.642 74.24 133.488 74.24C135.109 74.24 136.469 74.512 137.568 75.056C138.666 75.6 139.493 76.3413 140.048 77.28C140.602 78.2187 140.88 79.2907 140.88 80.496ZM148.617 79.376C148.479 78.8747 148.505 78.4533 148.697 78.112C148.889 77.76 149.279 77.4613 149.865 77.216L150.937 76.752C151.599 76.464 152.041 75.9147 152.265 75.104C152.489 74.2827 152.601 73.1093 152.601 71.584C152.601 70.496 152.463 69.6693 152.185 69.104C151.919 68.528 151.481 68.24 150.873 68.24C150.383 68.24 149.983 68.4107 149.673 68.752C149.364 69.0827 149.209 69.5733 149.209 70.224V71.776C149.209 73.056 148.9 74.0427 148.281 74.736C147.663 75.4293 146.772 75.776 145.609 75.776C144.628 75.776 143.833 75.4827 143.225 74.896C142.628 74.3093 142.329 73.4773 142.329 72.4C142.329 71.312 142.703 70.32 143.449 69.424C144.196 68.528 145.231 67.808 146.553 67.264C147.876 66.72 149.391 66.448 151.097 66.448C154.169 66.448 156.436 66.976 157.897 68.032C159.369 69.0773 160.105 70.5973 160.105 72.592C160.105 74.16 159.636 75.424 158.697 76.384C157.759 77.3333 156.26 77.984 154.201 78.336L153.017 78.528C152.665 78.592 152.404 78.7093 152.233 78.88C152.073 79.04 151.945 79.2907 151.849 79.632L151.513 80.784C151.375 81.2107 151.209 81.504 151.017 81.664C150.836 81.8133 150.585 81.888 150.265 81.888C149.903 81.888 149.62 81.8027 149.417 81.632C149.215 81.4613 149.06 81.1947 148.953 80.832L148.617 79.376ZM150.121 90.464C150.836 90.464 151.476 90.288 152.041 89.936C152.607 89.584 153.055 89.1147 153.385 88.528C153.716 87.9413 153.881 87.3067 153.881 86.624C153.881 85.92 153.716 85.2853 153.385 84.72C153.055 84.144 152.607 83.6853 152.041 83.344C151.476 82.992 150.836 82.816 150.121 82.816C149.428 82.816 148.799 82.992 148.233 83.344C147.668 83.6853 147.22 84.144 146.889 84.72C146.559 85.2853 146.393 85.92 146.393 86.624C146.393 87.3067 146.559 87.9413 146.889 88.528C147.22 89.1147 147.668 89.584 148.233 89.936C148.799 90.288 149.428 90.464 150.121 90.464Z" fill="white"/>
</svg>
