<svg width="236" height="80" viewBox="0 0 236 80" fill="none" xmlns="http://www.w3.org/2000/svg">
<rect width="236" height="80" fill="#2A7BE8"/>
<path d="M29.2649 27.424L26.9289 26.72L27.1049 26.192H34.6889L34.5129 26.72L31.8569 27.456L26.0009 46.768L28.3209 47.472L28.1449 48H20.5769L20.7369 47.472L23.3929 46.736L29.2649 27.424ZM47.4951 28.768C46.8551 28.1707 46.2098 27.7227 45.5591 27.424C44.9191 27.1253 44.1031 26.976 43.1111 26.976C42.1298 26.976 41.2925 27.1413 40.5991 27.472C39.9058 27.792 39.3778 28.2613 39.0151 28.88C38.6525 29.488 38.4711 30.2347 38.4711 31.12C38.4711 31.9947 38.6898 32.6987 39.1271 33.232C39.5645 33.7653 40.1138 34.2187 40.7751 34.592C41.4365 34.9547 42.1085 35.3227 42.7911 35.696C43.4631 36.0693 44.0978 36.496 44.6951 36.976C45.2925 37.4453 45.7778 38.0373 46.1511 38.752C46.5245 39.4667 46.7111 40.3733 46.7111 41.472C46.7111 42.816 46.3645 44.0053 45.6711 45.04C44.9778 46.0747 43.9965 46.88 42.7271 47.456C41.4685 48.032 39.9858 48.32 38.2791 48.32C37.2445 48.32 36.3271 48.24 35.5271 48.08C34.7378 47.9307 33.9431 47.6693 33.1431 47.296L32.9671 41.712H33.5591L35.9431 47.264L35.0151 46.416C35.5698 46.6933 36.0978 46.896 36.5991 47.024C37.1005 47.1413 37.6711 47.2 38.3111 47.2C39.6231 47.2 40.7325 47.008 41.6391 46.624C42.5565 46.24 43.2551 45.68 43.7351 44.944C44.2151 44.1973 44.4551 43.3013 44.4551 42.256C44.4551 41.4027 44.2951 40.704 43.9751 40.16C43.6658 39.6053 43.2605 39.1467 42.7591 38.784C42.2578 38.4107 41.7245 38.0907 41.1591 37.824C40.5938 37.5573 40.0658 37.28 39.5751 36.992C38.9351 36.608 38.3698 36.208 37.8791 35.792C37.3885 35.3653 37.0045 34.8533 36.7271 34.256C36.4605 33.6587 36.3271 32.9227 36.3271 32.048C36.3271 30.864 36.6205 29.808 37.2071 28.88C37.8045 27.9413 38.6525 27.2053 39.7511 26.672C40.8605 26.1387 42.1725 25.872 43.6871 25.872C44.5298 25.872 45.2925 25.9467 45.9751 26.096C46.6685 26.2453 47.4205 26.5013 48.2311 26.864L47.0951 26.72L49.3191 25.28H49.5911L48.3271 32.672H47.7511L46.6471 27.344L47.4951 28.768ZM53.7149 40.256C53.7149 42.5067 54.2162 44.2133 55.2189 45.376C56.2322 46.5387 57.6722 47.12 59.5389 47.12C60.4882 47.12 61.3895 46.9547 62.2429 46.624C63.0962 46.2827 63.8962 45.8133 64.6429 45.216C65.3895 44.608 66.0615 43.8933 66.6589 43.072C67.2669 42.2507 67.7842 41.3493 68.2109 40.368C68.6482 39.3867 68.9789 38.352 69.2029 37.264C69.4375 36.1653 69.5549 35.0507 69.5549 33.92C69.5549 31.68 69.0482 29.9787 68.0349 28.816C67.0322 27.6533 65.5975 27.072 63.7309 27.072C62.7922 27.072 61.8909 27.2373 61.0269 27.568C60.1735 27.8987 59.3735 28.368 58.6269 28.976C57.8802 29.584 57.2029 30.2987 56.5949 31.12C55.9975 31.9413 55.4802 32.8427 55.0429 33.824C54.6162 34.8053 54.2855 35.84 54.0509 36.928C53.8269 38.016 53.7149 39.1253 53.7149 40.256ZM72.2429 34.544C72.2429 35.984 72.0349 37.3813 71.6189 38.736C71.2029 40.0907 70.6109 41.3493 69.8429 42.512C69.0749 43.664 68.1629 44.6773 67.1069 45.552C66.0615 46.4267 64.8989 47.1093 63.6189 47.6C62.3495 48.08 60.9895 48.32 59.5389 48.32C57.8002 48.32 56.2909 47.9733 55.0109 47.28C53.7415 46.5867 52.7602 45.5947 52.0669 44.304C51.3842 43.0027 51.0429 41.4507 51.0429 39.648C51.0429 38.1973 51.2455 36.8 51.6509 35.456C52.0669 34.1013 52.6589 32.848 53.4269 31.696C54.1949 30.5333 55.1015 29.5147 56.1469 28.64C57.2029 27.7653 58.3709 27.088 59.6509 26.608C60.9309 26.1173 62.2909 25.872 63.7309 25.872C65.4695 25.872 66.9735 26.2187 68.2429 26.912C69.5229 27.5947 70.5095 28.5813 71.2029 29.872C71.8962 31.1627 72.2429 32.72 72.2429 34.544ZM74.4644 44.272C74.9977 44.272 75.4244 44.432 75.7444 44.752C76.075 45.0613 76.2404 45.456 76.2404 45.936C76.2404 46.352 76.139 46.736 75.9364 47.088C75.7337 47.44 75.4564 47.7227 75.1044 47.936C74.763 48.1387 74.363 48.24 73.9044 48.24C73.3817 48.24 72.955 48.0853 72.6244 47.776C72.3044 47.456 72.1444 47.0613 72.1444 46.592C72.1444 46.1653 72.2457 45.7813 72.4484 45.44C72.651 45.088 72.9284 44.8053 73.2804 44.592C73.6324 44.3787 74.027 44.272 74.4644 44.272ZM81.4956 44.272C82.029 44.272 82.4556 44.432 82.7756 44.752C83.1063 45.0613 83.2716 45.456 83.2716 45.936C83.2716 46.352 83.1703 46.736 82.9676 47.088C82.765 47.44 82.4876 47.7227 82.1356 47.936C81.7943 48.1387 81.3943 48.24 80.9356 48.24C80.413 48.24 79.9863 48.0853 79.6556 47.776C79.3356 47.456 79.1756 47.0613 79.1756 46.592C79.1756 46.1653 79.277 45.7813 79.4796 45.44C79.6823 45.088 79.9596 44.8053 80.3116 44.592C80.6636 44.3787 81.0583 44.272 81.4956 44.272ZM88.5269 44.272C89.0602 44.272 89.4869 44.432 89.8069 44.752C90.1375 45.0613 90.3029 45.456 90.3029 45.936C90.3029 46.352 90.2015 46.736 89.9989 47.088C89.7962 47.44 89.5189 47.7227 89.1669 47.936C88.8255 48.1387 88.4255 48.24 87.9669 48.24C87.4442 48.24 87.0175 48.0853 86.6869 47.776C86.3669 47.456 86.2069 47.0613 86.2069 46.592C86.2069 46.1653 86.3082 45.7813 86.5109 45.44C86.7135 45.088 86.9909 44.8053 87.3429 44.592C87.6949 44.3787 88.0895 44.272 88.5269 44.272ZM94.6781 44.688C94.8061 44.88 94.9288 45.0933 95.0461 45.328C95.1741 45.5627 95.3715 45.8773 95.6381 46.272C95.9048 46.6773 96.1715 46.9547 96.4381 47.104C96.7048 47.2533 96.9768 47.328 97.2541 47.328C97.7448 47.328 98.1768 47.2427 98.5501 47.072C98.9235 46.9013 99.2115 46.6507 99.4141 46.32C99.6275 45.9893 99.7341 45.584 99.7341 45.104C99.7341 44.784 99.6755 44.4587 99.5581 44.128C99.4515 43.7867 99.2648 43.408 98.9981 42.992C98.7315 42.576 98.3528 42.08 97.8621 41.504C97.3821 40.928 97.0035 40.4107 96.7261 39.952C96.4488 39.4933 96.2515 39.072 96.1341 38.688C96.0275 38.2933 95.9741 37.9147 95.9741 37.552C95.9741 36.7733 96.1608 36.064 96.5341 35.424C96.9075 34.784 97.4461 34.2773 98.1501 33.904C98.8541 33.52 99.6968 33.328 100.678 33.328C101.403 33.328 101.99 33.424 102.438 33.616C102.886 33.7973 103.211 34.0427 103.414 34.352C103.617 34.6507 103.718 34.992 103.718 35.376C103.718 35.6427 103.659 35.8827 103.542 36.096C103.425 36.2987 103.249 36.4587 103.014 36.576C102.779 36.6827 102.491 36.736 102.15 36.736C102.075 36.544 101.974 36.352 101.846 36.16C101.729 35.968 101.547 35.7013 101.302 35.36C101.057 35.0187 100.795 34.768 100.518 34.608C100.241 34.4373 99.9635 34.352 99.6861 34.352C99.0568 34.352 98.5608 34.5227 98.1981 34.864C97.8461 35.2053 97.6701 35.6907 97.6701 36.32C97.6701 36.576 97.7235 36.8587 97.8301 37.168C97.9475 37.4773 98.1395 37.8453 98.4061 38.272C98.6835 38.688 99.0515 39.1893 99.5101 39.776C99.9901 40.3627 100.363 40.9013 100.63 41.392C100.907 41.872 101.11 42.3147 101.238 42.72C101.366 43.1253 101.43 43.5147 101.43 43.888C101.43 44.7307 101.206 45.488 100.758 46.16C100.31 46.832 99.7021 47.36 98.9341 47.744C98.1768 48.128 97.3128 48.32 96.3421 48.32C95.5635 48.32 94.9235 48.2187 94.4221 48.016C93.9315 47.8133 93.5688 47.5467 93.3341 47.216C93.0995 46.8747 92.9821 46.512 92.9821 46.128C92.9821 45.84 93.0461 45.5893 93.1741 45.376C93.3128 45.152 93.5101 44.9813 93.7661 44.864C94.0221 44.7467 94.3261 44.688 94.6781 44.688ZM112.301 33.328C113.165 33.328 113.901 33.5147 114.509 33.888C115.117 34.2507 115.581 34.784 115.901 35.488C116.232 36.1813 116.397 37.024 116.397 38.016C116.397 39.3173 116.189 40.5813 115.773 41.808C115.368 43.0347 114.802 44.1387 114.077 45.12C113.352 46.1013 112.509 46.88 111.549 47.456C110.589 48.032 109.554 48.32 108.445 48.32C107.592 48.32 106.856 48.1387 106.237 47.776C105.629 47.4027 105.16 46.8693 104.829 46.176C104.509 45.472 104.349 44.624 104.349 43.632C104.349 42.3307 104.557 41.0667 104.973 39.84C105.389 38.6133 105.96 37.5147 106.685 36.544C107.41 35.5627 108.253 34.784 109.213 34.208C110.173 33.6213 111.202 33.328 112.301 33.328ZM108.477 47.392C109.053 47.392 109.613 47.1893 110.157 46.784C110.701 46.3787 111.208 45.8293 111.677 45.136C112.157 44.432 112.573 43.6427 112.925 42.768C113.288 41.8827 113.57 40.96 113.773 40C113.976 39.04 114.077 38.096 114.077 37.168C114.077 36.176 113.933 35.4453 113.645 34.976C113.357 34.5067 112.898 34.272 112.269 34.272C111.704 34.272 111.149 34.4747 110.605 34.88C110.061 35.2853 109.549 35.8347 109.069 36.528C108.6 37.2213 108.184 38.0107 107.821 38.896C107.469 39.7707 107.186 40.6933 106.973 41.664C106.77 42.624 106.669 43.5627 106.669 44.48C106.669 45.4613 106.813 46.192 107.101 46.672C107.389 47.152 107.848 47.392 108.477 47.392ZM135.84 46.8L135.776 46.24C136.117 46.2507 136.512 46.1813 136.96 46.032C137.408 45.8827 137.899 45.6373 138.432 45.296C138.965 44.944 139.509 44.4907 140.064 43.936L140.464 44.336C139.664 45.328 138.923 46.1173 138.24 46.704C137.568 47.28 136.944 47.696 136.368 47.952C135.803 48.1973 135.275 48.32 134.784 48.32C134.091 48.32 133.653 48.2133 133.472 48C133.301 47.776 133.339 47.36 133.584 46.752L137.12 37.76C137.259 37.408 137.36 37.12 137.424 36.896C137.488 36.672 137.52 36.4693 137.52 36.288C137.52 36 137.424 35.776 137.232 35.616C137.051 35.4453 136.736 35.36 136.288 35.36C135.765 35.36 135.216 35.5627 134.64 35.968C134.064 36.3627 133.488 36.9013 132.912 37.584C132.336 38.2667 131.803 39.0453 131.312 39.92C130.821 40.7947 130.411 41.7013 130.08 42.64L128.32 48H126.016L129.536 37.488C129.589 37.3173 129.637 37.1627 129.68 37.024C129.723 36.8747 129.755 36.736 129.776 36.608C129.797 36.48 129.808 36.3627 129.808 36.256C129.808 35.968 129.717 35.7493 129.536 35.6C129.355 35.44 129.061 35.36 128.656 35.36C128.155 35.36 127.616 35.568 127.04 35.984C126.464 36.3893 125.893 36.9493 125.328 37.664C124.763 38.368 124.235 39.184 123.744 40.112C123.253 41.04 122.848 42.016 122.528 43.04L120.96 48H118.688L122.56 35.584C122.549 35.5413 122.523 35.4987 122.48 35.456C122.448 35.4133 122.389 35.392 122.304 35.392C121.963 35.392 121.605 35.4827 121.232 35.664C120.859 35.8453 120.464 36.1653 120.048 36.624C119.643 37.0827 119.205 37.7333 118.736 38.576L118.256 38.384C118.768 37.0933 119.301 36.0853 119.856 35.36C120.411 34.624 120.987 34.1067 121.584 33.808C122.181 33.4987 122.789 33.344 123.408 33.344C123.621 33.344 123.829 33.36 124.032 33.392C124.235 33.4133 124.432 33.4507 124.624 33.504C124.827 33.5467 125.024 33.6 125.216 33.664L123.376 39.568H123.248C123.973 38.3413 124.635 37.3227 125.232 36.512C125.829 35.7013 126.389 35.0667 126.912 34.608C127.435 34.1387 127.931 33.808 128.4 33.616C128.88 33.424 129.365 33.328 129.856 33.328C130.699 33.328 131.301 33.4987 131.664 33.84C132.037 34.1707 132.224 34.6187 132.224 35.184C132.224 35.504 132.176 35.8667 132.08 36.272C131.984 36.6773 131.851 37.1467 131.68 37.68L131.2 39.12H131.04C131.691 38.0427 132.299 37.1307 132.864 36.384C133.44 35.6373 133.989 35.04 134.512 34.592C135.045 34.144 135.557 33.824 136.048 33.632C136.549 33.4293 137.04 33.328 137.52 33.328C138.405 33.328 139.024 33.504 139.376 33.856C139.739 34.208 139.92 34.6773 139.92 35.264C139.92 35.616 139.861 36.0213 139.744 36.48C139.627 36.928 139.435 37.4987 139.168 38.192L135.84 46.8ZM149.523 34.288C148.872 34.288 148.28 34.496 147.747 34.912C147.214 35.328 146.739 35.8773 146.323 36.56C145.918 37.232 145.576 37.9733 145.299 38.784C145.022 39.5947 144.808 40.4053 144.659 41.216C144.52 42.016 144.451 42.7413 144.451 43.392C144.451 44.5013 144.664 45.2907 145.091 45.76C145.518 46.2187 146.094 46.448 146.819 46.448C147.331 46.448 147.816 46.352 148.275 46.16C148.744 45.9573 149.203 45.6107 149.651 45.12C150.11 44.6293 150.558 43.952 150.995 43.088H151.699C151.134 44.4427 150.563 45.4987 149.987 46.256C149.422 47.0133 148.819 47.5467 148.179 47.856C147.539 48.1653 146.819 48.32 146.019 48.32C145.208 48.32 144.499 48.16 143.891 47.84C143.294 47.52 142.83 47.0507 142.499 46.432C142.179 45.8133 142.019 45.0453 142.019 44.128C142.019 43.008 142.158 41.92 142.435 40.864C142.712 39.7973 143.102 38.8107 143.603 37.904C144.104 36.9973 144.686 36.2027 145.347 35.52C146.019 34.8373 146.744 34.304 147.523 33.92C148.312 33.5253 149.134 33.328 149.987 33.328C150.734 33.328 151.336 33.456 151.795 33.712C152.264 33.968 152.606 34.3093 152.819 34.736C153.043 35.152 153.155 35.6053 153.155 36.096C153.155 36.5547 153.064 37.0133 152.883 37.472C152.712 37.9307 152.467 38.32 152.147 38.64C151.614 38.8747 151.032 39.12 150.403 39.376C149.774 39.6213 149.118 39.872 148.435 40.128C147.752 40.3733 147.054 40.6133 146.339 40.848C145.635 41.0827 144.926 41.3067 144.211 41.52L144.275 40.544C145.352 40.224 146.28 39.9093 147.059 39.6C147.838 39.2907 148.483 38.9867 148.995 38.688C149.507 38.3893 149.907 38.0853 150.195 37.776C150.494 37.4667 150.707 37.152 150.835 36.832C150.963 36.512 151.027 36.1867 151.027 35.856C151.027 35.5467 150.968 35.2747 150.851 35.04C150.734 34.8053 150.563 34.624 150.339 34.496C150.126 34.3573 149.854 34.288 149.523 34.288ZM162.272 44.688C162.4 44.88 162.523 45.0933 162.64 45.328C162.768 45.5627 162.965 45.8773 163.232 46.272C163.499 46.6773 163.765 46.9547 164.032 47.104C164.299 47.2533 164.571 47.328 164.848 47.328C165.339 47.328 165.771 47.2427 166.144 47.072C166.517 46.9013 166.805 46.6507 167.008 46.32C167.221 45.9893 167.328 45.584 167.328 45.104C167.328 44.784 167.269 44.4587 167.152 44.128C167.045 43.7867 166.859 43.408 166.592 42.992C166.325 42.576 165.947 42.08 165.456 41.504C164.976 40.928 164.597 40.4107 164.32 39.952C164.043 39.4933 163.845 39.072 163.728 38.688C163.621 38.2933 163.568 37.9147 163.568 37.552C163.568 36.7733 163.755 36.064 164.128 35.424C164.501 34.784 165.04 34.2773 165.744 33.904C166.448 33.52 167.291 33.328 168.272 33.328C168.997 33.328 169.584 33.424 170.032 33.616C170.48 33.7973 170.805 34.0427 171.008 34.352C171.211 34.6507 171.312 34.992 171.312 35.376C171.312 35.6427 171.253 35.8827 171.136 36.096C171.019 36.2987 170.843 36.4587 170.608 36.576C170.373 36.6827 170.085 36.736 169.744 36.736C169.669 36.544 169.568 36.352 169.44 36.16C169.323 35.968 169.141 35.7013 168.896 35.36C168.651 35.0187 168.389 34.768 168.112 34.608C167.835 34.4373 167.557 34.352 167.28 34.352C166.651 34.352 166.155 34.5227 165.792 34.864C165.44 35.2053 165.264 35.6907 165.264 36.32C165.264 36.576 165.317 36.8587 165.424 37.168C165.541 37.4773 165.733 37.8453 166 38.272C166.277 38.688 166.645 39.1893 167.104 39.776C167.584 40.3627 167.957 40.9013 168.224 41.392C168.501 41.872 168.704 42.3147 168.832 42.72C168.96 43.1253 169.024 43.5147 169.024 43.888C169.024 44.7307 168.8 45.488 168.352 46.16C167.904 46.832 167.296 47.36 166.528 47.744C165.771 48.128 164.907 48.32 163.936 48.32C163.157 48.32 162.517 48.2187 162.016 48.016C161.525 47.8133 161.163 47.5467 160.928 47.216C160.693 46.8747 160.576 46.512 160.576 46.128C160.576 45.84 160.64 45.5893 160.768 45.376C160.907 45.152 161.104 44.9813 161.36 44.864C161.616 44.7467 161.92 44.688 162.272 44.688ZM173.252 34.816L173.54 33.648H181.684L181.444 34.816H173.252ZM175.364 44.528C175.311 44.7093 175.268 44.8747 175.236 45.024C175.204 45.1627 175.177 45.2853 175.156 45.392C175.145 45.4987 175.14 45.5947 175.14 45.68C175.14 45.8507 175.177 45.9787 175.252 46.064C175.337 46.1493 175.449 46.192 175.588 46.192C175.812 46.192 176.121 46.0747 176.516 45.84C176.921 45.5947 177.375 45.232 177.876 44.752C178.388 44.2613 178.932 43.648 179.508 42.912L180.02 43.248C179.465 44.1013 178.932 44.8427 178.42 45.472C177.908 46.1013 177.417 46.624 176.948 47.04C176.479 47.456 176.031 47.7707 175.604 47.984C175.177 48.1973 174.772 48.304 174.388 48.304C173.929 48.304 173.556 48.1707 173.268 47.904C172.98 47.6267 172.836 47.1627 172.836 46.512C172.836 46.2453 172.863 45.9253 172.916 45.552C172.98 45.168 173.097 44.688 173.268 44.112L177.22 30.576H179.508L175.364 44.528ZM189.659 47.328L191.339 41.872H191.451C190.673 43.2053 189.969 44.2933 189.339 45.136C188.721 45.9787 188.145 46.6293 187.611 47.088C187.089 47.5467 186.593 47.8667 186.123 48.048C185.654 48.2293 185.179 48.32 184.699 48.32C183.899 48.32 183.323 48.1387 182.971 47.776C182.63 47.4133 182.459 46.9333 182.459 46.336C182.459 46.0053 182.507 45.6267 182.603 45.2C182.71 44.7733 182.865 44.2987 183.067 43.776L186.395 34.864L186.811 35.488C186.491 35.4347 186.097 35.4933 185.627 35.664C185.158 35.824 184.641 36.1013 184.075 36.496C183.521 36.88 182.939 37.3973 182.331 38.048L181.899 37.664C182.699 36.5867 183.435 35.7333 184.107 35.104C184.779 34.464 185.409 34.0107 185.995 33.744C186.593 33.4667 187.153 33.328 187.675 33.328C188.166 33.328 188.518 33.424 188.731 33.616C188.955 33.7973 188.993 34.0747 188.843 34.448L185.147 44.224C185.062 44.48 184.993 44.7093 184.939 44.912C184.886 45.1147 184.859 45.296 184.859 45.456C184.859 45.7333 184.945 45.9413 185.115 46.08C185.297 46.2187 185.579 46.288 185.963 46.288C186.422 46.288 186.934 46.0907 187.499 45.696C188.065 45.3013 188.635 44.7627 189.211 44.08C189.798 43.3973 190.337 42.608 190.827 41.712C191.329 40.816 191.734 39.8667 192.043 38.864L193.707 33.648H195.979L191.899 46.688L191.835 46.224C192.166 46.2773 192.561 46.2293 193.019 46.08C193.478 45.9307 193.974 45.68 194.507 45.328C195.051 44.9653 195.601 44.5013 196.155 43.936L196.523 44.352C195.35 45.8667 194.315 46.9067 193.419 47.472C192.523 48.0373 191.707 48.32 190.971 48.32C190.406 48.32 190.022 48.2347 189.819 48.064C189.617 47.904 189.563 47.6587 189.659 47.328ZM198.09 34.816L198.298 33.648H207.386L207.146 34.816H198.09ZM201.37 44.736C200.922 46.8693 200.404 48.6667 199.818 50.128C199.231 51.6 198.586 52.784 197.882 53.68C197.188 54.576 196.447 55.2213 195.658 55.616C194.868 56.0107 194.047 56.208 193.194 56.208C192.319 56.208 191.658 56.032 191.21 55.68C190.751 55.328 190.522 54.8747 190.522 54.32C190.522 53.936 190.65 53.5893 190.906 53.28C191.162 52.9813 191.487 52.832 191.882 52.832C192.148 52.832 192.372 52.928 192.554 53.12C192.735 53.3227 192.895 53.6 193.034 53.952C193.172 54.3147 193.354 54.5653 193.578 54.704C193.802 54.8427 194.047 54.912 194.314 54.912C194.74 54.912 195.151 54.8 195.546 54.576C195.93 54.352 196.303 53.9467 196.666 53.36C197.028 52.7733 197.38 51.9573 197.722 50.912C198.063 49.8667 198.399 48.5227 198.73 46.88L201.514 33.36C201.876 31.5467 202.447 30.0267 203.226 28.8C204.015 27.5627 204.97 26.624 206.09 25.984C207.21 25.344 208.442 25.024 209.786 25.024C210.532 25.024 211.151 25.1147 211.642 25.296C212.143 25.4773 212.516 25.7227 212.762 26.032C213.018 26.3307 213.146 26.6773 213.146 27.072C213.146 27.5093 212.996 27.8773 212.698 28.176C212.399 28.464 211.999 28.608 211.498 28.608C211.188 28.608 210.938 28.4587 210.746 28.16C210.554 27.8613 210.378 27.536 210.218 27.184C210.079 26.8213 209.882 26.56 209.626 26.4C209.37 26.2293 209.039 26.144 208.634 26.144C207.908 26.144 207.258 26.336 206.682 26.72C206.106 27.104 205.604 27.696 205.178 28.496C204.751 29.296 204.404 30.32 204.138 31.568L201.37 44.736ZM207.308 34.816L207.516 33.648H216.604L216.364 34.816H207.308ZM210.588 44.736C210.14 46.8693 209.623 48.6667 209.036 50.128C208.45 51.6 207.804 52.784 207.1 53.68C206.407 54.576 205.666 55.2213 204.876 55.616C204.087 56.0107 203.266 56.208 202.412 56.208C201.538 56.208 200.876 56.032 200.428 55.68C199.97 55.328 199.74 54.8747 199.74 54.32C199.74 53.936 199.868 53.5893 200.124 53.28C200.38 52.9813 200.706 52.832 201.1 52.832C201.367 52.832 201.591 52.928 201.772 53.12C201.954 53.3227 202.114 53.6 202.252 53.952C202.391 54.3147 202.572 54.5653 202.796 54.704C203.02 54.8427 203.266 54.912 203.532 54.912C203.959 54.912 204.37 54.8 204.764 54.576C205.148 54.352 205.522 53.9467 205.884 53.36C206.247 52.7733 206.599 51.9573 206.94 50.912C207.282 49.8667 207.618 48.5227 207.948 46.88L210.732 33.36C211.095 31.5467 211.666 30.0267 212.444 28.8C213.234 27.5627 214.188 26.624 215.308 25.984C216.428 25.344 217.66 25.024 219.004 25.024C219.751 25.024 220.37 25.1147 220.86 25.296C221.362 25.4773 221.735 25.7227 221.98 26.032C222.236 26.3307 222.364 26.6773 222.364 27.072C222.364 27.5093 222.215 27.8773 221.916 28.176C221.618 28.464 221.218 28.608 220.716 28.608C220.407 28.608 220.156 28.4587 219.964 28.16C219.772 27.8613 219.596 27.536 219.436 27.184C219.298 26.8213 219.1 26.56 218.844 26.4C218.588 26.2293 218.258 26.144 217.852 26.144C217.127 26.144 216.476 26.336 215.9 26.72C215.324 27.104 214.823 27.696 214.396 28.496C213.97 29.296 213.623 30.32 213.356 31.568L210.588 44.736Z" fill="white"/>
</svg>
