<svg width="160" height="157" viewBox="0 0 160 157" fill="none" xmlns="http://www.w3.org/2000/svg">
<path d="M128 91.6L89.7 98.2C79.8 99.9 72.1 107.8 70.8 117.8L65.4 157L58.8 118.7C57.1 108.8 49.2 101.1 39.2 99.8L0 94.4L38.3 87.8C48.2 86.1 55.9 78.2 57.2 68.2L62.6 29L69.2 67.3C70.9 77.2 78.8 84.9 88.8 86.2L128 91.6Z" fill="#42AF7E"/>
<g clip-path="url(#clip0_751_1320)">
<path d="M128 138.672L119.023 140.219C116.703 140.617 114.898 142.469 114.594 144.813L113.328 154L111.781 145.023C111.383 142.703 109.531 140.898 107.188 140.594L98 139.328L106.977 137.781C109.297 137.383 111.102 135.531 111.406 133.188L112.672 124L114.219 132.977C114.617 135.297 116.469 137.102 118.813 137.406L128 138.672Z" fill="#2A7BE8"/>
</g>
<path d="M160 31.3L140.85 34.6C135.9 35.45 132.05 39.4 131.4 44.4L128.7 64L125.4 44.85C124.55 39.9 120.6 36.05 115.6 35.4L96 32.7L115.15 29.4C120.1 28.55 123.95 24.6 124.6 19.6L127.3 0L130.6 19.15C131.45 24.1 135.4 27.95 140.4 28.6L160 31.3Z" fill="#2A7BE8"/>
<path d="M160 31.3L140.85 34.6C135.9 35.45 132.05 39.4 131.4 44.4L128.7 64L125.4 44.85C124.55 39.9 120.6 36.05 115.6 35.4L96 32.7L115.15 29.4C120.1 28.55 123.95 24.6 124.6 19.6L127.3 0L130.6 19.15C131.45 24.1 135.4 27.95 140.4 28.6L160 31.3Z" fill="#2A7BE8"/>
<defs>
<clipPath id="clip0_751_1320">
<rect width="30" height="30" fill="white" transform="translate(98 124)"/>
</clipPath>
</defs>
</svg>
