<svg width="200" height="200" viewBox="0 0 200 200" fill="none" xmlns="http://www.w3.org/2000/svg">
<circle cx="100" cy="100" r="100" fill="#F24545"/>
<circle cx="99.5" cy="99.5" r="87.5" fill="#42AF7E"/>
<circle cx="99.5" cy="99.5" r="72.5" fill="#2A7BE8"/>
<path d="M74.512 61.104C74.512 61.9147 74.2133 62.5973 73.616 63.152C73.0293 63.7067 72.2347 63.984 71.232 63.984C70.2613 63.984 69.5307 63.7227 69.04 63.2C68.5493 62.6773 68.304 61.9947 68.304 61.152V60.512C68.304 59.8187 68.16 59.28 67.872 58.896C67.5947 58.5013 67.232 58.304 66.784 58.304C66.4107 58.304 66.064 58.448 65.744 58.736C65.424 59.024 65.1627 59.4613 64.96 60.048C64.768 60.6347 64.672 61.376 64.672 62.272C64.672 63.52 64.88 64.5707 65.296 65.424C65.712 66.2667 66.2773 66.9013 66.992 67.328C67.7173 67.7547 68.544 67.968 69.472 67.968C70.1867 67.968 70.8213 67.8773 71.376 67.696C71.9413 67.504 72.4747 67.152 72.976 66.64C73.2427 66.3947 73.4453 66.2293 73.584 66.144C73.7333 66.048 73.8773 66 74.016 66C74.208 66.0107 74.3467 66.112 74.432 66.304C74.528 66.4853 74.576 66.72 74.576 67.008C74.5547 67.9787 74.2293 68.88 73.6 69.712C72.9707 70.5333 72.1013 71.1947 70.992 71.696C69.8827 72.1867 68.5973 72.432 67.136 72.432C65.5467 72.432 64.1173 72.1173 62.848 71.488C61.5893 70.8587 60.592 69.9733 59.856 68.832C59.12 67.68 58.752 66.3307 58.752 64.784C58.752 63.1413 59.1093 61.68 59.824 60.4C60.5493 59.1093 61.568 58.096 62.88 57.36C64.2027 56.6133 65.7547 56.24 67.536 56.24C68.9867 56.24 70.2293 56.4587 71.264 56.896C72.3093 57.3333 73.1093 57.92 73.664 58.656C74.2293 59.3813 74.512 60.1973 74.512 61.104ZM84.4295 49.136V68.928C84.4295 69.3227 84.4615 69.6053 84.5255 69.776C84.5895 69.936 84.6962 70.0533 84.8455 70.128L85.2295 70.272C85.4535 70.368 85.6135 70.4907 85.7095 70.64C85.8055 70.7787 85.8535 70.944 85.8535 71.136C85.8535 71.4027 85.7682 71.616 85.5975 71.776C85.4268 71.9253 85.1495 72 84.7655 72H77.4055C77.0322 72 76.7548 71.9253 76.5735 71.776C76.4028 71.616 76.3175 71.4027 76.3175 71.136C76.3175 70.944 76.3655 70.7787 76.4615 70.64C76.5682 70.4907 76.7335 70.368 76.9575 70.272L77.3415 70.128C77.4908 70.0533 77.5975 69.936 77.6615 69.776C77.7255 69.6053 77.7575 69.3227 77.7575 68.928V52.528C77.7575 52.2187 77.7148 52 77.6295 51.872C77.5442 51.744 77.4162 51.6533 77.2455 51.6L76.8615 51.504C76.6588 51.44 76.5095 51.344 76.4135 51.216C76.3282 51.088 76.2855 50.928 76.2855 50.736C76.2855 50.512 76.3442 50.336 76.4615 50.208C76.5895 50.0693 76.8242 49.9307 77.1655 49.792L81.0215 48.384C81.5442 48.1813 81.9548 48.0427 82.2535 47.968C82.5522 47.8827 82.8188 47.84 83.0535 47.84C83.5122 47.84 83.8535 47.9627 84.0775 48.208C84.3122 48.4533 84.4295 48.7627 84.4295 49.136ZM95.3975 57.536V68.928C95.3975 69.3227 95.4295 69.6053 95.4935 69.776C95.5575 69.936 95.6695 70.0533 95.8295 70.128L96.2135 70.272C96.4375 70.368 96.5975 70.4907 96.6935 70.64C96.7895 70.7787 96.8375 70.944 96.8375 71.136C96.8375 71.4027 96.7522 71.616 96.5815 71.776C96.4108 71.9253 96.1335 72 95.7495 72H88.3895C88.0055 72 87.7282 71.9253 87.5575 71.776C87.3868 71.616 87.3015 71.4027 87.3015 71.136C87.3015 70.944 87.3495 70.7787 87.4455 70.64C87.5415 70.4907 87.7015 70.368 87.9255 70.272L88.3095 70.128C88.4695 70.0533 88.5815 69.936 88.6455 69.776C88.7095 69.6053 88.7415 69.3227 88.7415 68.928V60.928C88.7415 60.6187 88.6988 60.4 88.6135 60.272C88.5282 60.144 88.4002 60.0533 88.2295 60L87.8455 59.904C87.6428 59.84 87.4935 59.744 87.3975 59.616C87.3015 59.488 87.2535 59.328 87.2535 59.136C87.2535 58.912 87.3175 58.736 87.4455 58.608C87.5735 58.4693 87.8082 58.3307 88.1495 58.192L92.0055 56.784C92.5282 56.5813 92.9388 56.4427 93.2375 56.368C93.5362 56.2827 93.7975 56.24 94.0215 56.24C94.4802 56.24 94.8215 56.3627 95.0455 56.608C95.2802 56.8533 95.3975 57.1627 95.3975 57.536ZM91.7495 54.896C90.5868 54.896 89.6642 54.6133 88.9815 54.048C88.2988 53.4827 87.9575 52.7253 87.9575 51.776C87.9575 50.8373 88.2988 50.0907 88.9815 49.536C89.6642 48.9813 90.5868 48.704 91.7495 48.704C92.9228 48.704 93.8508 48.9813 94.5335 49.536C95.2162 50.0907 95.5575 50.8373 95.5575 51.776C95.5575 52.7253 95.2162 53.4827 94.5335 54.048C93.8508 54.6133 92.9228 54.896 91.7495 54.896ZM113.918 61.104C113.918 61.9147 113.62 62.5973 113.022 63.152C112.436 63.7067 111.641 63.984 110.638 63.984C109.668 63.984 108.937 63.7227 108.446 63.2C107.956 62.6773 107.71 61.9947 107.71 61.152V60.512C107.71 59.8187 107.566 59.28 107.278 58.896C107.001 58.5013 106.638 58.304 106.19 58.304C105.817 58.304 105.47 58.448 105.15 58.736C104.83 59.024 104.569 59.4613 104.366 60.048C104.174 60.6347 104.078 61.376 104.078 62.272C104.078 63.52 104.286 64.5707 104.702 65.424C105.118 66.2667 105.684 66.9013 106.398 67.328C107.124 67.7547 107.95 67.968 108.878 67.968C109.593 67.968 110.228 67.8773 110.782 67.696C111.348 67.504 111.881 67.152 112.382 66.64C112.649 66.3947 112.852 66.2293 112.99 66.144C113.14 66.048 113.284 66 113.422 66C113.614 66.0107 113.753 66.112 113.838 66.304C113.934 66.4853 113.982 66.72 113.982 67.008C113.961 67.9787 113.636 68.88 113.006 69.712C112.377 70.5333 111.508 71.1947 110.398 71.696C109.289 72.1867 108.004 72.432 106.542 72.432C104.953 72.432 103.524 72.1173 102.254 71.488C100.996 70.8587 99.9983 69.9733 99.2623 68.832C98.5263 67.68 98.1583 66.3307 98.1583 64.784C98.1583 63.1413 98.5156 61.68 99.2303 60.4C99.9556 59.1093 100.974 58.096 102.286 57.36C103.609 56.6133 105.161 56.24 106.942 56.24C108.393 56.24 109.636 56.4587 110.67 56.896C111.716 57.3333 112.516 57.92 113.07 58.656C113.636 59.3813 113.918 60.1973 113.918 61.104ZM116.796 72C116.412 72 116.134 71.9253 115.964 71.776C115.793 71.616 115.708 71.4027 115.708 71.136C115.708 70.944 115.756 70.7787 115.852 70.64C115.948 70.4907 116.108 70.368 116.332 70.272L116.716 70.128C116.876 70.0533 116.988 69.936 117.052 69.776C117.116 69.6053 117.148 69.3227 117.148 68.928V52.528C117.148 52.2187 117.105 52 117.02 51.872C116.934 51.744 116.806 51.6533 116.636 51.6L116.252 51.504C116.049 51.44 115.9 51.344 115.804 51.216C115.708 51.088 115.66 50.928 115.66 50.736C115.66 50.512 115.724 50.336 115.852 50.208C115.98 50.0693 116.214 49.9307 116.556 49.792L120.412 48.384C120.902 48.192 121.297 48.0533 121.596 47.968C121.905 47.8827 122.204 47.84 122.492 47.84C122.918 47.84 123.244 47.9627 123.468 48.208C123.692 48.4533 123.804 48.7627 123.804 49.136V68.928C123.804 69.3227 123.836 69.6 123.9 69.76C123.964 69.92 124.076 70.0427 124.236 70.128L124.588 70.288C124.918 70.4693 125.084 70.736 125.084 71.088C125.084 71.696 124.716 72 123.98 72H116.796ZM121.98 65.216L127.98 60.256C128.364 59.936 128.529 59.6107 128.476 59.28C128.422 58.9387 128.182 58.6827 127.756 58.512L127.324 58.336C127.132 58.2507 126.998 58.1493 126.924 58.032C126.849 57.9147 126.812 57.76 126.812 57.568C126.812 57.3013 126.902 57.0933 127.084 56.944C127.276 56.784 127.526 56.704 127.836 56.704H134.172C134.502 56.704 134.758 56.7787 134.94 56.928C135.121 57.0773 135.212 57.2747 135.212 57.52C135.212 57.776 135.137 57.9893 134.988 58.16C134.849 58.32 134.529 58.464 134.028 58.592C133.409 58.7627 132.828 59.0027 132.284 59.312C131.75 59.6107 131.121 60.0533 130.396 60.64L122.748 66.768L121.98 65.216ZM128.508 60.448L134.284 69.248C134.444 69.4827 134.593 69.6693 134.732 69.808C134.87 69.936 135.036 70.064 135.228 70.192C135.452 70.352 135.628 70.5173 135.756 70.688C135.884 70.848 135.948 71.024 135.948 71.216C135.948 71.4507 135.852 71.6427 135.66 71.792C135.478 71.9307 135.228 72 134.908 72H127.244C126.966 72 126.742 71.9253 126.572 71.776C126.412 71.616 126.332 71.408 126.332 71.152C126.332 70.992 126.364 70.8587 126.428 70.752C126.502 70.6347 126.62 70.528 126.78 70.432L127.116 70.256C127.297 70.1707 127.398 70.048 127.42 69.888C127.441 69.7173 127.34 69.4613 127.116 69.12L124.156 64.48L128.508 60.448ZM41.8969 105.008H49.8649V108.08H41.8969V105.008ZM53.0844 105.008H61.0524V108.08H53.0844V105.008ZM64.2719 105.008H72.2399V108.08H64.2719V105.008ZM81.7071 100.608L81.1151 100.384C80.9018 100.299 80.7418 100.192 80.6351 100.064C80.5285 99.9253 80.4751 99.76 80.4751 99.568C80.4751 99.2907 80.5658 99.0773 80.7471 98.928C80.9391 98.7787 81.1791 98.704 81.4671 98.704H82.3951C82.5765 98.704 82.7471 98.656 82.9071 98.56C83.0671 98.464 83.2751 98.2933 83.5311 98.048L86.3791 95.328C86.6991 95.008 86.9978 94.7733 87.2751 94.624C87.5631 94.464 87.8298 94.384 88.0751 94.384C88.3631 94.384 88.5871 94.48 88.7471 94.672C88.9071 94.8533 88.9871 95.12 88.9871 95.472V108.32C88.9871 109.12 89.1258 109.728 89.4031 110.144C89.6805 110.549 90.0751 110.752 90.5871 110.752C90.9605 110.752 91.2538 110.661 91.4671 110.48C91.6805 110.288 91.8565 110.069 91.9951 109.824C92.1338 109.579 92.2725 109.355 92.4111 109.152C92.5605 108.939 92.7525 108.805 92.9871 108.752C93.1791 108.741 93.3338 108.805 93.4511 108.944C93.5685 109.072 93.6271 109.301 93.6271 109.632C93.6058 110.539 93.3445 111.355 92.8431 112.08C92.3418 112.805 91.6485 113.381 90.7631 113.808C89.8885 114.224 88.8751 114.432 87.7231 114.432C86.0058 114.432 84.6778 114.021 83.7391 113.2C82.8111 112.379 82.3471 111.131 82.3471 109.456V101.552C82.3471 101.275 82.2938 101.072 82.1871 100.944C82.0911 100.816 81.9311 100.704 81.7071 100.608ZM86.7311 100.752L86.7631 98.704H92.5231C92.8218 98.704 93.0565 98.768 93.2271 98.896C93.4085 99.024 93.4991 99.2107 93.4991 99.456C93.4991 99.8187 93.3178 100.128 92.9551 100.384C92.6031 100.629 92.0165 100.752 91.1951 100.752H86.7311ZM103.795 98.24C105.576 98.24 107.133 98.5813 108.467 99.264C109.8 99.9467 110.835 100.901 111.571 102.128C112.307 103.355 112.675 104.779 112.675 106.4C112.675 107.915 112.285 109.28 111.507 110.496C110.739 111.701 109.667 112.661 108.291 113.376C106.925 114.08 105.341 114.432 103.539 114.432C101.757 114.432 100.2 114.091 98.8666 113.408C97.544 112.715 96.5093 111.755 95.7626 110.528C95.0266 109.301 94.6586 107.888 94.6586 106.288C94.6586 104.752 95.048 103.381 95.8266 102.176C96.6053 100.96 97.6773 100 99.0426 99.296C100.408 98.592 101.992 98.24 103.795 98.24ZM104.931 112.352C105.336 112.267 105.64 111.984 105.843 111.504C106.056 111.024 106.152 110.325 106.131 109.408C106.109 108.491 105.955 107.328 105.667 105.92C105.4 104.555 105.096 103.445 104.755 102.592C104.413 101.739 104.045 101.125 103.651 100.752C103.256 100.368 102.84 100.229 102.403 100.336C102.008 100.421 101.704 100.704 101.491 101.184C101.277 101.664 101.181 102.363 101.203 103.28C101.235 104.187 101.389 105.349 101.667 106.768C101.944 108.112 102.253 109.216 102.595 110.08C102.936 110.944 103.304 111.563 103.699 111.936C104.093 112.309 104.504 112.448 104.931 112.352ZM121.397 105.008H129.365V108.08H121.397V105.008ZM132.584 105.008H140.552V108.08H132.584V105.008ZM143.772 105.008H151.74V108.08H143.772V105.008ZM68.5555 154.592C69.1635 154.592 69.6168 154.459 69.9155 154.192C70.2142 153.925 70.3635 153.6 70.3635 153.216C70.3635 152.971 70.3155 152.747 70.2195 152.544C70.1235 152.331 69.9102 152.139 69.5795 151.968C69.2595 151.787 68.7635 151.632 68.0915 151.504C66.1715 151.163 64.7048 150.715 63.6915 150.16C62.6888 149.605 62.0008 148.96 61.6275 148.224C61.2648 147.477 61.0835 146.635 61.0835 145.696C61.0835 143.989 61.6755 142.656 62.8595 141.696C64.0542 140.725 65.7928 140.24 68.0755 140.24C68.8755 140.24 69.5102 140.304 69.9795 140.432C70.4595 140.56 70.8435 140.688 71.1315 140.816C71.4195 140.944 71.6702 141.008 71.8835 141.008C72.1395 141.008 72.3475 140.944 72.5075 140.816C72.6782 140.688 72.8542 140.56 73.0355 140.432C73.2168 140.304 73.4408 140.24 73.7075 140.24C73.9102 140.24 74.0915 140.309 74.2515 140.448C74.4222 140.587 74.5608 140.837 74.6675 141.2L75.4835 144.304C75.6328 144.805 75.6755 145.205 75.6115 145.504C75.5475 145.803 75.3662 146.011 75.0675 146.128C74.7582 146.245 74.4915 146.251 74.2675 146.144C74.0435 146.037 73.8248 145.824 73.6115 145.504C73.0888 144.715 72.5502 144.069 71.9955 143.568C71.4515 143.067 70.8862 142.693 70.2995 142.448C69.7235 142.203 69.1208 142.08 68.4915 142.08C67.7875 142.08 67.2595 142.219 66.9075 142.496C66.5555 142.763 66.3795 143.125 66.3795 143.584C66.3795 143.872 66.4542 144.128 66.6035 144.352C66.7528 144.565 67.0515 144.763 67.4995 144.944C67.9582 145.115 68.6355 145.285 69.5315 145.456C71.0462 145.744 72.2462 146.149 73.1315 146.672C74.0168 147.195 74.6515 147.829 75.0355 148.576C75.4195 149.312 75.6115 150.181 75.6115 151.184C75.6115 152.24 75.3288 153.163 74.7635 153.952C74.1982 154.741 73.4248 155.355 72.4435 155.792C71.4728 156.219 70.3635 156.432 69.1155 156.432C68.3475 156.432 67.7395 156.363 67.2915 156.224C66.8435 156.096 66.4755 155.963 66.1875 155.824C65.8995 155.685 65.6328 155.616 65.3875 155.616C65.1315 155.616 64.8915 155.685 64.6675 155.824C64.4542 155.952 64.2408 156.08 64.0275 156.208C63.8142 156.347 63.5902 156.416 63.3555 156.416C63.1422 156.416 62.9608 156.336 62.8115 156.176C62.6622 156.027 62.5502 155.76 62.4755 155.376L61.9795 152.448C61.8942 151.957 61.8888 151.589 61.9635 151.344C62.0382 151.099 62.2088 150.917 62.4755 150.8C62.7742 150.672 63.0355 150.677 63.2595 150.816C63.4942 150.944 63.7288 151.173 63.9635 151.504C64.7422 152.624 65.5155 153.419 66.2835 153.888C67.0515 154.357 67.8088 154.592 68.5555 154.592ZM78.3478 142.608L77.7558 142.384C77.5424 142.299 77.3824 142.192 77.2758 142.064C77.1691 141.925 77.1158 141.76 77.1158 141.568C77.1158 141.291 77.2064 141.077 77.3878 140.928C77.5798 140.779 77.8198 140.704 78.1078 140.704H79.0358C79.2171 140.704 79.3878 140.656 79.5478 140.56C79.7078 140.464 79.9158 140.293 80.1718 140.048L83.0198 137.328C83.3398 137.008 83.6384 136.773 83.9158 136.624C84.2038 136.464 84.4704 136.384 84.7158 136.384C85.0038 136.384 85.2278 136.48 85.3878 136.672C85.5478 136.853 85.6278 137.12 85.6278 137.472V150.32C85.6278 151.12 85.7664 151.728 86.0438 152.144C86.3211 152.549 86.7158 152.752 87.2278 152.752C87.6011 152.752 87.8944 152.661 88.1078 152.48C88.3211 152.288 88.4971 152.069 88.6358 151.824C88.7744 151.579 88.9131 151.355 89.0518 151.152C89.2011 150.939 89.3931 150.805 89.6278 150.752C89.8198 150.741 89.9744 150.805 90.0918 150.944C90.2091 151.072 90.2678 151.301 90.2678 151.632C90.2464 152.539 89.9851 153.355 89.4838 154.08C88.9824 154.805 88.2891 155.381 87.4038 155.808C86.5291 156.224 85.5158 156.432 84.3638 156.432C82.6464 156.432 81.3184 156.021 80.3798 155.2C79.4518 154.379 78.9878 153.131 78.9878 151.456V143.552C78.9878 143.275 78.9344 143.072 78.8278 142.944C78.7318 142.816 78.5718 142.704 78.3478 142.608ZM83.3718 142.752L83.4038 140.704H89.1638C89.4624 140.704 89.6971 140.768 89.8678 140.896C90.0491 141.024 90.1398 141.211 90.1398 141.456C90.1398 141.819 89.9584 142.128 89.5958 142.384C89.2438 142.629 88.6571 142.752 87.8358 142.752H83.3718ZM99.5538 141.536V152.928C99.5538 153.323 99.5858 153.605 99.6498 153.776C99.7138 153.936 99.8258 154.053 99.9858 154.128L100.37 154.272C100.594 154.368 100.754 154.491 100.85 154.64C100.946 154.779 100.994 154.944 100.994 155.136C100.994 155.403 100.908 155.616 100.738 155.776C100.567 155.925 100.29 156 99.9058 156H92.5458C92.1618 156 91.8844 155.925 91.7138 155.776C91.5431 155.616 91.4578 155.403 91.4578 155.136C91.4578 154.944 91.5058 154.779 91.6018 154.64C91.6978 154.491 91.8578 154.368 92.0818 154.272L92.4658 154.128C92.6258 154.053 92.7378 153.936 92.8018 153.776C92.8658 153.605 92.8978 153.323 92.8978 152.928V144.928C92.8978 144.619 92.8551 144.4 92.7698 144.272C92.6844 144.144 92.5564 144.053 92.3858 144L92.0018 143.904C91.7991 143.84 91.6498 143.744 91.5538 143.616C91.4578 143.488 91.4098 143.328 91.4098 143.136C91.4098 142.912 91.4738 142.736 91.6018 142.608C91.7298 142.469 91.9644 142.331 92.3058 142.192L96.1618 140.784C96.6844 140.581 97.0951 140.443 97.3938 140.368C97.6924 140.283 97.9538 140.24 98.1778 140.24C98.6364 140.24 98.9778 140.363 99.2018 140.608C99.4364 140.853 99.5538 141.163 99.5538 141.536ZM95.9058 138.896C94.7431 138.896 93.8204 138.613 93.1378 138.048C92.4551 137.483 92.1138 136.725 92.1138 135.776C92.1138 134.837 92.4551 134.091 93.1378 133.536C93.8204 132.981 94.7431 132.704 95.9058 132.704C97.0791 132.704 98.0071 132.981 98.6898 133.536C99.3724 134.091 99.7138 134.837 99.7138 135.776C99.7138 136.725 99.3724 137.483 98.6898 138.048C98.0071 138.613 97.0791 138.896 95.9058 138.896ZM118.075 145.104C118.075 145.915 117.776 146.597 117.179 147.152C116.592 147.707 115.797 147.984 114.795 147.984C113.824 147.984 113.093 147.723 112.603 147.2C112.112 146.677 111.867 145.995 111.867 145.152V144.512C111.867 143.819 111.723 143.28 111.435 142.896C111.157 142.501 110.795 142.304 110.347 142.304C109.973 142.304 109.627 142.448 109.307 142.736C108.987 143.024 108.725 143.461 108.523 144.048C108.331 144.635 108.235 145.376 108.235 146.272C108.235 147.52 108.443 148.571 108.859 149.424C109.275 150.267 109.84 150.901 110.555 151.328C111.28 151.755 112.107 151.968 113.035 151.968C113.749 151.968 114.384 151.877 114.939 151.696C115.504 151.504 116.037 151.152 116.539 150.64C116.805 150.395 117.008 150.229 117.147 150.144C117.296 150.048 117.44 150 117.579 150C117.771 150.011 117.909 150.112 117.995 150.304C118.091 150.485 118.139 150.72 118.139 151.008C118.117 151.979 117.792 152.88 117.163 153.712C116.533 154.533 115.664 155.195 114.555 155.696C113.445 156.187 112.16 156.432 110.699 156.432C109.109 156.432 107.68 156.117 106.411 155.488C105.152 154.859 104.155 153.973 103.419 152.832C102.683 151.68 102.315 150.331 102.315 148.784C102.315 147.141 102.672 145.68 103.387 144.4C104.112 143.109 105.131 142.096 106.443 141.36C107.765 140.613 109.317 140.24 111.099 140.24C112.549 140.24 113.792 140.459 114.827 140.896C115.872 141.333 116.672 141.92 117.227 142.656C117.792 143.381 118.075 144.197 118.075 145.104ZM120.952 156C120.568 156 120.291 155.925 120.12 155.776C119.949 155.616 119.864 155.403 119.864 155.136C119.864 154.944 119.912 154.779 120.008 154.64C120.104 154.491 120.264 154.368 120.488 154.272L120.872 154.128C121.032 154.053 121.144 153.936 121.208 153.776C121.272 153.605 121.304 153.323 121.304 152.928V136.528C121.304 136.219 121.261 136 121.176 135.872C121.091 135.744 120.963 135.653 120.792 135.6L120.408 135.504C120.205 135.44 120.056 135.344 119.96 135.216C119.864 135.088 119.816 134.928 119.816 134.736C119.816 134.512 119.88 134.336 120.008 134.208C120.136 134.069 120.371 133.931 120.712 133.792L124.568 132.384C125.059 132.192 125.453 132.053 125.752 131.968C126.061 131.883 126.36 131.84 126.648 131.84C127.075 131.84 127.4 131.963 127.624 132.208C127.848 132.453 127.96 132.763 127.96 133.136V152.928C127.96 153.323 127.992 153.6 128.056 153.76C128.12 153.92 128.232 154.043 128.392 154.128L128.744 154.288C129.075 154.469 129.24 154.736 129.24 155.088C129.24 155.696 128.872 156 128.136 156H120.952ZM126.136 149.216L132.136 144.256C132.52 143.936 132.685 143.611 132.632 143.28C132.579 142.939 132.339 142.683 131.912 142.512L131.48 142.336C131.288 142.251 131.155 142.149 131.08 142.032C131.005 141.915 130.968 141.76 130.968 141.568C130.968 141.301 131.059 141.093 131.24 140.944C131.432 140.784 131.683 140.704 131.992 140.704H138.328C138.659 140.704 138.915 140.779 139.096 140.928C139.277 141.077 139.368 141.275 139.368 141.52C139.368 141.776 139.293 141.989 139.144 142.16C139.005 142.32 138.685 142.464 138.184 142.592C137.565 142.763 136.984 143.003 136.44 143.312C135.907 143.611 135.277 144.053 134.552 144.64L126.904 150.768L126.136 149.216ZM132.664 144.448L138.44 153.248C138.6 153.483 138.749 153.669 138.888 153.808C139.027 153.936 139.192 154.064 139.384 154.192C139.608 154.352 139.784 154.517 139.912 154.688C140.04 154.848 140.104 155.024 140.104 155.216C140.104 155.451 140.008 155.643 139.816 155.792C139.635 155.931 139.384 156 139.064 156H131.4C131.123 156 130.899 155.925 130.728 155.776C130.568 155.616 130.488 155.408 130.488 155.152C130.488 154.992 130.52 154.859 130.584 154.752C130.659 154.635 130.776 154.528 130.936 154.432L131.272 154.256C131.453 154.171 131.555 154.048 131.576 153.888C131.597 153.717 131.496 153.461 131.272 153.12L128.312 148.48L132.664 144.448Z" fill="white"/>
</svg>
