<svg width="327" height="63" viewBox="0 0 327 63" fill="none" xmlns="http://www.w3.org/2000/svg">
<rect width="327" height="63" rx="16" fill="#42AF7E"/>
<path d="M28.2604 41.418C28.2604 41.694 28.3324 41.922 28.4764 42.102C28.6324 42.27 28.8604 42.408 29.1604 42.516L29.8984 42.768C30.4624 42.972 30.7444 43.356 30.7444 43.92C30.7444 44.256 30.6304 44.52 30.4024 44.712C30.1864 44.904 29.8444 45 29.3764 45H18.8824C18.4144 45 18.0664 44.904 17.8384 44.712C17.6224 44.52 17.5144 44.256 17.5144 43.92C17.5144 43.356 17.7964 42.972 18.3604 42.768L19.0984 42.516C19.3984 42.408 19.6204 42.27 19.7644 42.102C19.9204 41.922 19.9984 41.694 19.9984 41.418V23.382C19.9984 23.106 19.9204 22.884 19.7644 22.716C19.6204 22.536 19.3984 22.392 19.0984 22.284L18.3604 22.032C17.7964 21.828 17.5144 21.438 17.5144 20.862C17.5144 20.538 17.6224 20.28 17.8384 20.088C18.0664 19.896 18.4144 19.8 18.8824 19.8H29.3764C29.8444 19.8 30.1864 19.896 30.4024 20.088C30.6304 20.28 30.7444 20.538 30.7444 20.862C30.7444 21.438 30.4624 21.828 29.8984 22.032L29.1604 22.284C28.8604 22.392 28.6324 22.536 28.4764 22.716C28.3324 22.884 28.2604 23.106 28.2604 23.382V41.418ZM50.4333 45H47.6973C47.2293 45 46.8273 44.898 46.4913 44.694C46.1673 44.478 45.9093 44.106 45.7173 43.578L41.1273 30.978C40.9833 30.57 40.8513 30.3 40.7313 30.168C40.6233 30.036 40.5033 29.94 40.3713 29.88L39.9573 29.7C39.7293 29.592 39.5673 29.472 39.4713 29.34C39.3753 29.196 39.3273 29.004 39.3273 28.764C39.3273 28.476 39.4293 28.248 39.6333 28.08C39.8493 27.912 40.1313 27.828 40.4793 27.828H49.6593C50.0073 27.828 50.2833 27.912 50.4873 28.08C50.7033 28.248 50.8113 28.476 50.8113 28.764C50.8113 29.004 50.7453 29.196 50.6133 29.34C50.4933 29.472 50.2953 29.58 50.0193 29.664L49.4793 29.826C49.2153 29.898 49.0533 30.066 48.9933 30.33C48.9453 30.594 49.0473 31.092 49.2993 31.824L52.3773 40.878L50.5773 42.642L54.7173 31.266L56.6433 32.472L52.3953 43.722C52.2033 44.238 51.9273 44.58 51.5673 44.748C51.2073 44.916 50.8293 45 50.4333 45ZM62.5113 45H59.8653C59.4093 45 59.0073 44.892 58.6593 44.676C58.3233 44.46 58.0653 44.094 57.8853 43.578L53.5113 30.978C53.3673 30.558 53.2353 30.282 53.1153 30.15C53.0073 30.018 52.8933 29.922 52.7733 29.862L52.3953 29.7C52.1673 29.592 52.0053 29.472 51.9093 29.34C51.8133 29.196 51.7653 29.004 51.7653 28.764C51.7653 28.14 52.1493 27.828 52.9173 27.828H61.9173C62.6733 27.828 63.0513 28.14 63.0513 28.764C63.0513 29.004 62.9913 29.202 62.8713 29.358C62.7633 29.502 62.6013 29.598 62.3853 29.646L61.5753 29.79C61.2873 29.85 61.1193 30.024 61.0713 30.312C61.0353 30.6 61.1313 31.098 61.3593 31.806L64.2753 40.896L62.6373 42.642L65.8233 32.364C66.1113 31.476 66.2313 30.852 66.1833 30.492C66.1353 30.132 65.9493 29.91 65.6253 29.826L65.1213 29.664C64.8453 29.58 64.6413 29.472 64.5093 29.34C64.3893 29.196 64.3293 29.004 64.3293 28.764C64.3293 28.476 64.4313 28.248 64.6353 28.08C64.8393 27.912 65.1153 27.828 65.4633 27.828H69.6033C69.9633 27.828 70.2453 27.912 70.4493 28.08C70.6533 28.248 70.7553 28.476 70.7553 28.764C70.7553 28.968 70.7073 29.148 70.6113 29.304C70.5153 29.448 70.3293 29.568 70.0533 29.664L69.6933 29.808C69.4653 29.892 69.2493 30.114 69.0453 30.474C68.8533 30.834 68.6253 31.404 68.3613 32.184L64.4733 43.722C64.3053 44.226 64.0353 44.568 63.6633 44.748C63.2913 44.916 62.9073 45 62.5113 45ZM82.1586 42.642V42.264L81.6186 42.282V30.438C81.6186 29.982 81.4926 29.622 81.2406 29.358C81.0006 29.082 80.6766 28.944 80.2686 28.944C79.9446 28.944 79.6626 29.028 79.4226 29.196C79.1946 29.352 79.0806 29.574 79.0806 29.862V31.806C79.0806 32.79 78.7386 33.564 78.0546 34.128C77.3826 34.68 76.4226 34.956 75.1746 34.956C74.1546 34.956 73.3806 34.734 72.8526 34.29C72.3366 33.834 72.0786 33.198 72.0786 32.382C72.0786 31.602 72.4266 30.828 73.1226 30.06C73.8306 29.28 74.8866 28.632 76.2906 28.116C77.6946 27.6 79.4586 27.342 81.5826 27.342C84.0906 27.342 85.9566 27.804 87.1806 28.728C88.4046 29.652 89.0166 30.924 89.0166 32.544V41.184C89.0166 41.424 89.0706 41.616 89.1786 41.76C89.2986 41.904 89.4726 41.976 89.7006 41.976C89.9046 41.976 90.0726 41.922 90.2046 41.814C90.3366 41.706 90.4566 41.58 90.5646 41.436C90.6366 41.352 90.7086 41.286 90.7806 41.238C90.8646 41.178 90.9606 41.148 91.0686 41.148C91.2486 41.148 91.3746 41.214 91.4466 41.346C91.5306 41.478 91.5726 41.646 91.5726 41.85C91.5726 42.342 91.3866 42.87 91.0146 43.434C90.6546 43.998 90.0966 44.484 89.3406 44.892C88.5966 45.288 87.6606 45.486 86.5326 45.486C85.2126 45.486 84.1506 45.216 83.3466 44.676C82.5546 44.136 82.1586 43.458 82.1586 42.642ZM71.3766 41.202C71.3766 39.582 72.1026 38.304 73.5546 37.368C75.0066 36.432 77.0826 35.964 79.7826 35.964C80.4666 35.964 81.0546 36.018 81.5466 36.126C82.0506 36.222 82.4646 36.36 82.7886 36.54L82.2486 37.908C81.9846 37.752 81.7386 37.644 81.5106 37.584C81.2946 37.524 81.0486 37.494 80.7726 37.494C80.1966 37.494 79.7346 37.704 79.3866 38.124C79.0506 38.532 78.8826 39.132 78.8826 39.924C78.8826 40.74 79.0506 41.358 79.3866 41.778C79.7226 42.186 80.1606 42.39 80.7006 42.39C81.0486 42.39 81.3726 42.306 81.6726 42.138C81.9726 41.97 82.2006 41.772 82.3566 41.544L82.7706 42.804C82.2066 43.656 81.3846 44.316 80.3046 44.784C79.2366 45.252 78.0906 45.486 76.8666 45.486C75.2226 45.486 73.8966 45.078 72.8886 44.262C71.8806 43.446 71.3766 42.426 71.3766 41.202ZM101.649 28.728V41.598C101.649 42.03 101.685 42.336 101.757 42.516C101.829 42.696 101.955 42.834 102.135 42.93L102.531 43.11C102.891 43.314 103.071 43.608 103.071 43.992C103.071 44.664 102.669 45 101.865 45H93.7655C93.3455 45 93.0395 44.916 92.8475 44.748C92.6555 44.58 92.5595 44.346 92.5595 44.046C92.5595 43.842 92.6135 43.662 92.7215 43.506C92.8295 43.338 93.0095 43.206 93.2615 43.11L93.6935 42.93C93.8735 42.846 93.9995 42.714 94.0715 42.534C94.1435 42.342 94.1795 42.03 94.1795 41.598V32.508C94.1795 32.172 94.1315 31.932 94.0355 31.788C93.9395 31.632 93.7955 31.53 93.6035 31.482L93.1715 31.374C92.9435 31.302 92.7755 31.2 92.6675 31.068C92.5715 30.924 92.5235 30.744 92.5235 30.528C92.5235 30.276 92.5895 30.078 92.7215 29.934C92.8655 29.79 93.1235 29.646 93.4955 29.502L97.9055 27.9C98.4455 27.684 98.8835 27.534 99.2195 27.45C99.5555 27.354 99.8795 27.306 100.191 27.306C100.671 27.306 101.031 27.438 101.271 27.702C101.523 27.966 101.649 28.308 101.649 28.728ZM101.019 33.066L100.047 32.04L100.623 31.518C102.255 30.018 103.653 28.944 104.817 28.296C105.993 27.636 107.073 27.306 108.057 27.306C109.545 27.306 110.709 27.81 111.549 28.818C112.389 29.814 112.887 31.14 113.043 32.796L113.925 41.598C113.961 42.03 114.003 42.342 114.051 42.534C114.099 42.714 114.213 42.846 114.393 42.93L114.825 43.11C115.077 43.206 115.257 43.338 115.365 43.506C115.473 43.662 115.527 43.842 115.527 44.046C115.527 44.346 115.431 44.58 115.239 44.748C115.047 44.916 114.741 45 114.321 45H106.131C105.327 45 104.925 44.664 104.925 43.992C104.925 43.608 105.105 43.314 105.465 43.11L105.861 42.93C106.041 42.834 106.179 42.696 106.275 42.516C106.371 42.336 106.395 42.03 106.347 41.598L105.627 33.822C105.555 33.078 105.375 32.526 105.087 32.166C104.811 31.794 104.385 31.608 103.809 31.608C103.437 31.608 103.065 31.686 102.693 31.842C102.321 31.998 101.973 32.22 101.649 32.508L101.019 33.066ZM117.38 29.934L116.696 29.682C116.456 29.586 116.276 29.466 116.156 29.322C116.036 29.166 115.976 28.98 115.976 28.764C115.976 28.464 116.078 28.236 116.281 28.08C116.486 27.912 116.75 27.828 117.074 27.828H118.136C118.34 27.828 118.526 27.774 118.694 27.666C118.874 27.558 119.102 27.366 119.378 27.09L122.654 24.03C123.002 23.67 123.326 23.406 123.626 23.238C123.938 23.07 124.238 22.986 124.526 22.986C124.838 22.986 125.078 23.088 125.246 23.292C125.426 23.496 125.516 23.79 125.516 24.174V38.646C125.516 39.546 125.672 40.23 125.984 40.698C126.296 41.154 126.74 41.382 127.316 41.382C127.748 41.382 128.078 41.28 128.306 41.076C128.546 40.872 128.744 40.632 128.9 40.356C129.056 40.08 129.212 39.828 129.368 39.6C129.536 39.36 129.752 39.204 130.016 39.132C130.22 39.12 130.388 39.186 130.52 39.33C130.652 39.474 130.718 39.732 130.718 40.104C130.694 41.124 130.4 42.042 129.836 42.858C129.272 43.662 128.498 44.304 127.514 44.784C126.53 45.252 125.402 45.486 124.13 45.486C122.198 45.486 120.704 45.024 119.648 44.1C118.604 43.176 118.082 41.772 118.082 39.888V30.978C118.082 30.666 118.028 30.438 117.92 30.294C117.812 30.15 117.632 30.03 117.38 29.934ZM122.996 30.078L123.032 27.828H129.512C129.836 27.828 130.094 27.9 130.286 28.044C130.478 28.176 130.574 28.374 130.574 28.638C130.574 29.046 130.376 29.388 129.98 29.664C129.596 29.94 128.954 30.078 128.054 30.078H122.996ZM148.232 28.728V41.598C148.232 42.03 148.268 42.342 148.34 42.534C148.412 42.714 148.538 42.846 148.718 42.93L149.15 43.11C149.402 43.206 149.582 43.338 149.69 43.506C149.798 43.662 149.852 43.842 149.852 44.046C149.852 44.346 149.756 44.58 149.564 44.748C149.372 44.916 149.066 45 148.646 45H140.348C139.928 45 139.622 44.916 139.43 44.748C139.238 44.58 139.142 44.346 139.142 44.046C139.142 43.842 139.196 43.662 139.304 43.506C139.412 43.338 139.592 43.206 139.844 43.11L140.276 42.93C140.456 42.846 140.582 42.714 140.654 42.534C140.726 42.342 140.762 42.03 140.762 41.598V32.508C140.762 32.172 140.714 31.932 140.618 31.788C140.522 31.632 140.378 31.53 140.186 31.482L139.754 31.374C139.526 31.302 139.358 31.2 139.25 31.068C139.154 30.924 139.106 30.744 139.106 30.528C139.106 30.276 139.172 30.078 139.304 29.934C139.448 29.79 139.706 29.646 140.078 29.502L144.488 27.9C145.064 27.672 145.514 27.516 145.838 27.432C146.162 27.348 146.456 27.306 146.72 27.306C147.224 27.306 147.602 27.438 147.854 27.702C148.106 27.966 148.232 28.308 148.232 28.728ZM144.146 25.794C142.838 25.794 141.8 25.476 141.032 24.84C140.264 24.204 139.88 23.352 139.88 22.284C139.88 21.228 140.264 20.388 141.032 19.764C141.8 19.14 142.838 18.828 144.146 18.828C145.454 18.828 146.492 19.14 147.26 19.764C148.028 20.388 148.412 21.228 148.412 22.284C148.412 23.352 148.028 24.204 147.26 24.84C146.492 25.476 145.454 25.794 144.146 25.794ZM152.149 29.934L151.465 29.682C151.225 29.586 151.045 29.466 150.925 29.322C150.805 29.166 150.745 28.98 150.745 28.764C150.745 28.464 150.847 28.236 151.051 28.08C151.255 27.912 151.519 27.828 151.843 27.828H152.905C153.109 27.828 153.295 27.774 153.463 27.666C153.643 27.558 153.871 27.366 154.147 27.09L157.423 24.03C157.771 23.67 158.095 23.406 158.395 23.238C158.707 23.07 159.007 22.986 159.295 22.986C159.607 22.986 159.847 23.088 160.015 23.292C160.195 23.496 160.285 23.79 160.285 24.174V38.646C160.285 39.546 160.441 40.23 160.753 40.698C161.065 41.154 161.509 41.382 162.085 41.382C162.517 41.382 162.847 41.28 163.075 41.076C163.315 40.872 163.513 40.632 163.669 40.356C163.825 40.08 163.981 39.828 164.137 39.6C164.305 39.36 164.521 39.204 164.785 39.132C164.989 39.12 165.157 39.186 165.289 39.33C165.421 39.474 165.487 39.732 165.487 40.104C165.463 41.124 165.169 42.042 164.605 42.858C164.041 43.662 163.267 44.304 162.283 44.784C161.299 45.252 160.171 45.486 158.899 45.486C156.967 45.486 155.473 45.024 154.417 44.1C153.373 43.176 152.851 41.772 152.851 39.888V30.978C152.851 30.666 152.797 30.438 152.689 30.294C152.581 30.15 152.401 30.03 152.149 29.934ZM157.765 30.078L157.801 27.828H164.281C164.605 27.828 164.863 27.9 165.055 28.044C165.247 28.176 165.343 28.374 165.343 28.638C165.343 29.046 165.145 29.388 164.749 29.664C164.365 29.94 163.723 30.078 162.823 30.078H157.765ZM171.561 45.522C170.781 45.522 170.073 45.324 169.437 44.928C168.801 44.532 168.297 44.004 167.925 43.344C167.553 42.684 167.367 41.97 167.367 41.202C167.367 40.422 167.553 39.714 167.925 39.078C168.297 38.43 168.801 37.914 169.437 37.53C170.073 37.146 170.781 36.954 171.561 36.954C172.353 36.954 173.067 37.146 173.703 37.53C174.339 37.914 174.843 38.43 175.215 39.078C175.587 39.714 175.773 40.422 175.773 41.202C175.773 41.97 175.587 42.684 175.215 43.344C174.843 44.004 174.339 44.532 173.703 44.928C173.067 45.324 172.353 45.522 171.561 45.522ZM196.694 41.418C196.694 41.694 196.766 41.922 196.91 42.102C197.066 42.27 197.294 42.408 197.594 42.516L198.332 42.768C198.896 42.972 199.178 43.356 199.178 43.92C199.178 44.256 199.064 44.52 198.836 44.712C198.62 44.904 198.278 45 197.81 45H187.316C186.848 45 186.5 44.904 186.272 44.712C186.056 44.52 185.948 44.256 185.948 43.92C185.948 43.356 186.23 42.972 186.794 42.768L187.532 42.516C187.832 42.408 188.054 42.27 188.198 42.102C188.354 41.922 188.432 41.694 188.432 41.418V23.382C188.432 23.106 188.354 22.884 188.198 22.716C188.054 22.536 187.832 22.392 187.532 22.284L186.794 22.032C186.23 21.828 185.948 21.438 185.948 20.862C185.948 20.538 186.056 20.28 186.272 20.088C186.5 19.896 186.848 19.8 187.316 19.8H197.81C198.278 19.8 198.62 19.896 198.836 20.088C199.064 20.28 199.178 20.538 199.178 20.862C199.178 21.438 198.896 21.828 198.332 22.032L197.594 22.284C197.294 22.392 197.066 22.536 196.91 22.716C196.766 22.884 196.694 23.106 196.694 23.382V41.418ZM221.459 42.444C223.427 42.648 224.999 42.954 226.175 43.362C227.363 43.758 228.221 44.298 228.749 44.982C229.277 45.654 229.541 46.512 229.541 47.556C229.541 49.392 228.539 50.892 226.535 52.056C224.543 53.232 221.639 53.82 217.823 53.82C215.423 53.82 213.545 53.664 212.189 53.352C210.833 53.052 209.879 52.62 209.327 52.056C208.775 51.504 208.499 50.856 208.499 50.112C208.499 49.248 208.907 48.516 209.723 47.916C210.551 47.328 212.057 46.914 214.241 46.674L214.349 47.178C214.253 47.274 214.175 47.43 214.115 47.646C214.055 47.874 214.025 48.108 214.025 48.348C214.025 49.38 214.391 50.196 215.123 50.796C215.867 51.396 217.163 51.696 219.011 51.696C220.067 51.696 220.883 51.63 221.459 51.498C222.047 51.366 222.461 51.168 222.701 50.904C222.953 50.64 223.079 50.304 223.079 49.896C223.079 49.512 222.905 49.2 222.557 48.96C222.209 48.72 221.615 48.51 220.775 48.33C219.935 48.162 218.777 47.982 217.301 47.79C215.513 47.586 214.133 47.328 213.161 47.016C212.189 46.716 211.517 46.338 211.145 45.882C210.773 45.426 210.587 44.856 210.587 44.172C210.587 43.5 210.779 42.888 211.163 42.336C211.547 41.784 212.195 41.334 213.107 40.986C214.019 40.638 215.279 40.44 216.887 40.392L217.049 40.716C216.857 40.776 216.707 40.86 216.599 40.968C216.503 41.064 216.455 41.172 216.455 41.292C216.455 41.424 216.545 41.55 216.725 41.67C216.905 41.778 217.343 41.898 218.039 42.03C218.747 42.15 219.887 42.288 221.459 42.444ZM221.153 29.052L221.729 27.63C222.377 26.022 223.199 24.822 224.195 24.03C225.203 23.226 226.301 22.824 227.489 22.824C228.425 22.824 229.175 23.094 229.739 23.634C230.315 24.162 230.603 24.912 230.603 25.884C230.603 26.784 230.381 27.504 229.937 28.044C229.493 28.584 228.899 28.854 228.155 28.854C227.651 28.854 227.261 28.752 226.985 28.548C226.709 28.332 226.475 28.086 226.283 27.81C226.091 27.522 225.869 27.276 225.617 27.072C225.377 26.856 225.047 26.748 224.627 26.748C224.183 26.748 223.823 26.916 223.547 27.252C223.283 27.588 222.971 28.212 222.611 29.124L221.153 29.052ZM228.047 33.804C228.047 35.196 227.651 36.426 226.859 37.494C226.067 38.562 224.933 39.396 223.457 39.996C221.993 40.584 220.241 40.878 218.201 40.878C216.245 40.878 214.577 40.602 213.197 40.05C211.829 39.486 210.785 38.718 210.065 37.746C209.357 36.774 209.003 35.694 209.003 34.506C209.003 33.102 209.399 31.866 210.191 30.798C210.983 29.73 212.117 28.896 213.593 28.296C215.081 27.696 216.857 27.396 218.921 27.396C220.889 27.396 222.551 27.684 223.907 28.26C225.263 28.824 226.289 29.592 226.985 30.564C227.693 31.524 228.047 32.604 228.047 33.804ZM217.607 29.268C217.223 29.34 216.935 29.574 216.743 29.97C216.563 30.366 216.473 30.936 216.473 31.68C216.485 32.412 216.593 33.324 216.797 34.416C217.001 35.496 217.229 36.384 217.481 37.08C217.745 37.764 218.039 38.256 218.363 38.556C218.687 38.844 219.035 38.958 219.407 38.898C219.983 38.778 220.337 38.304 220.469 37.476C220.613 36.636 220.529 35.394 220.217 33.75C219.917 32.118 219.551 30.936 219.119 30.204C218.687 29.472 218.183 29.16 217.607 29.268ZM248.547 34.344C248.547 35.076 248.343 35.646 247.935 36.054C247.539 36.462 246.963 36.666 246.207 36.666H235.443V35.01H240.267C240.867 35.01 241.167 34.722 241.167 34.146C241.167 32.502 240.987 31.332 240.627 30.636C240.267 29.928 239.805 29.574 239.241 29.574C238.833 29.574 238.467 29.736 238.143 30.06C237.819 30.372 237.555 30.864 237.351 31.536C237.159 32.196 237.063 33.054 237.063 34.11C237.063 36.342 237.555 37.974 238.539 39.006C239.535 40.038 240.879 40.554 242.571 40.554C243.447 40.554 244.221 40.428 244.893 40.176C245.565 39.924 246.171 39.48 246.711 38.844C246.999 38.568 247.221 38.382 247.377 38.286C247.545 38.19 247.701 38.142 247.845 38.142C248.061 38.142 248.217 38.25 248.313 38.466C248.421 38.67 248.475 38.928 248.475 39.24C248.475 40.356 248.115 41.388 247.395 42.336C246.675 43.284 245.673 44.046 244.389 44.622C243.117 45.198 241.641 45.486 239.961 45.486C238.149 45.486 236.523 45.126 235.083 44.406C233.655 43.686 232.521 42.678 231.681 41.382C230.853 40.086 230.439 38.58 230.439 36.864C230.439 34.932 230.823 33.252 231.591 31.824C232.359 30.384 233.475 29.274 234.939 28.494C236.415 27.702 238.185 27.306 240.249 27.306C242.061 27.306 243.585 27.612 244.821 28.224C246.057 28.836 246.987 29.67 247.611 30.726C248.235 31.782 248.547 32.988 248.547 34.344ZM251.079 29.934L250.395 29.682C250.155 29.586 249.975 29.466 249.855 29.322C249.735 29.166 249.675 28.98 249.675 28.764C249.675 28.464 249.777 28.236 249.981 28.08C250.185 27.912 250.449 27.828 250.773 27.828H251.835C252.039 27.828 252.225 27.774 252.393 27.666C252.573 27.558 252.801 27.366 253.077 27.09L256.353 24.03C256.701 23.67 257.025 23.406 257.325 23.238C257.637 23.07 257.937 22.986 258.225 22.986C258.537 22.986 258.777 23.088 258.945 23.292C259.125 23.496 259.215 23.79 259.215 24.174V38.646C259.215 39.546 259.371 40.23 259.683 40.698C259.995 41.154 260.439 41.382 261.015 41.382C261.447 41.382 261.777 41.28 262.005 41.076C262.245 40.872 262.443 40.632 262.599 40.356C262.755 40.08 262.911 39.828 263.067 39.6C263.235 39.36 263.451 39.204 263.715 39.132C263.919 39.12 264.087 39.186 264.219 39.33C264.351 39.474 264.417 39.732 264.417 40.104C264.393 41.124 264.099 42.042 263.535 42.858C262.971 43.662 262.197 44.304 261.213 44.784C260.229 45.252 259.101 45.486 257.829 45.486C255.897 45.486 254.403 45.024 253.347 44.1C252.303 43.176 251.781 41.772 251.781 39.888V30.978C251.781 30.666 251.727 30.438 251.619 30.294C251.511 30.15 251.331 30.03 251.079 29.934ZM256.695 30.078L256.731 27.828H263.211C263.535 27.828 263.793 27.9 263.985 28.044C264.177 28.176 264.273 28.374 264.273 28.638C264.273 29.046 264.075 29.388 263.679 29.664C263.295 29.94 262.653 30.078 261.753 30.078H256.695ZM281.931 28.728V41.598C281.931 42.03 281.967 42.342 282.039 42.534C282.111 42.714 282.237 42.846 282.417 42.93L282.849 43.11C283.101 43.206 283.281 43.338 283.389 43.506C283.497 43.662 283.551 43.842 283.551 44.046C283.551 44.346 283.455 44.58 283.263 44.748C283.071 44.916 282.765 45 282.345 45H274.047C273.627 45 273.321 44.916 273.129 44.748C272.937 44.58 272.841 44.346 272.841 44.046C272.841 43.842 272.895 43.662 273.003 43.506C273.111 43.338 273.291 43.206 273.543 43.11L273.975 42.93C274.155 42.846 274.281 42.714 274.353 42.534C274.425 42.342 274.461 42.03 274.461 41.598V32.508C274.461 32.172 274.413 31.932 274.317 31.788C274.221 31.632 274.077 31.53 273.885 31.482L273.453 31.374C273.225 31.302 273.057 31.2 272.949 31.068C272.853 30.924 272.805 30.744 272.805 30.528C272.805 30.276 272.871 30.078 273.003 29.934C273.147 29.79 273.405 29.646 273.777 29.502L278.187 27.9C278.763 27.672 279.213 27.516 279.537 27.432C279.861 27.348 280.155 27.306 280.419 27.306C280.923 27.306 281.301 27.438 281.553 27.702C281.805 27.966 281.931 28.308 281.931 28.728ZM277.845 25.794C276.537 25.794 275.499 25.476 274.731 24.84C273.963 24.204 273.579 23.352 273.579 22.284C273.579 21.228 273.963 20.388 274.731 19.764C275.499 19.14 276.537 18.828 277.845 18.828C279.153 18.828 280.191 19.14 280.959 19.764C281.727 20.388 282.111 21.228 282.111 22.284C282.111 23.352 281.727 24.204 280.959 24.84C280.191 25.476 279.153 25.794 277.845 25.794ZM285.848 29.934L285.164 29.682C284.924 29.586 284.744 29.466 284.624 29.322C284.504 29.166 284.444 28.98 284.444 28.764C284.444 28.464 284.546 28.236 284.75 28.08C284.954 27.912 285.218 27.828 285.542 27.828H286.604C286.808 27.828 286.994 27.774 287.162 27.666C287.342 27.558 287.57 27.366 287.846 27.09L291.122 24.03C291.47 23.67 291.794 23.406 292.094 23.238C292.406 23.07 292.706 22.986 292.994 22.986C293.306 22.986 293.546 23.088 293.714 23.292C293.894 23.496 293.984 23.79 293.984 24.174V38.646C293.984 39.546 294.14 40.23 294.452 40.698C294.764 41.154 295.208 41.382 295.784 41.382C296.216 41.382 296.546 41.28 296.774 41.076C297.014 40.872 297.212 40.632 297.368 40.356C297.524 40.08 297.68 39.828 297.836 39.6C298.004 39.36 298.22 39.204 298.484 39.132C298.688 39.12 298.856 39.186 298.988 39.33C299.12 39.474 299.186 39.732 299.186 40.104C299.162 41.124 298.868 42.042 298.304 42.858C297.74 43.662 296.966 44.304 295.982 44.784C294.998 45.252 293.87 45.486 292.598 45.486C290.666 45.486 289.172 45.024 288.116 44.1C287.072 43.176 286.55 41.772 286.55 39.888V30.978C286.55 30.666 286.496 30.438 286.388 30.294C286.28 30.15 286.1 30.03 285.848 29.934ZM291.464 30.078L291.5 27.828H297.98C298.304 27.828 298.562 27.9 298.754 28.044C298.946 28.176 299.042 28.374 299.042 28.638C299.042 29.046 298.844 29.388 298.448 29.664C298.064 29.94 297.422 30.078 296.522 30.078H291.464ZM305.261 45.522C304.481 45.522 303.773 45.324 303.137 44.928C302.501 44.532 301.997 44.004 301.625 43.344C301.253 42.684 301.067 41.97 301.067 41.202C301.067 40.422 301.253 39.714 301.625 39.078C301.997 38.43 302.501 37.914 303.137 37.53C303.773 37.146 304.481 36.954 305.261 36.954C306.053 36.954 306.767 37.146 307.403 37.53C308.039 37.914 308.543 38.43 308.915 39.078C309.287 39.714 309.473 40.422 309.473 41.202C309.473 41.97 309.287 42.684 308.915 43.344C308.543 44.004 308.039 44.532 307.403 44.928C306.767 45.324 306.053 45.522 305.261 45.522Z" fill="white"/>
</svg>
