<svg width="200" height="160" viewBox="0 0 200 160" fill="none" xmlns="http://www.w3.org/2000/svg">
<rect width="200" height="160" rx="24" fill="#F24545"/>
<path d="M38.4203 46.666C36.5363 46.666 34.9463 46.408 33.6503 45.892C32.3663 45.376 31.3943 44.692 30.7343 43.84C30.0743 42.988 29.7443 42.07 29.7443 41.086C29.7443 39.886 30.1103 38.956 30.8423 38.296C31.5743 37.624 32.5463 37.288 33.7583 37.288C34.9823 37.288 35.9363 37.612 36.6203 38.26C37.3163 38.896 37.6643 39.808 37.6643 40.996V42.868C37.6643 43.48 37.8023 43.954 38.0783 44.29C38.3543 44.626 38.7563 44.794 39.2843 44.794C39.9683 44.794 40.5743 44.398 41.1023 43.606C41.6423 42.802 42.0683 41.47 42.3803 39.61C42.6923 37.738 42.8483 35.206 42.8483 32.014C42.8483 29.362 42.7103 27.31 42.4343 25.858C42.1583 24.406 41.7923 23.398 41.3363 22.834C40.8923 22.258 40.4003 21.97 39.8603 21.97C38.9603 21.97 38.2523 22.438 37.7363 23.374C37.2203 24.298 36.9623 25.756 36.9623 27.748C36.9623 29.524 37.2743 30.874 37.8983 31.798C38.5343 32.71 39.3383 33.166 40.3103 33.166C40.8503 33.166 41.3543 33.064 41.8223 32.86C42.3023 32.644 42.7103 32.344 43.0463 31.96C43.3823 31.564 43.5983 31.108 43.6943 30.592L44.8463 30.934C44.7743 31.786 44.4023 32.59 43.7303 33.346C43.0583 34.102 42.1583 34.72 41.0303 35.2C39.9023 35.668 38.6123 35.902 37.1603 35.902C35.5043 35.902 34.0763 35.626 32.8763 35.074C31.6763 34.51 30.7523 33.688 30.1043 32.608C29.4563 31.528 29.1323 30.208 29.1323 28.648C29.1323 26.968 29.5643 25.492 30.4283 24.22C31.3043 22.936 32.5403 21.934 34.1363 21.214C35.7323 20.494 37.6103 20.134 39.7703 20.134C42.1583 20.134 44.1863 20.638 45.8543 21.646C47.5343 22.654 48.8123 24.088 49.6883 25.948C50.5763 27.808 51.0203 30.004 51.0203 32.536C51.0203 35.5 50.5103 38.038 49.4903 40.15C48.4703 42.25 47.0183 43.864 45.1343 44.992C43.2503 46.108 41.0123 46.666 38.4203 46.666ZM62.3969 46.666C60.5129 46.666 58.9229 46.408 57.6269 45.892C56.3429 45.376 55.3709 44.692 54.7109 43.84C54.0509 42.988 53.7209 42.07 53.7209 41.086C53.7209 39.886 54.0869 38.956 54.8189 38.296C55.5509 37.624 56.5229 37.288 57.7349 37.288C58.9589 37.288 59.9129 37.612 60.5969 38.26C61.2929 38.896 61.6409 39.808 61.6409 40.996V42.868C61.6409 43.48 61.7789 43.954 62.0549 44.29C62.3309 44.626 62.7329 44.794 63.2609 44.794C63.9449 44.794 64.5509 44.398 65.0789 43.606C65.6189 42.802 66.0449 41.47 66.3569 39.61C66.6689 37.738 66.8249 35.206 66.8249 32.014C66.8249 29.362 66.6869 27.31 66.4109 25.858C66.1349 24.406 65.7689 23.398 65.3129 22.834C64.8689 22.258 64.3769 21.97 63.8369 21.97C62.9369 21.97 62.2289 22.438 61.7129 23.374C61.1969 24.298 60.9389 25.756 60.9389 27.748C60.9389 29.524 61.2509 30.874 61.8749 31.798C62.5109 32.71 63.3149 33.166 64.2869 33.166C64.8269 33.166 65.3309 33.064 65.7989 32.86C66.2789 32.644 66.6869 32.344 67.0229 31.96C67.3589 31.564 67.5749 31.108 67.6709 30.592L68.8229 30.934C68.7509 31.786 68.3789 32.59 67.7069 33.346C67.0349 34.102 66.1349 34.72 65.0069 35.2C63.8789 35.668 62.5889 35.902 61.1369 35.902C59.4809 35.902 58.0529 35.626 56.8529 35.074C55.6529 34.51 54.7289 33.688 54.0809 32.608C53.4329 31.528 53.1089 30.208 53.1089 28.648C53.1089 26.968 53.5409 25.492 54.4049 24.22C55.2809 22.936 56.5169 21.934 58.1129 21.214C59.7089 20.494 61.5869 20.134 63.7469 20.134C66.1349 20.134 68.1629 20.638 69.8309 21.646C71.5109 22.654 72.7889 24.088 73.6649 25.948C74.5529 27.808 74.9969 30.004 74.9969 32.536C74.9969 35.5 74.4869 38.038 73.4669 40.15C72.4469 42.25 70.9949 43.864 69.1109 44.992C67.2269 46.108 64.9889 46.666 62.3969 46.666ZM86.3734 46.666C84.4894 46.666 82.8994 46.408 81.6034 45.892C80.3194 45.376 79.3474 44.692 78.6874 43.84C78.0274 42.988 77.6974 42.07 77.6974 41.086C77.6974 39.886 78.0634 38.956 78.7954 38.296C79.5274 37.624 80.4994 37.288 81.7114 37.288C82.9354 37.288 83.8894 37.612 84.5734 38.26C85.2694 38.896 85.6174 39.808 85.6174 40.996V42.868C85.6174 43.48 85.7554 43.954 86.0314 44.29C86.3074 44.626 86.7094 44.794 87.2374 44.794C87.9214 44.794 88.5274 44.398 89.0554 43.606C89.5954 42.802 90.0214 41.47 90.3334 39.61C90.6454 37.738 90.8014 35.206 90.8014 32.014C90.8014 29.362 90.6634 27.31 90.3874 25.858C90.1114 24.406 89.7454 23.398 89.2894 22.834C88.8454 22.258 88.3534 21.97 87.8134 21.97C86.9134 21.97 86.2054 22.438 85.6894 23.374C85.1734 24.298 84.9154 25.756 84.9154 27.748C84.9154 29.524 85.2274 30.874 85.8514 31.798C86.4874 32.71 87.2914 33.166 88.2634 33.166C88.8034 33.166 89.3074 33.064 89.7754 32.86C90.2554 32.644 90.6634 32.344 90.9994 31.96C91.3354 31.564 91.5514 31.108 91.6474 30.592L92.7994 30.934C92.7274 31.786 92.3554 32.59 91.6834 33.346C91.0114 34.102 90.1114 34.72 88.9834 35.2C87.8554 35.668 86.5654 35.902 85.1134 35.902C83.4574 35.902 82.0294 35.626 80.8294 35.074C79.6294 34.51 78.7054 33.688 78.0574 32.608C77.4094 31.528 77.0854 30.208 77.0854 28.648C77.0854 26.968 77.5174 25.492 78.3814 24.22C79.2574 22.936 80.4934 21.934 82.0894 21.214C83.6854 20.494 85.5634 20.134 87.7234 20.134C90.1114 20.134 92.1394 20.638 93.8074 21.646C95.4874 22.654 96.7654 24.088 97.6414 25.948C98.5294 27.808 98.9734 30.004 98.9734 32.536C98.9734 35.5 98.4634 38.038 97.4434 40.15C96.4234 42.25 94.9714 43.864 93.0874 44.992C91.2034 46.108 88.9654 46.666 86.3734 46.666ZM110.35 46.666C108.466 46.666 106.876 46.408 105.58 45.892C104.296 45.376 103.324 44.692 102.664 43.84C102.004 42.988 101.674 42.07 101.674 41.086C101.674 39.886 102.04 38.956 102.772 38.296C103.504 37.624 104.476 37.288 105.688 37.288C106.912 37.288 107.866 37.612 108.55 38.26C109.246 38.896 109.594 39.808 109.594 40.996V42.868C109.594 43.48 109.732 43.954 110.008 44.29C110.284 44.626 110.686 44.794 111.214 44.794C111.898 44.794 112.504 44.398 113.032 43.606C113.572 42.802 113.998 41.47 114.31 39.61C114.622 37.738 114.778 35.206 114.778 32.014C114.778 29.362 114.64 27.31 114.364 25.858C114.088 24.406 113.722 23.398 113.266 22.834C112.822 22.258 112.33 21.97 111.79 21.97C110.89 21.97 110.182 22.438 109.666 23.374C109.15 24.298 108.892 25.756 108.892 27.748C108.892 29.524 109.204 30.874 109.828 31.798C110.464 32.71 111.268 33.166 112.24 33.166C112.78 33.166 113.284 33.064 113.752 32.86C114.232 32.644 114.64 32.344 114.976 31.96C115.312 31.564 115.528 31.108 115.624 30.592L116.776 30.934C116.704 31.786 116.332 32.59 115.66 33.346C114.988 34.102 114.088 34.72 112.96 35.2C111.832 35.668 110.542 35.902 109.09 35.902C107.434 35.902 106.006 35.626 104.806 35.074C103.606 34.51 102.682 33.688 102.034 32.608C101.386 31.528 101.062 30.208 101.062 28.648C101.062 26.968 101.494 25.492 102.358 24.22C103.234 22.936 104.47 21.934 106.066 21.214C107.662 20.494 109.54 20.134 111.7 20.134C114.088 20.134 116.116 20.638 117.784 21.646C119.464 22.654 120.742 24.088 121.618 25.948C122.506 27.808 122.95 30.004 122.95 32.536C122.95 35.5 122.44 38.038 121.42 40.15C120.4 42.25 118.948 43.864 117.064 44.992C115.18 46.108 112.942 46.666 110.35 46.666ZM134.327 46.666C132.443 46.666 130.853 46.408 129.557 45.892C128.273 45.376 127.301 44.692 126.641 43.84C125.981 42.988 125.651 42.07 125.651 41.086C125.651 39.886 126.017 38.956 126.749 38.296C127.481 37.624 128.453 37.288 129.665 37.288C130.889 37.288 131.843 37.612 132.527 38.26C133.223 38.896 133.571 39.808 133.571 40.996V42.868C133.571 43.48 133.709 43.954 133.985 44.29C134.261 44.626 134.663 44.794 135.191 44.794C135.875 44.794 136.481 44.398 137.009 43.606C137.549 42.802 137.975 41.47 138.287 39.61C138.599 37.738 138.755 35.206 138.755 32.014C138.755 29.362 138.617 27.31 138.341 25.858C138.065 24.406 137.699 23.398 137.243 22.834C136.799 22.258 136.307 21.97 135.767 21.97C134.867 21.97 134.159 22.438 133.643 23.374C133.127 24.298 132.869 25.756 132.869 27.748C132.869 29.524 133.181 30.874 133.805 31.798C134.441 32.71 135.245 33.166 136.217 33.166C136.757 33.166 137.261 33.064 137.729 32.86C138.209 32.644 138.617 32.344 138.953 31.96C139.289 31.564 139.505 31.108 139.601 30.592L140.753 30.934C140.681 31.786 140.309 32.59 139.637 33.346C138.965 34.102 138.065 34.72 136.937 35.2C135.809 35.668 134.519 35.902 133.067 35.902C131.411 35.902 129.983 35.626 128.783 35.074C127.583 34.51 126.659 33.688 126.011 32.608C125.363 31.528 125.039 30.208 125.039 28.648C125.039 26.968 125.471 25.492 126.335 24.22C127.211 22.936 128.447 21.934 130.043 21.214C131.639 20.494 133.517 20.134 135.677 20.134C138.065 20.134 140.093 20.638 141.761 21.646C143.441 22.654 144.719 24.088 145.595 25.948C146.483 27.808 146.927 30.004 146.927 32.536C146.927 35.5 146.417 38.038 145.397 40.15C144.377 42.25 142.925 43.864 141.041 44.992C139.157 46.108 136.919 46.666 134.327 46.666ZM158.303 46.666C156.419 46.666 154.829 46.408 153.533 45.892C152.249 45.376 151.277 44.692 150.617 43.84C149.957 42.988 149.627 42.07 149.627 41.086C149.627 39.886 149.993 38.956 150.725 38.296C151.457 37.624 152.429 37.288 153.641 37.288C154.865 37.288 155.819 37.612 156.503 38.26C157.199 38.896 157.547 39.808 157.547 40.996V42.868C157.547 43.48 157.685 43.954 157.961 44.29C158.237 44.626 158.639 44.794 159.167 44.794C159.851 44.794 160.457 44.398 160.985 43.606C161.525 42.802 161.951 41.47 162.263 39.61C162.575 37.738 162.731 35.206 162.731 32.014C162.731 29.362 162.593 27.31 162.317 25.858C162.041 24.406 161.675 23.398 161.219 22.834C160.775 22.258 160.283 21.97 159.743 21.97C158.843 21.97 158.135 22.438 157.619 23.374C157.103 24.298 156.845 25.756 156.845 27.748C156.845 29.524 157.157 30.874 157.781 31.798C158.417 32.71 159.221 33.166 160.193 33.166C160.733 33.166 161.237 33.064 161.705 32.86C162.185 32.644 162.593 32.344 162.929 31.96C163.265 31.564 163.481 31.108 163.577 30.592L164.729 30.934C164.657 31.786 164.285 32.59 163.613 33.346C162.941 34.102 162.041 34.72 160.913 35.2C159.785 35.668 158.495 35.902 157.043 35.902C155.387 35.902 153.959 35.626 152.759 35.074C151.559 34.51 150.635 33.688 149.987 32.608C149.339 31.528 149.015 30.208 149.015 28.648C149.015 26.968 149.447 25.492 150.311 24.22C151.187 22.936 152.423 21.934 154.019 21.214C155.615 20.494 157.493 20.134 159.653 20.134C162.041 20.134 164.069 20.638 165.737 21.646C167.417 22.654 168.695 24.088 169.571 25.948C170.459 27.808 170.903 30.004 170.903 32.536C170.903 35.5 170.393 38.038 169.373 40.15C168.353 42.25 166.901 43.864 165.017 44.992C163.133 46.108 160.895 46.666 158.303 46.666ZM30.7591 76.728V78.384L31.0651 78.996V97.986C31.0651 98.418 31.1011 98.724 31.1731 98.904C31.2451 99.096 31.3651 99.234 31.5331 99.318L31.9831 99.498C32.2231 99.594 32.3971 99.72 32.5051 99.876C32.6131 100.044 32.6671 100.23 32.6671 100.434C32.6671 100.734 32.5711 100.968 32.3791 101.136C32.1991 101.304 31.8931 101.388 31.4611 101.388H23.1811C22.7611 101.388 22.4551 101.304 22.2631 101.136C22.0711 100.968 21.9751 100.734 21.9751 100.434C21.9751 100.23 22.0291 100.044 22.1371 99.876C22.2451 99.72 22.4251 99.594 22.6771 99.498L23.1091 99.318C23.2891 99.234 23.4091 99.096 23.4691 98.904C23.5411 98.724 23.5771 98.418 23.5771 97.986V80.508C23.5771 80.172 23.5291 79.932 23.4331 79.788C23.3491 79.632 23.2111 79.53 23.0191 79.482L22.5691 79.374C22.3411 79.302 22.1731 79.2 22.0651 79.068C21.9691 78.924 21.9211 78.744 21.9211 78.528C21.9211 78.276 21.9931 78.084 22.1371 77.952C22.2811 77.82 22.5391 77.67 22.9111 77.502L26.9971 75.9C27.5251 75.672 27.9571 75.516 28.2931 75.432C28.6291 75.348 28.9351 75.306 29.2111 75.306C29.7271 75.306 30.1111 75.438 30.3631 75.702C30.6271 75.966 30.7591 76.308 30.7591 76.728ZM29.8411 81.426L28.7071 80.328C29.6911 78.756 30.7891 77.526 32.0011 76.638C33.2131 75.75 34.6051 75.306 36.1771 75.306C37.6051 75.306 38.8711 75.666 39.9751 76.386C41.0911 77.094 41.9671 78.09 42.6031 79.374C43.2511 80.646 43.5751 82.122 43.5751 83.802C43.5751 85.734 43.1791 87.432 42.3871 88.896C41.6071 90.348 40.5331 91.476 39.1651 92.28C37.8091 93.084 36.2731 93.486 34.5571 93.486C33.1531 93.486 31.9411 93.198 30.9211 92.622C29.9011 92.046 29.0251 91.164 28.2931 89.976L30.0391 88.806C30.5431 89.55 31.0291 90.084 31.4971 90.408C31.9651 90.72 32.4751 90.876 33.0271 90.876C33.6031 90.876 34.1011 90.672 34.5211 90.264C34.9531 89.856 35.2831 89.19 35.5111 88.266C35.7511 87.33 35.8711 86.088 35.8711 84.54C35.8711 83.136 35.7511 82.008 35.5111 81.156C35.2711 80.304 34.9471 79.686 34.5391 79.302C34.1311 78.906 33.6571 78.708 33.1171 78.708C32.4811 78.708 31.8931 78.924 31.3531 79.356C30.8131 79.788 30.3091 80.478 29.8411 81.426ZM54.138 76.728V78.384L54.444 78.996V97.986C54.444 98.418 54.48 98.724 54.552 98.904C54.624 99.096 54.744 99.234 54.912 99.318L55.362 99.498C55.602 99.594 55.776 99.72 55.884 99.876C55.992 100.044 56.046 100.23 56.046 100.434C56.046 100.734 55.95 100.968 55.758 101.136C55.578 101.304 55.272 101.388 54.84 101.388H46.56C46.14 101.388 45.834 101.304 45.642 101.136C45.45 100.968 45.354 100.734 45.354 100.434C45.354 100.23 45.408 100.044 45.516 99.876C45.624 99.72 45.804 99.594 46.056 99.498L46.488 99.318C46.668 99.234 46.788 99.096 46.848 98.904C46.92 98.724 46.956 98.418 46.956 97.986V80.508C46.956 80.172 46.908 79.932 46.812 79.788C46.728 79.632 46.59 79.53 46.398 79.482L45.948 79.374C45.72 79.302 45.552 79.2 45.444 79.068C45.348 78.924 45.3 78.744 45.3 78.528C45.3 78.276 45.372 78.084 45.516 77.952C45.66 77.82 45.918 77.67 46.29 77.502L50.376 75.9C50.904 75.672 51.336 75.516 51.672 75.432C52.008 75.348 52.314 75.306 52.59 75.306C53.106 75.306 53.49 75.438 53.742 75.702C54.006 75.966 54.138 76.308 54.138 76.728ZM53.22 81.426L52.086 80.328C53.07 78.756 54.168 77.526 55.38 76.638C56.592 75.75 57.984 75.306 59.556 75.306C60.984 75.306 62.25 75.666 63.354 76.386C64.47 77.094 65.346 78.09 65.982 79.374C66.63 80.646 66.954 82.122 66.954 83.802C66.954 85.734 66.558 87.432 65.766 88.896C64.986 90.348 63.912 91.476 62.544 92.28C61.188 93.084 59.652 93.486 57.936 93.486C56.532 93.486 55.32 93.198 54.3 92.622C53.28 92.046 52.404 91.164 51.672 89.976L53.418 88.806C53.922 89.55 54.408 90.084 54.876 90.408C55.344 90.72 55.854 90.876 56.406 90.876C56.982 90.876 57.48 90.672 57.9 90.264C58.332 89.856 58.662 89.19 58.89 88.266C59.13 87.33 59.25 86.088 59.25 84.54C59.25 83.136 59.13 82.008 58.89 81.156C58.65 80.304 58.326 79.686 57.918 79.302C57.51 78.906 57.036 78.708 56.496 78.708C55.86 78.708 55.272 78.924 54.732 79.356C54.192 79.788 53.688 80.478 53.22 81.426ZM77.8769 67.242V89.598C77.8769 90.03 77.9069 90.342 77.9669 90.534C78.0389 90.714 78.1649 90.846 78.3449 90.93L78.7769 91.11C79.0289 91.206 79.2089 91.338 79.3169 91.506C79.4249 91.662 79.4789 91.842 79.4789 92.046C79.4789 92.346 79.3829 92.58 79.1909 92.748C78.9989 92.916 78.6929 93 78.2729 93H69.9749C69.5669 93 69.2669 92.916 69.0749 92.748C68.8829 92.58 68.7869 92.346 68.7869 92.046C68.7869 91.842 68.8409 91.662 68.9489 91.506C69.0569 91.338 69.2309 91.206 69.4709 91.11L69.9209 90.93C70.1009 90.846 70.2209 90.714 70.2809 90.534C70.3529 90.342 70.3889 90.03 70.3889 89.598V71.04C70.3889 70.692 70.3409 70.446 70.2449 70.302C70.1609 70.158 70.0229 70.062 69.8309 70.014L69.3809 69.906C69.1529 69.834 68.9849 69.732 68.8769 69.6C68.7809 69.456 68.7329 69.276 68.7329 69.06C68.7329 68.808 68.7989 68.61 68.9309 68.466C69.0749 68.31 69.3389 68.16 69.7229 68.016L74.1149 66.414C74.6909 66.198 75.1409 66.048 75.4649 65.964C75.8009 65.868 76.0949 65.82 76.3469 65.82C76.8509 65.82 77.2289 65.958 77.4809 66.234C77.7449 66.498 77.8769 66.834 77.8769 67.242ZM98.3083 93H95.5723C95.1043 93 94.7023 92.898 94.3663 92.694C94.0423 92.478 93.7843 92.106 93.5923 91.578L89.0023 78.978C88.8583 78.57 88.7263 78.3 88.6063 78.168C88.4983 78.036 88.3783 77.94 88.2463 77.88L87.8323 77.7C87.6043 77.592 87.4423 77.472 87.3463 77.34C87.2503 77.196 87.2023 77.004 87.2023 76.764C87.2023 76.476 87.3043 76.248 87.5083 76.08C87.7243 75.912 88.0063 75.828 88.3543 75.828H97.5343C97.8823 75.828 98.1583 75.912 98.3623 76.08C98.5783 76.248 98.6863 76.476 98.6863 76.764C98.6863 77.004 98.6203 77.196 98.4883 77.34C98.3683 77.472 98.1703 77.58 97.8943 77.664L97.3543 77.826C97.0903 77.898 96.9283 78.066 96.8683 78.33C96.8203 78.594 96.9223 79.092 97.1743 79.824L100.252 88.878L98.4523 90.642L102.592 79.266L104.518 80.472L100.27 91.722C100.078 92.238 99.8023 92.58 99.4423 92.748C99.0823 92.916 98.7043 93 98.3083 93ZM110.386 93H107.74C107.284 93 106.882 92.892 106.534 92.676C106.198 92.46 105.94 92.094 105.76 91.578L101.386 78.978C101.242 78.558 101.11 78.282 100.99 78.15C100.882 78.018 100.768 77.922 100.648 77.862L100.27 77.7C100.042 77.592 99.8803 77.472 99.7843 77.34C99.6883 77.196 99.6403 77.004 99.6403 76.764C99.6403 76.14 100.024 75.828 100.792 75.828H109.792C110.548 75.828 110.926 76.14 110.926 76.764C110.926 77.004 110.866 77.202 110.746 77.358C110.638 77.502 110.476 77.598 110.26 77.646L109.45 77.79C109.162 77.85 108.994 78.024 108.946 78.312C108.91 78.6 109.006 79.098 109.234 79.806L112.15 88.896L110.512 90.642L113.698 80.364C113.986 79.476 114.106 78.852 114.058 78.492C114.01 78.132 113.824 77.91 113.5 77.826L112.996 77.664C112.72 77.58 112.516 77.472 112.384 77.34C112.264 77.196 112.204 77.004 112.204 76.764C112.204 76.476 112.306 76.248 112.51 76.08C112.714 75.912 112.99 75.828 113.338 75.828H117.478C117.838 75.828 118.12 75.912 118.324 76.08C118.528 76.248 118.63 76.476 118.63 76.764C118.63 76.968 118.582 77.148 118.486 77.304C118.39 77.448 118.204 77.568 117.928 77.664L117.568 77.808C117.34 77.892 117.124 78.114 116.92 78.474C116.728 78.834 116.5 79.404 116.236 80.184L112.348 91.722C112.18 92.226 111.91 92.568 111.538 92.748C111.166 92.916 110.782 93 110.386 93ZM130.034 90.642V90.264L129.494 90.282V78.438C129.494 77.982 129.368 77.622 129.116 77.358C128.876 77.082 128.552 76.944 128.144 76.944C127.82 76.944 127.538 77.028 127.298 77.196C127.07 77.352 126.956 77.574 126.956 77.862V79.806C126.956 80.79 126.614 81.564 125.93 82.128C125.258 82.68 124.298 82.956 123.05 82.956C122.03 82.956 121.256 82.734 120.728 82.29C120.212 81.834 119.954 81.198 119.954 80.382C119.954 79.602 120.302 78.828 120.998 78.06C121.706 77.28 122.762 76.632 124.166 76.116C125.57 75.6 127.334 75.342 129.458 75.342C131.966 75.342 133.832 75.804 135.056 76.728C136.28 77.652 136.892 78.924 136.892 80.544V89.184C136.892 89.424 136.946 89.616 137.054 89.76C137.174 89.904 137.348 89.976 137.576 89.976C137.78 89.976 137.948 89.922 138.08 89.814C138.212 89.706 138.332 89.58 138.44 89.436C138.512 89.352 138.584 89.286 138.656 89.238C138.74 89.178 138.836 89.148 138.944 89.148C139.124 89.148 139.25 89.214 139.322 89.346C139.406 89.478 139.448 89.646 139.448 89.85C139.448 90.342 139.262 90.87 138.89 91.434C138.53 91.998 137.972 92.484 137.216 92.892C136.472 93.288 135.536 93.486 134.408 93.486C133.088 93.486 132.026 93.216 131.222 92.676C130.43 92.136 130.034 91.458 130.034 90.642ZM119.252 89.202C119.252 87.582 119.978 86.304 121.43 85.368C122.882 84.432 124.958 83.964 127.658 83.964C128.342 83.964 128.93 84.018 129.422 84.126C129.926 84.222 130.34 84.36 130.664 84.54L130.124 85.908C129.86 85.752 129.614 85.644 129.386 85.584C129.17 85.524 128.924 85.494 128.648 85.494C128.072 85.494 127.61 85.704 127.262 86.124C126.926 86.532 126.758 87.132 126.758 87.924C126.758 88.74 126.926 89.358 127.262 89.778C127.598 90.186 128.036 90.39 128.576 90.39C128.924 90.39 129.248 90.306 129.548 90.138C129.848 89.97 130.076 89.772 130.232 89.544L130.646 90.804C130.082 91.656 129.26 92.316 128.18 92.784C127.112 93.252 125.966 93.486 124.742 93.486C123.098 93.486 121.772 93.078 120.764 92.262C119.756 91.446 119.252 90.426 119.252 89.202ZM149.524 76.728V89.598C149.524 90.03 149.56 90.336 149.632 90.516C149.704 90.696 149.83 90.834 150.01 90.93L150.406 91.11C150.766 91.314 150.946 91.608 150.946 91.992C150.946 92.664 150.544 93 149.74 93H141.64C141.22 93 140.914 92.916 140.722 92.748C140.53 92.58 140.434 92.346 140.434 92.046C140.434 91.842 140.488 91.662 140.596 91.506C140.704 91.338 140.884 91.206 141.136 91.11L141.568 90.93C141.748 90.846 141.874 90.714 141.946 90.534C142.018 90.342 142.054 90.03 142.054 89.598V80.508C142.054 80.172 142.006 79.932 141.91 79.788C141.814 79.632 141.67 79.53 141.478 79.482L141.046 79.374C140.818 79.302 140.65 79.2 140.542 79.068C140.446 78.924 140.398 78.744 140.398 78.528C140.398 78.276 140.464 78.078 140.596 77.934C140.74 77.79 140.998 77.646 141.37 77.502L145.78 75.9C146.32 75.684 146.758 75.534 147.094 75.45C147.43 75.354 147.754 75.306 148.066 75.306C148.546 75.306 148.906 75.438 149.146 75.702C149.398 75.966 149.524 76.308 149.524 76.728ZM148.894 81.066L147.922 80.04L148.498 79.518C150.13 78.018 151.528 76.944 152.692 76.296C153.868 75.636 154.948 75.306 155.932 75.306C157.42 75.306 158.584 75.81 159.424 76.818C160.264 77.814 160.762 79.14 160.918 80.796L161.8 89.598C161.836 90.03 161.878 90.342 161.926 90.534C161.974 90.714 162.088 90.846 162.268 90.93L162.7 91.11C162.952 91.206 163.132 91.338 163.24 91.506C163.348 91.662 163.402 91.842 163.402 92.046C163.402 92.346 163.306 92.58 163.114 92.748C162.922 92.916 162.616 93 162.196 93H154.006C153.202 93 152.8 92.664 152.8 91.992C152.8 91.608 152.98 91.314 153.34 91.11L153.736 90.93C153.916 90.834 154.054 90.696 154.15 90.516C154.246 90.336 154.27 90.03 154.222 89.598L153.502 81.822C153.43 81.078 153.25 80.526 152.962 80.166C152.686 79.794 152.26 79.608 151.684 79.608C151.312 79.608 150.94 79.686 150.568 79.842C150.196 79.998 149.848 80.22 149.524 80.508L148.894 81.066ZM165.255 77.934L164.571 77.682C164.331 77.586 164.151 77.466 164.031 77.322C163.911 77.166 163.851 76.98 163.851 76.764C163.851 76.464 163.953 76.236 164.156 76.08C164.361 75.912 164.625 75.828 164.949 75.828H166.011C166.215 75.828 166.401 75.774 166.569 75.666C166.749 75.558 166.977 75.366 167.253 75.09L170.529 72.03C170.877 71.67 171.201 71.406 171.501 71.238C171.813 71.07 172.113 70.986 172.401 70.986C172.713 70.986 172.953 71.088 173.121 71.292C173.301 71.496 173.391 71.79 173.391 72.174V86.646C173.391 87.546 173.547 88.23 173.859 88.698C174.171 89.154 174.615 89.382 175.191 89.382C175.623 89.382 175.953 89.28 176.181 89.076C176.421 88.872 176.619 88.632 176.775 88.356C176.931 88.08 177.087 87.828 177.243 87.6C177.411 87.36 177.627 87.204 177.891 87.132C178.095 87.12 178.263 87.186 178.395 87.33C178.527 87.474 178.593 87.732 178.593 88.104C178.569 89.124 178.275 90.042 177.711 90.858C177.147 91.662 176.373 92.304 175.389 92.784C174.405 93.252 173.277 93.486 172.005 93.486C170.073 93.486 168.579 93.024 167.523 92.1C166.479 91.176 165.957 89.772 165.957 87.888V78.978C165.957 78.666 165.903 78.438 165.795 78.294C165.687 78.15 165.507 78.03 165.255 77.934ZM170.871 78.078L170.907 75.828H177.387C177.711 75.828 177.969 75.9 178.161 76.044C178.353 76.176 178.449 76.374 178.449 76.638C178.449 77.046 178.251 77.388 177.855 77.664C177.471 77.94 176.829 78.078 175.929 78.078H170.871ZM44.4804 136.778V136.202L44.2464 136.184V127.526C44.2464 127.178 44.1984 126.932 44.1024 126.788C44.0184 126.644 43.8804 126.548 43.6884 126.5L43.2384 126.392C43.0104 126.32 42.8424 126.218 42.7344 126.086C42.6384 125.942 42.5904 125.762 42.5904 125.546C42.5904 125.294 42.6564 125.096 42.7884 124.952C42.9324 124.796 43.1964 124.646 43.5804 124.502L47.9724 122.9C48.5124 122.696 48.9504 122.546 49.2864 122.45C49.6224 122.354 49.9524 122.306 50.2764 122.306C50.7444 122.306 51.0984 122.444 51.3384 122.72C51.5904 122.984 51.7164 123.32 51.7164 123.728V136.598C51.7164 137.03 51.7524 137.342 51.8244 137.534C51.8964 137.714 52.0224 137.846 52.2024 137.93L52.6344 138.11C52.8864 138.206 53.0664 138.338 53.1744 138.506C53.2824 138.662 53.3364 138.842 53.3364 139.046C53.3364 139.346 53.2404 139.58 53.0484 139.748C52.8564 139.916 52.5504 140 52.1304 140H47.3244C46.5684 140 45.9024 139.682 45.3264 139.046C44.7624 138.41 44.4804 137.654 44.4804 136.778ZM32.7984 134.942V127.526C32.7984 127.178 32.7504 126.932 32.6544 126.788C32.5704 126.644 32.4324 126.548 32.2404 126.5L31.7904 126.392C31.5624 126.32 31.3944 126.218 31.2864 126.086C31.1904 125.942 31.1424 125.762 31.1424 125.546C31.1424 125.294 31.2084 125.096 31.3404 124.952C31.4844 124.796 31.7484 124.646 32.1324 124.502L36.5244 122.9C37.1004 122.684 37.5504 122.534 37.8744 122.45C38.2104 122.354 38.5044 122.306 38.7564 122.306C39.2604 122.306 39.6384 122.444 39.8904 122.72C40.1544 122.984 40.2864 123.32 40.2864 123.728V133.916C40.2864 134.672 40.4544 135.242 40.7904 135.626C41.1384 135.998 41.6244 136.184 42.2484 136.184C42.6444 136.184 43.0524 136.112 43.4724 135.968C43.8924 135.812 44.2704 135.584 44.6064 135.284L45.2364 134.726L46.1904 135.752L45.6324 136.274C43.9884 137.822 42.5484 138.914 41.3124 139.55C40.0884 140.174 38.9664 140.486 37.9464 140.486C36.4104 140.486 35.1684 139.982 34.2204 138.974C33.2724 137.954 32.7984 136.61 32.7984 134.942ZM63.7109 130.19C63.7109 128.402 63.9449 126.926 64.4129 125.762C64.8929 124.598 65.5289 123.734 66.3209 123.17C67.1129 122.594 67.9769 122.306 68.9129 122.306C70.1369 122.306 71.0729 122.678 71.7209 123.422C72.3809 124.166 72.7109 125.294 72.7109 126.806C72.7109 128.342 72.3989 129.476 71.7749 130.208C71.1509 130.928 70.3409 131.288 69.3449 131.288C68.3489 131.288 67.6049 131.03 67.1129 130.514C66.6209 129.998 66.3689 129.284 66.3569 128.372V127.616C66.3449 127.316 66.2789 127.088 66.1589 126.932C66.0389 126.764 65.8469 126.68 65.5829 126.68C65.3429 126.68 65.1269 126.788 64.9349 127.004C64.7549 127.208 64.6109 127.55 64.5029 128.03C64.3949 128.51 64.3409 129.158 64.3409 129.974L63.7109 130.19ZM63.9089 123.746L64.3409 127.76V136.562C64.3409 136.946 64.4009 137.222 64.5209 137.39C64.6409 137.558 64.8929 137.684 65.2769 137.768L66.6989 138.038C67.0229 138.11 67.2569 138.224 67.4009 138.38C67.5449 138.536 67.6169 138.758 67.6169 139.046C67.6169 139.346 67.5149 139.58 67.3109 139.748C67.1069 139.916 66.8069 140 66.4109 140H56.4749C56.0429 140 55.7309 139.916 55.5389 139.748C55.3589 139.58 55.2689 139.346 55.2689 139.046C55.2689 138.842 55.3229 138.662 55.4309 138.506C55.5389 138.338 55.7189 138.2 55.9709 138.092L56.4029 137.93C56.5709 137.846 56.6909 137.714 56.7629 137.534C56.8349 137.354 56.8709 137.048 56.8709 136.616V127.562C56.8709 127.214 56.8229 126.968 56.7269 126.824C56.6429 126.668 56.5049 126.566 56.3129 126.518L55.8629 126.41C55.6349 126.338 55.4669 126.236 55.3589 126.104C55.2629 125.96 55.2149 125.786 55.2149 125.582C55.2149 125.33 55.2869 125.126 55.4309 124.97C55.5749 124.814 55.8329 124.67 56.2049 124.538L60.4889 123.008C61.2329 122.72 61.7669 122.534 62.0909 122.45C62.4269 122.366 62.6909 122.324 62.8829 122.324C63.1829 122.324 63.4109 122.438 63.5669 122.666C63.7229 122.882 63.8369 123.242 63.9089 123.746ZM89.585 138.452C90.269 138.452 90.779 138.302 91.115 138.002C91.451 137.702 91.619 137.33 91.619 136.886C91.619 136.622 91.559 136.37 91.439 136.13C91.331 135.89 91.097 135.674 90.737 135.482C90.377 135.278 89.813 135.104 89.045 134.96C86.897 134.564 85.259 134.054 84.131 133.43C83.003 132.806 82.229 132.08 81.809 131.252C81.401 130.412 81.197 129.47 81.197 128.426C81.197 126.506 81.863 125.006 83.195 123.926C84.527 122.846 86.471 122.306 89.027 122.306C89.927 122.306 90.641 122.378 91.169 122.522C91.709 122.666 92.135 122.81 92.447 122.954C92.771 123.098 93.053 123.17 93.293 123.17C93.569 123.17 93.803 123.098 93.995 122.954C94.199 122.81 94.403 122.666 94.607 122.522C94.823 122.378 95.075 122.306 95.363 122.306C95.591 122.306 95.795 122.384 95.975 122.54C96.167 122.684 96.317 122.96 96.425 123.368L97.343 126.914C97.511 127.466 97.559 127.91 97.487 128.246C97.415 128.57 97.211 128.792 96.875 128.912C96.551 129.044 96.263 129.05 96.011 128.93C95.759 128.81 95.513 128.576 95.273 128.228C94.685 127.328 94.079 126.59 93.455 126.014C92.843 125.438 92.207 125.012 91.547 124.736C90.899 124.46 90.215 124.322 89.495 124.322C88.703 124.322 88.109 124.478 87.713 124.79C87.329 125.102 87.137 125.51 87.137 126.014C87.137 126.35 87.221 126.644 87.389 126.896C87.557 127.136 87.893 127.358 88.397 127.562C88.913 127.766 89.675 127.97 90.683 128.174C92.375 128.498 93.713 128.954 94.697 129.542C95.693 130.118 96.407 130.826 96.839 131.666C97.271 132.494 97.487 133.466 97.487 134.582C97.487 135.77 97.169 136.808 96.533 137.696C95.897 138.584 95.033 139.274 93.941 139.766C92.849 140.246 91.607 140.486 90.215 140.486C89.351 140.486 88.667 140.408 88.163 140.252C87.659 140.096 87.245 139.946 86.921 139.802C86.597 139.646 86.297 139.568 86.021 139.568C85.745 139.568 85.481 139.646 85.229 139.802C84.977 139.946 84.731 140.09 84.491 140.234C84.251 140.39 83.999 140.468 83.735 140.468C83.495 140.468 83.291 140.378 83.123 140.198C82.967 140.03 82.847 139.73 82.763 139.298L82.205 135.986C82.109 135.434 82.103 135.026 82.187 134.762C82.271 134.486 82.463 134.282 82.763 134.15C83.087 134.018 83.375 134.024 83.627 134.168C83.879 134.312 84.137 134.57 84.401 134.942C85.277 136.214 86.147 137.12 87.011 137.66C87.887 138.188 88.745 138.452 89.585 138.452ZM100.567 124.934L99.883 124.682C99.643 124.586 99.463 124.466 99.343 124.322C99.223 124.166 99.163 123.98 99.163 123.764C99.163 123.464 99.265 123.236 99.469 123.08C99.673 122.912 99.937 122.828 100.261 122.828H101.323C101.527 122.828 101.713 122.774 101.881 122.666C102.061 122.558 102.289 122.366 102.565 122.09L105.841 119.03C106.189 118.67 106.513 118.406 106.813 118.238C107.125 118.07 107.425 117.986 107.713 117.986C108.025 117.986 108.265 118.088 108.433 118.292C108.613 118.496 108.703 118.79 108.703 119.174V133.646C108.703 134.546 108.859 135.23 109.171 135.698C109.483 136.154 109.927 136.382 110.503 136.382C110.935 136.382 111.265 136.28 111.493 136.076C111.733 135.872 111.931 135.632 112.087 135.356C112.243 135.08 112.399 134.828 112.555 134.6C112.723 134.36 112.939 134.204 113.203 134.132C113.407 134.12 113.575 134.186 113.707 134.33C113.839 134.474 113.905 134.732 113.905 135.104C113.881 136.124 113.587 137.042 113.023 137.858C112.459 138.662 111.685 139.304 110.701 139.784C109.717 140.252 108.589 140.486 107.317 140.486C105.385 140.486 103.891 140.024 102.835 139.1C101.791 138.176 101.269 136.772 101.269 134.888V125.978C101.269 125.666 101.215 125.438 101.107 125.294C100.999 125.15 100.819 125.03 100.567 124.934ZM106.183 125.078L106.219 122.828H112.699C113.023 122.828 113.281 122.9 113.473 123.044C113.665 123.176 113.761 123.374 113.761 123.638C113.761 124.046 113.563 124.388 113.167 124.664C112.783 124.94 112.141 125.078 111.241 125.078H106.183ZM128.187 136.778V136.202L127.953 136.184V127.526C127.953 127.178 127.905 126.932 127.809 126.788C127.725 126.644 127.587 126.548 127.395 126.5L126.945 126.392C126.717 126.32 126.549 126.218 126.441 126.086C126.345 125.942 126.297 125.762 126.297 125.546C126.297 125.294 126.363 125.096 126.495 124.952C126.639 124.796 126.903 124.646 127.287 124.502L131.679 122.9C132.219 122.696 132.657 122.546 132.993 122.45C133.329 122.354 133.659 122.306 133.983 122.306C134.451 122.306 134.805 122.444 135.045 122.72C135.297 122.984 135.423 123.32 135.423 123.728V136.598C135.423 137.03 135.459 137.342 135.531 137.534C135.603 137.714 135.729 137.846 135.909 137.93L136.341 138.11C136.593 138.206 136.773 138.338 136.881 138.506C136.989 138.662 137.043 138.842 137.043 139.046C137.043 139.346 136.947 139.58 136.755 139.748C136.563 139.916 136.257 140 135.837 140H131.031C130.275 140 129.609 139.682 129.033 139.046C128.469 138.41 128.187 137.654 128.187 136.778ZM116.505 134.942V127.526C116.505 127.178 116.457 126.932 116.361 126.788C116.277 126.644 116.139 126.548 115.947 126.5L115.497 126.392C115.269 126.32 115.101 126.218 114.993 126.086C114.897 125.942 114.849 125.762 114.849 125.546C114.849 125.294 114.915 125.096 115.047 124.952C115.191 124.796 115.455 124.646 115.839 124.502L120.231 122.9C120.807 122.684 121.257 122.534 121.581 122.45C121.917 122.354 122.211 122.306 122.463 122.306C122.967 122.306 123.345 122.444 123.597 122.72C123.861 122.984 123.993 123.32 123.993 123.728V133.916C123.993 134.672 124.161 135.242 124.497 135.626C124.845 135.998 125.331 136.184 125.955 136.184C126.351 136.184 126.759 136.112 127.179 135.968C127.599 135.812 127.977 135.584 128.313 135.284L128.943 134.726L129.897 135.752L129.339 136.274C127.695 137.822 126.255 138.914 125.019 139.55C123.795 140.174 122.673 140.486 121.653 140.486C120.117 140.486 118.875 139.982 117.927 138.974C116.979 137.954 116.505 136.61 116.505 134.942ZM149.038 136.58C149.038 136.964 149.098 137.264 149.218 137.48C149.338 137.684 149.548 137.804 149.848 137.84L151.684 138.092C152.008 138.116 152.236 138.218 152.368 138.398C152.5 138.578 152.566 138.794 152.566 139.046C152.566 139.682 152.182 140 151.414 140H140.344C140.008 140 139.732 139.922 139.516 139.766C139.312 139.598 139.21 139.37 139.21 139.082C139.21 138.83 139.276 138.62 139.408 138.452C139.552 138.284 139.78 138.152 140.092 138.056L140.668 137.894C141.016 137.786 141.256 137.636 141.388 137.444C141.52 137.24 141.586 136.97 141.586 136.634V126.932C141.586 126.716 141.532 126.536 141.424 126.392C141.316 126.236 141.106 126.086 140.794 125.942L139.984 125.618C139.588 125.426 139.312 125.246 139.156 125.078C139 124.898 138.922 124.7 138.922 124.484C138.922 124.232 139.012 124.022 139.192 123.854C139.384 123.686 139.672 123.602 140.056 123.602H142.99L141.622 124.142V123.656C141.622 123.416 141.514 123.17 141.298 122.918C141.094 122.654 140.854 122.36 140.578 122.036C140.302 121.712 140.056 121.322 139.84 120.866C139.636 120.398 139.534 119.846 139.534 119.21C139.534 117.566 140.164 116.252 141.424 115.268C142.696 114.272 144.478 113.774 146.77 113.774C148.246 113.774 149.482 114.002 150.478 114.458C151.486 114.902 152.242 115.496 152.746 116.24C153.262 116.984 153.52 117.794 153.52 118.67C153.52 119.654 153.238 120.398 152.674 120.902C152.122 121.406 151.408 121.658 150.532 121.658C149.56 121.658 148.774 121.37 148.174 120.794C147.586 120.218 147.292 119.444 147.292 118.472V116.852C147.292 116.372 147.154 116.018 146.878 115.79C146.614 115.562 146.272 115.448 145.852 115.448C145.348 115.448 144.964 115.604 144.7 115.916C144.436 116.228 144.304 116.678 144.304 117.266C144.304 117.89 144.442 118.454 144.718 118.958C145.006 119.462 145.36 119.918 145.78 120.326C146.2 120.734 146.614 121.124 147.022 121.496C147.442 121.868 147.79 122.234 148.066 122.594C148.354 122.954 148.498 123.338 148.498 123.746V124.61L147.778 123.602H151.792C152.116 123.602 152.374 123.674 152.566 123.818C152.77 123.962 152.872 124.166 152.872 124.43C152.872 124.838 152.674 125.18 152.278 125.456C151.882 125.732 151.234 125.87 150.334 125.87H149.038V136.58ZM164.753 136.58C164.753 136.964 164.813 137.264 164.933 137.48C165.053 137.684 165.263 137.804 165.563 137.84L167.399 138.092C167.723 138.116 167.951 138.218 168.083 138.398C168.215 138.578 168.281 138.794 168.281 139.046C168.281 139.682 167.897 140 167.129 140H156.059C155.723 140 155.447 139.922 155.231 139.766C155.027 139.598 154.925 139.37 154.925 139.082C154.925 138.83 154.991 138.62 155.123 138.452C155.267 138.284 155.495 138.152 155.807 138.056L156.383 137.894C156.731 137.786 156.971 137.636 157.103 137.444C157.235 137.24 157.301 136.97 157.301 136.634V126.932C157.301 126.716 157.247 126.536 157.139 126.392C157.031 126.236 156.821 126.086 156.509 125.942L155.699 125.618C155.303 125.426 155.027 125.246 154.871 125.078C154.715 124.898 154.637 124.7 154.637 124.484C154.637 124.232 154.727 124.022 154.907 123.854C155.099 123.686 155.387 123.602 155.771 123.602H158.705L157.337 124.142V123.656C157.337 123.416 157.229 123.17 157.013 122.918C156.809 122.654 156.569 122.36 156.293 122.036C156.017 121.712 155.771 121.322 155.555 120.866C155.351 120.398 155.249 119.846 155.249 119.21C155.249 117.566 155.879 116.252 157.139 115.268C158.411 114.272 160.193 113.774 162.485 113.774C163.961 113.774 165.197 114.002 166.193 114.458C167.201 114.902 167.957 115.496 168.461 116.24C168.977 116.984 169.235 117.794 169.235 118.67C169.235 119.654 168.953 120.398 168.389 120.902C167.837 121.406 167.123 121.658 166.247 121.658C165.275 121.658 164.489 121.37 163.889 120.794C163.301 120.218 163.007 119.444 163.007 118.472V116.852C163.007 116.372 162.869 116.018 162.593 115.79C162.329 115.562 161.987 115.448 161.567 115.448C161.063 115.448 160.679 115.604 160.415 115.916C160.151 116.228 160.019 116.678 160.019 117.266C160.019 117.89 160.157 118.454 160.433 118.958C160.721 119.462 161.075 119.918 161.495 120.326C161.915 120.734 162.329 121.124 162.737 121.496C163.157 121.868 163.505 122.234 163.781 122.594C164.069 122.954 164.213 123.338 164.213 123.746V124.61L163.493 123.602H167.507C167.831 123.602 168.089 123.674 168.281 123.818C168.485 123.962 168.587 124.166 168.587 124.43C168.587 124.838 168.389 125.18 167.993 125.456C167.597 125.732 166.949 125.87 166.049 125.87H164.753V136.58Z" fill="white"/>
</svg>
