<svg width="335" height="75" viewBox="0 0 335 75" fill="none" xmlns="http://www.w3.org/2000/svg">
<path d="M61.0685 48.44C61.0685 48.8347 60.9725 49.128 60.7805 49.32C60.5992 49.512 60.3165 49.608 59.9325 49.608C59.6018 49.608 59.2765 49.512 58.9565 49.32C58.6472 49.1387 58.3378 48.9253 58.0285 48.68C57.7298 48.4347 57.4418 48.2213 57.1645 48.04C56.8872 47.848 56.6258 47.752 56.3805 47.752C56.1458 47.752 55.8738 47.848 55.5645 48.04C55.2658 48.2213 54.9032 48.4347 54.4765 48.68C54.0605 48.9147 53.5485 49.1227 52.9405 49.304C52.3325 49.496 51.6018 49.592 50.7485 49.592C49.0312 49.592 47.4898 49.32 46.1245 48.776C44.7698 48.2213 43.6125 47.432 42.6525 46.408C41.7032 45.384 40.9778 44.1573 40.4765 42.728C39.9752 41.288 39.7245 39.6827 39.7245 37.912C39.7245 36.1947 40.0178 34.6107 40.6045 33.16C41.1912 31.7093 42.0125 30.4507 43.0685 29.384C44.1352 28.3173 45.3778 27.4853 46.7965 26.888C48.2152 26.2907 49.7618 25.992 51.4365 25.992C52.4712 25.992 53.3085 26.0827 53.9485 26.264C54.5992 26.4347 55.1218 26.6107 55.5165 26.792C55.9218 26.9733 56.2578 27.064 56.5245 27.064C56.8232 27.064 57.0845 26.9787 57.3085 26.808C57.5432 26.6373 57.7778 26.472 58.0125 26.312C58.2472 26.1413 58.5192 26.056 58.8285 26.056C59.0632 26.056 59.2605 26.136 59.4205 26.296C59.5805 26.4453 59.7085 26.7067 59.8045 27.08L61.4045 33.032C61.4898 33.3307 61.4525 33.5973 61.2925 33.832C61.1432 34.0667 60.9192 34.2213 60.6205 34.296C60.3005 34.3707 60.0072 34.3493 59.7405 34.232C59.4738 34.1147 59.2658 33.8853 59.1165 33.544C58.5405 32.168 57.8898 31.096 57.1645 30.328C56.4392 29.56 55.6818 29.0267 54.8925 28.728C54.1032 28.4187 53.3085 28.264 52.5085 28.264C51.3885 28.264 50.4232 28.6 49.6125 29.272C48.8018 29.944 48.1832 30.9093 47.7565 32.168C47.3298 33.4267 47.1165 34.9413 47.1165 36.712C47.1165 38.8773 47.3725 40.6853 47.8845 42.136C48.3965 43.5867 49.0898 44.68 49.9645 45.416C50.8498 46.1413 51.8525 46.504 52.9725 46.504C53.2392 46.504 53.4685 46.4613 53.6605 46.376C53.8632 46.2907 54.0285 46.1787 54.1565 46.04C54.2952 45.8907 54.3965 45.7147 54.4605 45.512C54.5245 45.2987 54.5565 45.0747 54.5565 44.84V40.904C54.5565 40.6907 54.5032 40.5253 54.3965 40.408C54.2898 40.2907 54.0765 40.1893 53.7565 40.104L52.9885 39.912C52.6792 39.816 52.4392 39.688 52.2685 39.528C52.1085 39.368 52.0285 39.1653 52.0285 38.92C52.0285 38.632 52.1245 38.408 52.3165 38.248C52.5192 38.0773 52.8338 37.992 53.2605 37.992H61.6445C62.0818 37.992 62.3965 38.0773 62.5885 38.248C62.7912 38.408 62.8925 38.6267 62.8925 38.904C62.8925 39.1387 62.8285 39.3307 62.7005 39.48C62.5832 39.6293 62.3965 39.7573 62.1405 39.864L61.7405 40.008C61.5378 40.0933 61.3725 40.2 61.2445 40.328C61.1272 40.456 61.0685 40.648 61.0685 40.904V48.44ZM71.9923 36.552H76.0403C76.7443 36.552 77.2509 36.4133 77.5603 36.136C77.8696 35.848 78.1363 35.2987 78.3603 34.488C78.4563 34.1573 78.5949 33.9227 78.7763 33.784C78.9576 33.6347 79.1656 33.56 79.4003 33.56C79.9123 33.56 80.2376 33.848 80.3763 34.424L81.7043 39.624C81.7896 39.976 81.7843 40.2587 81.6883 40.472C81.6029 40.6747 81.4216 40.824 81.1443 40.92C80.8776 41.016 80.6269 41.032 80.3923 40.968C80.1576 40.8933 79.9603 40.7387 79.8003 40.504C79.4163 39.9707 79.0696 39.5653 78.7603 39.288C78.4616 39.0107 78.1256 38.824 77.7523 38.728C77.3896 38.6213 76.9256 38.568 76.3603 38.568H71.9923V36.552ZM65.0323 27.576C65.0323 27.2667 65.1283 27.0267 65.3203 26.856C65.5229 26.6853 65.8376 26.6 66.2643 26.6H78.6803C79.1389 26.6 79.5229 26.5573 79.8323 26.472C80.1416 26.376 80.4296 26.2853 80.6963 26.2C80.9629 26.104 81.2616 26.056 81.5923 26.056C82.0189 26.056 82.3389 26.1787 82.5523 26.424C82.7763 26.6693 82.9683 27.0693 83.1283 27.624L84.5203 32.376C84.6269 32.728 84.6269 33.0213 84.5203 33.256C84.4136 33.48 84.2109 33.6453 83.9123 33.752C83.5709 33.8693 83.2669 33.8693 83.0003 33.752C82.7336 33.624 82.5096 33.4 82.3283 33.08C81.8056 32.1733 81.3203 31.432 80.8723 30.856C80.4243 30.28 79.9816 29.832 79.5443 29.512C79.1069 29.192 78.6536 28.9733 78.1843 28.856C77.7149 28.728 77.1976 28.664 76.6323 28.664H74.6003V45.128C74.6003 45.736 74.7496 46.1893 75.0483 46.488C75.3469 46.7867 75.7789 46.936 76.3443 46.936H77.0803C77.8696 46.936 78.5789 46.8027 79.2083 46.536C79.8376 46.2587 80.4563 45.752 81.0643 45.016C81.6829 44.2693 82.3443 43.1867 83.0483 41.768C83.1976 41.4587 83.3896 41.2507 83.6243 41.144C83.8696 41.0373 84.1469 41.0107 84.4563 41.064C84.7869 41.128 85.0269 41.2827 85.1763 41.528C85.3256 41.7733 85.3469 42.0827 85.2403 42.456L83.7043 47.976C83.5549 48.52 83.3683 48.9147 83.1443 49.16C82.9203 49.416 82.5789 49.544 82.1203 49.544C81.8216 49.544 81.5443 49.496 81.2882 49.4C81.0323 49.3147 80.7443 49.224 80.4243 49.128C80.1149 49.0427 79.7256 49 79.2563 49H66.2643C65.8376 49 65.5229 48.9147 65.3203 48.744C65.1283 48.5627 65.0323 48.3227 65.0323 48.024C65.0323 47.512 65.2829 47.16 65.7843 46.968L66.4403 46.744C66.7069 46.648 66.9043 46.5253 67.0323 46.376C67.1709 46.216 67.2403 46.0133 67.2403 45.768V29.832C67.2403 29.5867 67.1709 29.3893 67.0323 29.24C66.9043 29.08 66.7069 28.952 66.4403 28.856L65.7843 28.632C65.2829 28.44 65.0323 28.088 65.0323 27.576ZM91.7065 26.6H103.003C103.472 26.6 103.872 26.5627 104.203 26.488C104.533 26.4027 104.827 26.3227 105.083 26.248C105.349 26.1627 105.611 26.12 105.867 26.12C106.325 26.12 106.667 26.232 106.891 26.456C107.125 26.68 107.312 27.0693 107.451 27.624L108.475 33.16C108.549 33.5547 108.517 33.8693 108.379 34.104C108.24 34.3387 108.005 34.488 107.675 34.552C107.376 34.616 107.109 34.6 106.875 34.504C106.64 34.3973 106.437 34.1787 106.267 33.848C105.605 32.504 105.029 31.4693 104.539 30.744C104.059 30.008 103.605 29.496 103.179 29.208C102.763 28.92 102.315 28.776 101.835 28.776H101.035V45.768C101.035 46.0133 101.104 46.216 101.243 46.376C101.381 46.5253 101.584 46.648 101.851 46.744L102.491 46.968C102.992 47.16 103.243 47.512 103.243 48.024C103.243 48.6747 102.832 49 102.01 49H92.6985C92.2825 49 91.9732 48.9147 91.7705 48.744C91.5678 48.5627 91.4665 48.3227 91.4665 48.024C91.4665 47.512 91.7225 47.16 92.2345 46.968L92.8745 46.744C93.1518 46.648 93.3545 46.5253 93.4825 46.376C93.6105 46.216 93.6745 46.0133 93.6745 45.768V28.776H92.8905C92.4212 28.776 91.9732 28.9253 91.5465 29.224C91.1305 29.512 90.6772 30.024 90.1865 30.76C89.6958 31.4853 89.1145 32.5147 88.4425 33.848C88.2825 34.1787 88.0852 34.3973 87.8505 34.504C87.6158 34.6 87.3438 34.616 87.0345 34.552C86.7145 34.488 86.4852 34.3387 86.3465 34.104C86.2078 33.8693 86.1758 33.5547 86.2505 33.16L87.2585 27.624C87.4078 27.0693 87.5945 26.68 87.8185 26.456C88.0532 26.232 88.3998 26.12 88.8585 26.12C89.1038 26.12 89.3545 26.1627 89.6105 26.248C89.8772 26.3227 90.1758 26.4027 90.5065 26.488C90.8478 26.5627 91.2478 26.6 91.7065 26.6ZM126.316 49.464C125.559 49.464 124.908 49.3787 124.364 49.208C123.831 49.048 123.383 48.888 123.02 48.728C122.668 48.5573 122.375 48.472 122.14 48.472C121.905 48.472 121.681 48.5307 121.468 48.648C121.255 48.7547 121.041 48.8773 120.828 49.016C120.625 49.1547 120.417 49.2773 120.204 49.384C120.001 49.5013 119.788 49.56 119.564 49.56C119.265 49.56 119.015 49.4693 118.812 49.288C118.62 49.1173 118.492 48.8293 118.428 48.424L117.484 42.664C117.452 42.376 117.5 42.1307 117.628 41.928C117.756 41.7253 117.964 41.576 118.252 41.48C118.583 41.3627 118.865 41.3627 119.1 41.48C119.345 41.5973 119.559 41.832 119.74 42.184C120.476 43.56 121.175 44.6213 121.836 45.368C122.508 46.1147 123.164 46.6373 123.804 46.936C124.455 47.224 125.111 47.368 125.772 47.368C126.668 47.368 127.388 47.1547 127.932 46.728C128.476 46.3013 128.748 45.688 128.748 44.888C128.748 44.344 128.615 43.8693 128.348 43.464C128.092 43.0587 127.591 42.6693 126.844 42.296C126.108 41.9227 125.004 41.5227 123.532 41.096C121.857 40.5947 120.513 39.9973 119.5 39.304C118.487 38.6107 117.756 37.7733 117.308 36.792C116.86 35.8 116.636 34.6267 116.636 33.272C116.636 31.896 116.972 30.6747 117.644 29.608C118.327 28.5413 119.287 27.7093 120.524 27.112C121.772 26.504 123.244 26.2 124.94 26.2C125.793 26.2 126.519 26.2747 127.116 26.424C127.724 26.5733 128.236 26.728 128.652 26.888C129.079 27.0373 129.447 27.112 129.756 27.112C130.012 27.112 130.257 27.032 130.492 26.872C130.727 26.7013 130.972 26.5307 131.228 26.36C131.484 26.1787 131.783 26.088 132.124 26.088C132.433 26.088 132.695 26.1893 132.908 26.392C133.121 26.5947 133.308 26.968 133.468 27.512L134.924 33.032C135.02 33.3947 135.004 33.7147 134.876 33.992C134.759 34.2587 134.545 34.4453 134.236 34.552C133.916 34.6587 133.633 34.648 133.388 34.52C133.143 34.392 132.935 34.1787 132.764 33.88C132.007 32.4507 131.228 31.3307 130.428 30.52C129.639 29.7093 128.849 29.1387 128.06 28.808C127.281 28.4667 126.524 28.296 125.788 28.296C124.945 28.296 124.284 28.536 123.804 29.016C123.335 29.496 123.1 30.1253 123.1 30.904C123.1 31.4053 123.217 31.864 123.452 32.28C123.687 32.696 124.167 33.112 124.892 33.528C125.617 33.9333 126.7 34.3867 128.14 34.888C129.804 35.464 131.132 36.0987 132.124 36.792C133.116 37.4853 133.831 38.2907 134.268 39.208C134.716 40.1147 134.94 41.176 134.94 42.392C134.94 43.704 134.593 44.8933 133.9 45.96C133.217 47.0267 132.231 47.88 130.94 48.52C129.66 49.1493 128.119 49.464 126.316 49.464ZM142.767 37.336H156.175V39.48H142.767V37.336ZM146.991 45.768C146.991 46.0133 147.061 46.216 147.199 46.376C147.338 46.5253 147.535 46.648 147.791 46.744L148.431 46.968C148.943 47.16 149.199 47.512 149.199 48.024C149.199 48.3227 149.098 48.5627 148.895 48.744C148.693 48.9147 148.383 49 147.967 49H138.655C138.239 49 137.93 48.9147 137.727 48.744C137.525 48.5627 137.423 48.3227 137.423 48.024C137.423 47.512 137.679 47.16 138.191 46.968L138.831 46.744C139.098 46.648 139.295 46.5253 139.423 46.376C139.562 46.216 139.631 46.0133 139.631 45.768V29.832C139.631 29.5867 139.562 29.3893 139.423 29.24C139.295 29.08 139.098 28.952 138.831 28.856L138.191 28.632C137.679 28.44 137.423 28.088 137.423 27.576C137.423 27.2667 137.525 27.0267 137.727 26.856C137.93 26.6853 138.239 26.6 138.655 26.6H147.967C148.383 26.6 148.693 26.6853 148.895 26.856C149.098 27.0267 149.199 27.2667 149.199 27.576C149.199 28.088 148.943 28.44 148.431 28.632L147.791 28.856C147.535 28.952 147.338 29.08 147.199 29.24C147.061 29.3893 146.991 29.5867 146.991 29.832V45.768ZM160.927 45.768C160.927 46.0133 160.997 46.216 161.135 46.376C161.274 46.5253 161.471 46.648 161.727 46.744L162.367 46.968C162.879 47.16 163.135 47.512 163.135 48.024C163.135 48.3227 163.034 48.5627 162.831 48.744C162.629 48.9147 162.319 49 161.903 49H152.591C152.175 49 151.866 48.9147 151.663 48.744C151.461 48.5627 151.359 48.3227 151.359 48.024C151.359 47.512 151.615 47.16 152.127 46.968L152.767 46.744C153.034 46.648 153.231 46.5253 153.359 46.376C153.498 46.216 153.567 46.0133 153.567 45.768V29.832C153.567 29.5867 153.498 29.3893 153.359 29.24C153.231 29.08 153.034 28.952 152.767 28.856L152.127 28.632C151.615 28.44 151.359 28.088 151.359 27.576C151.359 27.2667 151.461 27.0267 151.663 26.856C151.866 26.6853 152.175 26.6 152.591 26.6H161.903C162.319 26.6 162.629 26.6853 162.831 26.856C163.034 27.0267 163.135 27.2667 163.135 27.576C163.135 28.088 162.879 28.44 162.367 28.632L161.727 28.856C161.471 28.952 161.274 29.08 161.135 29.24C160.997 29.3893 160.927 29.5867 160.927 29.832V45.768ZM174.707 33.096H174.147C174.147 32.3067 174.009 31.6133 173.731 31.016C173.454 30.4187 173.134 29.8693 172.771 29.368C172.409 28.856 172.089 28.36 171.811 27.88C171.534 27.3893 171.395 26.872 171.395 26.328C171.395 24.7707 172.403 23.992 174.419 23.992C175.379 23.992 176.126 24.1947 176.659 24.6C177.193 24.9947 177.459 25.5707 177.459 26.328C177.459 26.872 177.321 27.3893 177.043 27.88C176.766 28.36 176.446 28.856 176.083 29.368C175.721 29.8693 175.401 30.4187 175.123 31.016C174.846 31.6133 174.707 32.3067 174.707 33.096ZM174.531 32.84L174.339 33.352C173.593 33.1067 172.883 33.0213 172.211 33.096C171.55 33.16 170.915 33.288 170.307 33.48C169.71 33.672 169.134 33.8267 168.579 33.944C168.025 34.0507 167.486 34.0187 166.963 33.848C165.481 33.3573 165.054 32.168 165.683 30.28C165.982 29.384 166.398 28.7547 166.931 28.392C167.475 28.0187 168.11 27.9493 168.835 28.184C169.358 28.3547 169.811 28.6427 170.195 29.048C170.579 29.4533 170.963 29.9067 171.347 30.408C171.731 30.8987 172.169 31.368 172.659 31.816C173.161 32.264 173.785 32.6053 174.531 32.84ZM174.211 32.952L174.659 33.272C174.201 33.9013 173.902 34.5413 173.763 35.192C173.625 35.832 173.55 36.4667 173.539 37.096C173.539 37.7147 173.502 38.3013 173.427 38.856C173.363 39.4 173.171 39.8907 172.851 40.328C171.945 41.5973 170.665 41.6453 169.011 40.472C168.243 39.928 167.763 39.3413 167.571 38.712C167.379 38.0827 167.497 37.4587 167.923 36.84C168.254 36.392 168.675 36.056 169.187 35.832C169.71 35.5973 170.27 35.3787 170.867 35.176C171.465 34.9733 172.051 34.712 172.627 34.392C173.214 34.072 173.742 33.592 174.211 32.952ZM174.211 33.272L174.659 32.952C175.129 33.592 175.651 34.0773 176.227 34.408C176.814 34.728 177.406 34.9893 178.003 35.192C178.611 35.384 179.171 35.5973 179.683 35.832C180.195 36.056 180.617 36.392 180.947 36.84C181.843 38.0987 181.475 39.3093 179.843 40.472C179.086 41.0267 178.366 41.2987 177.683 41.288C177.011 41.2667 176.457 40.9467 176.019 40.328C175.699 39.8907 175.502 39.4 175.427 38.856C175.363 38.3013 175.326 37.7147 175.315 37.096C175.305 36.4667 175.235 35.832 175.107 35.192C174.979 34.5413 174.681 33.9013 174.211 33.272ZM174.339 32.84C175.097 32.6053 175.721 32.264 176.211 31.816C176.702 31.368 177.139 30.8987 177.523 30.408C177.907 29.9067 178.286 29.4533 178.659 29.048C179.043 28.6427 179.497 28.3547 180.019 28.184C181.513 27.7147 182.569 28.4187 183.187 30.296C183.475 31.1813 183.513 31.9333 183.299 32.552C183.097 33.1707 182.633 33.6027 181.907 33.848C181.385 34.0187 180.841 34.0507 180.275 33.944C179.721 33.8267 179.139 33.672 178.531 33.48C177.934 33.288 177.299 33.16 176.627 33.096C175.966 33.0213 175.267 33.1067 174.531 33.352L174.339 32.84ZM190.363 26.6H201.659C202.128 26.6 202.528 26.5627 202.859 26.488C203.189 26.4027 203.483 26.3227 203.739 26.248C204.005 26.1627 204.267 26.12 204.523 26.12C204.981 26.12 205.323 26.232 205.547 26.456C205.781 26.68 205.968 27.0693 206.107 27.624L207.131 33.16C207.205 33.5547 207.173 33.8693 207.035 34.104C206.896 34.3387 206.661 34.488 206.331 34.552C206.032 34.616 205.765 34.6 205.531 34.504C205.296 34.3973 205.093 34.1787 204.923 33.848C204.261 32.504 203.685 31.4693 203.195 30.744C202.715 30.008 202.261 29.496 201.835 29.208C201.419 28.92 200.971 28.776 200.491 28.776H199.691V45.768C199.691 46.0133 199.76 46.216 199.899 46.376C200.037 46.5253 200.24 46.648 200.507 46.744L201.147 46.968C201.648 47.16 201.899 47.512 201.899 48.024C201.899 48.6747 201.488 49 200.667 49H191.355C190.939 49 190.629 48.9147 190.427 48.744C190.224 48.5627 190.123 48.3227 190.123 48.024C190.123 47.512 190.379 47.16 190.891 46.968L191.531 46.744C191.808 46.648 192.011 46.5253 192.139 46.376C192.267 46.216 192.331 46.0133 192.331 45.768V28.776H191.547C191.077 28.776 190.629 28.9253 190.203 29.224C189.787 29.512 189.333 30.024 188.843 30.76C188.352 31.4853 187.771 32.5147 187.099 33.848C186.939 34.1787 186.741 34.3973 186.507 34.504C186.272 34.6 186 34.616 185.691 34.552C185.371 34.488 185.141 34.3387 185.003 34.104C184.864 33.8693 184.832 33.5547 184.907 33.16L185.915 27.624C186.064 27.0693 186.251 26.68 186.475 26.456C186.709 26.232 187.056 26.12 187.515 26.12C187.76 26.12 188.011 26.1627 188.267 26.248C188.533 26.3227 188.832 26.4027 189.163 26.488C189.504 26.5627 189.904 26.6 190.363 26.6ZM229.948 29.768C229.308 29.1707 228.663 28.7227 228.012 28.424C227.372 28.1253 226.556 27.976 225.564 27.976C224.583 27.976 223.746 28.1413 223.052 28.472C222.359 28.792 221.831 29.2613 221.468 29.88C221.106 30.488 220.924 31.2347 220.924 32.12C220.924 32.9947 221.143 33.6987 221.58 34.232C222.018 34.7653 222.567 35.2187 223.228 35.592C223.89 35.9547 224.562 36.3227 225.244 36.696C225.916 37.0693 226.551 37.496 227.148 37.976C227.746 38.4453 228.231 39.0373 228.604 39.752C228.978 40.4667 229.164 41.3733 229.164 42.472C229.164 43.816 228.818 45.0053 228.124 46.04C227.431 47.0747 226.45 47.88 225.18 48.456C223.922 49.032 222.439 49.32 220.732 49.32C219.698 49.32 218.78 49.24 217.98 49.08C217.191 48.9307 216.396 48.6693 215.596 48.296L215.42 42.712H216.012L218.396 48.264L217.468 47.416C218.023 47.6933 218.551 47.896 219.052 48.024C219.554 48.1413 220.124 48.2 220.764 48.2C222.076 48.2 223.186 48.008 224.092 47.624C225.01 47.24 225.708 46.68 226.188 45.944C226.668 45.1973 226.908 44.3013 226.908 43.256C226.908 42.4027 226.748 41.704 226.428 41.16C226.119 40.6053 225.714 40.1467 225.212 39.784C224.711 39.4107 224.178 39.0907 223.612 38.824C223.047 38.5573 222.519 38.28 222.028 37.992C221.388 37.608 220.823 37.208 220.332 36.792C219.842 36.3653 219.458 35.8533 219.18 35.256C218.914 34.6587 218.78 33.9227 218.78 33.048C218.78 31.864 219.074 30.808 219.66 29.88C220.258 28.9413 221.106 28.2053 222.204 27.672C223.314 27.1387 224.626 26.872 226.14 26.872C226.983 26.872 227.746 26.9467 228.428 27.096C229.122 27.2453 229.874 27.5013 230.684 27.864L229.548 27.72L231.772 26.28H232.044L230.78 33.672H230.204L229.1 28.344L229.948 29.768ZM236.168 41.256C236.168 43.5067 236.669 45.2133 237.672 46.376C238.685 47.5387 240.125 48.12 241.992 48.12C242.941 48.12 243.843 47.9547 244.696 47.624C245.549 47.2827 246.349 46.8133 247.096 46.216C247.843 45.608 248.515 44.8933 249.112 44.072C249.72 43.2507 250.237 42.3493 250.664 41.368C251.101 40.3867 251.432 39.352 251.656 38.264C251.891 37.1653 252.008 36.0507 252.008 34.92C252.008 32.68 251.501 30.9787 250.488 29.816C249.485 28.6533 248.051 28.072 246.184 28.072C245.245 28.072 244.344 28.2373 243.48 28.568C242.627 28.8987 241.827 29.368 241.08 29.976C240.333 30.584 239.656 31.2987 239.048 32.12C238.451 32.9413 237.933 33.8427 237.496 34.824C237.069 35.8053 236.739 36.84 236.504 37.928C236.28 39.016 236.168 40.1253 236.168 41.256ZM254.696 35.544C254.696 36.984 254.488 38.3813 254.072 39.736C253.656 41.0907 253.064 42.3493 252.296 43.512C251.528 44.664 250.616 45.6773 249.56 46.552C248.515 47.4267 247.352 48.1093 246.072 48.6C244.803 49.08 243.443 49.32 241.992 49.32C240.253 49.32 238.744 48.9733 237.464 48.28C236.195 47.5867 235.213 46.5947 234.52 45.304C233.837 44.0027 233.496 42.4507 233.496 40.648C233.496 39.1973 233.699 37.8 234.104 36.456C234.52 35.1013 235.112 33.848 235.88 32.696C236.648 31.5333 237.555 30.5147 238.6 29.64C239.656 28.7653 240.824 28.088 242.104 27.608C243.384 27.1173 244.744 26.872 246.184 26.872C247.923 26.872 249.427 27.2187 250.696 27.912C251.976 28.5947 252.963 29.5813 253.656 30.872C254.349 32.1627 254.696 33.72 254.696 35.544ZM265.154 28.456L258.914 49H253.874L254.034 48.472L256.69 47.736L262.562 28.424L260.226 27.72L260.402 27.192H267.986L267.81 27.72L265.154 28.456ZM266.29 48.04L271.33 42.824L271.826 43.128L268.466 49.928H268.258L266.594 49H257.522L257.938 47.72H267.474L266.29 48.04ZM280.864 47.72C282.347 47.72 283.718 47.5387 284.976 47.176C286.246 46.8027 287.382 46.264 288.384 45.56C289.387 44.856 290.235 43.9973 290.928 42.984C291.632 41.9707 292.171 40.824 292.544 39.544C292.928 38.264 293.12 36.8613 293.12 35.336C293.12 33.864 292.838 32.616 292.272 31.592C291.707 30.568 290.848 29.7893 289.696 29.256C288.555 28.7227 287.099 28.456 285.328 28.456H281.632L282.048 27.192H286.016C288.203 27.192 290.027 27.5067 291.488 28.136C292.96 28.7653 294.07 29.704 294.816 30.952C295.574 32.1893 295.952 33.7307 295.952 35.576C295.952 37.4107 295.622 39.1387 294.96 40.76C294.299 42.3813 293.323 43.8107 292.032 45.048C290.742 46.2747 289.152 47.24 287.264 47.944C285.387 48.648 283.222 49 280.768 49H275.36L275.776 47.72H280.864ZM280.624 28.424L278.288 27.72L278.464 27.192H283.6L276.976 49H271.936L272.096 48.472L274.752 47.736L280.624 28.424Z" fill="#42AF7E"/>
</svg>
