<svg width="396" height="233" viewBox="0 0 396 233" fill="none" xmlns="http://www.w3.org/2000/svg">
<rect y="14" width="396" height="184" rx="24" fill="#2A7BE8"/>
<path d="M201.142 117.533L201.125 117.525L201.072 117.496C200.761 117.325 200.452 117.15 200.146 116.97C196.468 114.784 193.03 112.216 189.89 109.309C184.329 104.12 178.438 96.4207 178.438 86.9377C178.438 79.8617 184.392 74.2502 191.579 74.2502C193.577 74.2404 195.552 74.6812 197.356 75.5397C199.16 76.3983 200.747 77.6525 202 79.2092C203.253 77.6522 204.841 76.3978 206.645 75.5392C208.45 74.6806 210.425 74.24 212.423 74.2502C219.608 74.2502 225.563 79.8617 225.563 86.9377C225.563 96.4231 219.671 104.123 214.11 109.306C210.97 112.214 207.532 114.781 203.854 116.967C203.548 117.148 203.239 117.324 202.928 117.496L202.875 117.525L202.858 117.535L202.851 117.538C202.589 117.676 202.297 117.749 202 117.749C201.703 117.749 201.411 117.676 201.149 117.538L201.142 117.533Z" fill="#F24545"/>
<path d="M121.369 64.572V76.632L123.979 77.388V78H115.843V77.388L118.525 76.632V64.77C118.333 64.602 118.045 64.416 117.661 64.212C117.289 64.008 116.695 63.732 115.879 63.384V62.97L120.739 61.206H121.009L121.369 64.572ZM131.449 65.976V76.632L134.041 77.388V78H125.995V77.388L128.605 76.632V66.84C128.605 66.156 128.467 65.592 128.191 65.148C127.915 64.692 127.519 64.35 127.003 64.122C126.499 63.894 125.893 63.78 125.185 63.78C124.357 63.78 123.553 63.924 122.773 64.212C122.005 64.5 121.435 64.848 121.063 65.256L120.559 64.644C121.255 63.996 121.885 63.456 122.449 63.024C123.013 62.592 123.553 62.25 124.069 61.998C124.585 61.734 125.095 61.548 125.599 61.44C126.103 61.332 126.643 61.278 127.219 61.278C128.227 61.278 129.043 61.482 129.667 61.89C130.291 62.298 130.741 62.856 131.017 63.564C131.305 64.272 131.449 65.076 131.449 65.976ZM141.529 66.678V76.632L144.247 77.388V78H136.075V77.388L138.685 76.632V66.84C138.685 66.156 138.547 65.592 138.271 65.148C137.995 64.692 137.599 64.35 137.083 64.122C136.579 63.894 135.973 63.78 135.265 63.78C134.437 63.78 133.633 63.924 132.853 64.212C132.085 64.5 131.515 64.848 131.143 65.256L130.639 64.644C131.335 63.996 131.965 63.456 132.529 63.024C133.093 62.592 133.633 62.25 134.149 61.998C134.665 61.734 135.175 61.548 135.679 61.44C136.183 61.332 136.723 61.278 137.299 61.278C138.799 61.278 139.879 61.734 140.539 62.646C141.199 63.558 141.529 64.902 141.529 66.678ZM156.081 67.488L156.351 68.586C154.839 68.97 153.609 69.354 152.661 69.738C151.713 70.122 150.975 70.512 150.447 70.908C149.931 71.292 149.571 71.706 149.367 72.15C149.175 72.582 149.079 73.056 149.079 73.572C149.079 74.46 149.337 75.138 149.853 75.606C150.381 76.062 151.023 76.29 151.779 76.29C152.379 76.29 152.919 76.152 153.399 75.876C153.891 75.588 154.281 75.204 154.569 74.724C154.857 74.232 155.001 73.68 155.001 73.068V65.994C155.001 65.01 154.749 64.242 154.245 63.69C153.753 63.126 152.961 62.844 151.869 62.844C151.425 62.844 150.945 62.898 150.429 63.006C149.925 63.114 149.469 63.27 149.061 63.474L149.997 62.682C149.961 63.054 149.907 63.432 149.835 63.816C149.763 64.2 149.679 64.548 149.583 64.86C149.487 65.16 149.367 65.388 149.223 65.544C149.043 65.748 148.803 65.898 148.503 65.994C148.215 66.09 147.915 66.138 147.603 66.138C147.219 66.138 146.907 66.054 146.667 65.886C146.439 65.706 146.325 65.466 146.325 65.166C146.325 64.758 146.529 64.332 146.937 63.888C147.345 63.444 147.873 63.036 148.521 62.664C149.181 62.28 149.907 61.974 150.699 61.746C151.491 61.506 152.277 61.386 153.057 61.386C154.209 61.386 155.133 61.56 155.829 61.908C156.537 62.244 157.047 62.736 157.359 63.384C157.683 64.032 157.845 64.818 157.845 65.742V74.778C157.845 75.162 157.899 75.48 158.007 75.732C158.127 75.972 158.295 76.152 158.511 76.272C158.727 76.392 158.991 76.452 159.303 76.452C159.615 76.452 159.945 76.392 160.293 76.272C160.641 76.152 160.989 75.984 161.337 75.768V76.488C160.713 77.196 160.101 77.682 159.501 77.946C158.913 78.21 158.343 78.342 157.791 78.342C157.167 78.342 156.651 78.204 156.243 77.928C155.835 77.64 155.529 77.238 155.325 76.722C155.121 76.194 155.013 75.57 155.001 74.85L155.091 74.724C154.923 75.432 154.617 76.062 154.173 76.614C153.741 77.154 153.219 77.58 152.607 77.892C151.995 78.204 151.335 78.36 150.627 78.36C149.331 78.36 148.257 78.006 147.405 77.298C146.553 76.578 146.127 75.546 146.127 74.202C146.127 73.494 146.259 72.858 146.523 72.294C146.799 71.718 147.291 71.178 147.999 70.674C148.719 70.158 149.733 69.648 151.041 69.144C152.349 68.628 154.029 68.076 156.081 67.488ZM175.02 66.228C175.02 65.172 174.636 64.296 173.868 63.6C173.112 62.904 172.068 62.556 170.736 62.556C169.632 62.556 168.69 62.838 167.91 63.402C167.13 63.966 166.542 64.77 166.146 65.814C165.75 66.858 165.552 68.118 165.552 69.594C165.552 71.046 165.762 72.27 166.182 73.266C166.602 74.25 167.202 74.994 167.982 75.498C168.774 75.99 169.716 76.236 170.808 76.236C171.756 76.236 172.656 76.08 173.508 75.768C174.372 75.456 175.206 74.952 176.01 74.256L176.1 75.228C175.272 75.852 174.546 76.374 173.922 76.794C173.31 77.202 172.752 77.52 172.248 77.748C171.756 77.976 171.294 78.132 170.862 78.216C170.43 78.312 169.986 78.36 169.53 78.36C168.006 78.36 166.704 78.036 165.624 77.388C164.556 76.74 163.74 75.834 163.176 74.67C162.624 73.506 162.348 72.162 162.348 70.638C162.348 69.174 162.576 67.866 163.032 66.714C163.488 65.55 164.124 64.566 164.94 63.762C165.756 62.946 166.704 62.328 167.784 61.908C168.864 61.488 170.016 61.278 171.24 61.278C171.864 61.278 172.476 61.326 173.076 61.422C173.688 61.518 174.306 61.668 174.93 61.872C175.554 62.076 176.184 62.346 176.82 62.682L175.02 63.528V55.158C174.876 55.014 174.672 54.864 174.408 54.708C174.144 54.552 173.844 54.396 173.508 54.24C173.184 54.084 172.848 53.928 172.5 53.772V53.448L177.81 52.062H178.062L177.864 54.942V75.714C177.972 75.81 178.128 75.912 178.332 76.02C178.536 76.128 178.758 76.236 178.998 76.344C179.238 76.452 179.472 76.554 179.7 76.65C179.94 76.734 180.156 76.794 180.348 76.83V77.316L175.452 78.342H175.182L175.02 75.678V66.228ZM189.862 61.278C191.05 61.278 192.082 61.536 192.958 62.052C193.846 62.568 194.548 63.324 195.064 64.32C195.592 65.316 195.916 66.54 196.036 67.992H184.714L184.75 66.84L194.218 66.552L192.94 67.29C192.844 66.282 192.658 65.424 192.382 64.716C192.106 64.008 191.734 63.468 191.266 63.096C190.798 62.712 190.21 62.52 189.502 62.52C188.614 62.52 187.84 62.766 187.18 63.258C186.532 63.75 186.028 64.476 185.668 65.436C185.308 66.384 185.128 67.536 185.128 68.892C185.128 70.452 185.386 71.766 185.902 72.834C186.43 73.902 187.168 74.706 188.116 75.246C189.076 75.786 190.21 76.056 191.518 76.056C192.046 76.056 192.562 75.99 193.066 75.858C193.57 75.714 194.056 75.504 194.524 75.228C195.004 74.94 195.442 74.592 195.838 74.184L196.234 74.58C195.586 75.468 194.926 76.194 194.254 76.758C193.594 77.31 192.892 77.718 192.148 77.982C191.416 78.234 190.624 78.36 189.772 78.36C188.32 78.36 187.024 78.018 185.884 77.334C184.744 76.65 183.844 75.69 183.184 74.454C182.524 73.206 182.194 71.742 182.194 70.062C182.194 68.466 182.5 67.002 183.112 65.67C183.724 64.338 184.6 63.276 185.74 62.484C186.892 61.68 188.266 61.278 189.862 61.278ZM227.379 62.97L224.931 62.34V61.638H230.943V62.34L228.873 62.97L224.067 78.396H223.347L217.425 65.076H218.217L212.655 78.396H211.935L206.895 63.132L204.645 62.34V61.638H212.349V62.34L209.919 63.06L213.645 74.67L212.925 74.886L218.289 61.206H218.883L224.805 74.58L224.067 74.886L227.379 62.97ZM236.029 56.616C235.357 56.616 234.811 56.394 234.391 55.95C233.983 55.494 233.779 54.96 233.779 54.348C233.779 53.736 233.983 53.22 234.391 52.8C234.811 52.368 235.357 52.152 236.029 52.152C236.713 52.152 237.253 52.368 237.649 52.8C238.057 53.22 238.261 53.736 238.261 54.348C238.261 54.96 238.057 55.494 237.649 55.95C237.253 56.394 236.713 56.616 236.029 56.616ZM237.757 61.206L237.685 64.32V76.632L240.403 77.388V78H232.141V77.388L234.823 76.632V64.626C234.691 64.506 234.487 64.362 234.211 64.194C233.935 64.014 233.623 63.834 233.275 63.654C232.927 63.474 232.567 63.306 232.195 63.15V62.682L237.505 61.206H237.757ZM246.704 73.554C246.704 74.382 246.956 75.006 247.46 75.426C247.976 75.846 248.684 76.056 249.584 76.056C250.04 76.056 250.526 76.014 251.042 75.93C251.57 75.834 252.152 75.69 252.788 75.498V76.236C251.96 76.788 251.252 77.214 250.664 77.514C250.088 77.814 249.578 78.024 249.134 78.144C248.69 78.264 248.246 78.324 247.802 78.324C247.046 78.324 246.368 78.174 245.768 77.874C245.18 77.574 244.712 77.118 244.364 76.506C244.016 75.882 243.842 75.102 243.842 74.166V64.014L241.79 62.646V62.358C242.006 62.202 242.24 62.034 242.492 61.854C242.744 61.662 243.014 61.464 243.302 61.26C243.59 61.056 243.89 60.84 244.202 60.612C244.514 60.372 244.844 60.126 245.192 59.874C245.54 59.622 245.9 59.364 246.272 59.1H246.704V62.214V73.554ZM245.642 63.384V61.638H252.284L251.996 63.384H245.642ZM264.288 77.388L267.006 76.632V67.11C267.006 66.402 266.868 65.802 266.592 65.31C266.316 64.818 265.902 64.44 265.35 64.176C264.798 63.912 264.108 63.78 263.28 63.78C262.332 63.78 261.444 63.942 260.616 64.266C259.788 64.59 259.176 64.962 258.78 65.382L258.24 64.86C258.972 64.176 259.644 63.606 260.256 63.15C260.868 62.682 261.444 62.31 261.984 62.034C262.536 61.758 263.082 61.566 263.622 61.458C264.162 61.338 264.738 61.278 265.35 61.278C266.898 61.278 268.038 61.746 268.77 62.682C269.502 63.606 269.868 65.082 269.868 67.11V76.632L272.568 77.388V78H264.288V77.388ZM261.768 78H253.506V77.388L256.188 76.632V55.5C256.032 55.344 255.822 55.182 255.558 55.014C255.306 54.846 254.994 54.666 254.622 54.474C254.25 54.282 253.83 54.084 253.362 53.88V53.538L258.906 52.062H259.176L259.05 57.732V76.632L261.768 77.388V78ZM61.4517 123.956L63.4497 123.776L60.3537 125.396L59.9037 125.216L60.4077 121.184V102.59C60.2517 102.434 60.0417 102.266 59.7777 102.086C59.5257 101.894 59.2197 101.696 58.8597 101.492C58.4997 101.288 58.0857 101.072 57.6177 100.844V100.52L63.1437 99.062H63.4497L63.2517 101.978V120.41C63.2517 121.106 63.4317 121.73 63.7917 122.282C64.1637 122.834 64.6797 123.272 65.3397 123.596C66.0117 123.92 66.7857 124.082 67.6617 124.082C68.7297 124.082 69.6417 123.8 70.3977 123.236C71.1537 122.672 71.7297 121.862 72.1257 120.806C72.5217 119.75 72.7197 118.496 72.7197 117.044C72.7197 115.592 72.5097 114.374 72.0897 113.39C71.6697 112.394 71.0637 111.644 70.2717 111.14C69.4917 110.636 68.5557 110.384 67.4637 110.384C66.7677 110.384 66.1077 110.45 65.4837 110.582C64.8597 110.714 64.2717 110.918 63.7197 111.194C63.1677 111.458 62.6457 111.812 62.1537 112.256L62.0637 111.284C62.7597 110.732 63.4137 110.27 64.0257 109.898C64.6497 109.514 65.2317 109.202 65.7717 108.962C66.3237 108.722 66.8517 108.548 67.3557 108.44C67.8597 108.332 68.3397 108.278 68.7957 108.278C70.3317 108.278 71.6277 108.602 72.6837 109.25C73.7397 109.898 74.5437 110.804 75.0957 111.968C75.6477 113.12 75.9237 114.458 75.9237 115.982C75.9237 117.422 75.7017 118.718 75.2577 119.87C74.8137 121.022 74.1837 122.006 73.3677 122.822C72.5637 123.638 71.6097 124.268 70.5057 124.712C69.4137 125.144 68.2077 125.36 66.8877 125.36C66.3237 125.36 65.7417 125.312 65.1417 125.216C64.5537 125.12 63.9477 124.97 63.3237 124.766C62.7117 124.562 62.0877 124.292 61.4517 123.956ZM87.5332 122.066L86.0032 125.594L78.8392 110.132L76.5892 109.34V108.638H84.3832V109.34L81.9532 110.06L87.5332 122.066ZM80.6212 134.144C79.9612 134.144 79.4092 133.964 78.9652 133.604C78.5332 133.256 78.3172 132.764 78.3172 132.128C78.3172 131.804 78.3772 131.522 78.4972 131.282C78.6172 131.054 78.7792 130.874 78.9832 130.742C79.1992 130.622 79.4152 130.562 79.6312 130.562C79.8472 130.562 80.0632 130.622 80.2792 130.742C80.4952 130.862 80.7352 130.982 80.9992 131.102C81.2632 131.222 81.5632 131.282 81.8992 131.282C82.2472 131.282 82.5592 131.216 82.8352 131.084C83.1232 130.964 83.3932 130.73 83.6452 130.382C83.8972 130.046 84.1492 129.566 84.4012 128.942L86.3092 124.19L87.1372 122.012L91.3492 109.97L88.8832 109.34V108.638H94.9312V109.34L92.8972 109.97L85.8412 128.564C85.3012 130.004 84.7612 131.126 84.2212 131.93C83.6932 132.746 83.1352 133.316 82.5472 133.64C81.9712 133.976 81.3292 134.144 80.6212 134.144ZM113.714 124.388L116.432 123.632V114.11C116.432 113.402 116.294 112.802 116.018 112.31C115.742 111.818 115.328 111.44 114.776 111.176C114.224 110.912 113.534 110.78 112.706 110.78C111.758 110.78 110.87 110.942 110.042 111.266C109.214 111.59 108.602 111.962 108.206 112.382L107.666 111.86C108.398 111.176 109.07 110.606 109.682 110.15C110.294 109.682 110.87 109.31 111.41 109.034C111.962 108.758 112.508 108.566 113.048 108.458C113.588 108.338 114.164 108.278 114.776 108.278C116.324 108.278 117.464 108.746 118.196 109.682C118.928 110.606 119.294 112.082 119.294 114.11V123.632L121.994 124.388V125H113.714V124.388ZM111.194 125H102.932V124.388L105.614 123.632V102.5C105.458 102.344 105.248 102.182 104.984 102.014C104.732 101.846 104.42 101.666 104.048 101.474C103.676 101.282 103.256 101.084 102.788 100.88V100.538L108.332 99.062H108.602L108.476 104.732V123.632L111.194 124.388V125ZM131.83 124.172C132.826 124.172 133.69 123.92 134.422 123.416C135.154 122.9 135.724 122.12 136.132 121.076C136.54 120.02 136.744 118.7 136.744 117.116C136.744 115.448 136.54 114.05 136.132 112.922C135.736 111.782 135.166 110.924 134.422 110.348C133.69 109.76 132.814 109.466 131.794 109.466C130.798 109.466 129.934 109.724 129.202 110.24C128.47 110.744 127.9 111.518 127.492 112.562C127.084 113.606 126.88 114.926 126.88 116.522C126.88 118.178 127.078 119.576 127.474 120.716C127.882 121.856 128.452 122.72 129.184 123.308C129.928 123.884 130.81 124.172 131.83 124.172ZM131.758 125.36C130.198 125.36 128.806 125.006 127.582 124.298C126.37 123.578 125.416 122.582 124.72 121.31C124.024 120.038 123.676 118.58 123.676 116.936C123.676 115.256 124.036 113.762 124.756 112.454C125.488 111.146 126.466 110.126 127.69 109.394C128.926 108.65 130.318 108.278 131.866 108.278C133.438 108.278 134.83 108.638 136.042 109.358C137.254 110.066 138.208 111.056 138.904 112.328C139.6 113.588 139.948 115.046 139.948 116.702C139.948 118.382 139.582 119.876 138.85 121.184C138.13 122.48 137.152 123.5 135.916 124.244C134.68 124.988 133.294 125.36 131.758 125.36ZM147.071 120.554C147.071 121.382 147.323 122.006 147.827 122.426C148.343 122.846 149.051 123.056 149.951 123.056C150.407 123.056 150.893 123.014 151.409 122.93C151.937 122.834 152.519 122.69 153.155 122.498V123.236C152.327 123.788 151.619 124.214 151.031 124.514C150.455 124.814 149.945 125.024 149.501 125.144C149.057 125.264 148.613 125.324 148.169 125.324C147.413 125.324 146.735 125.174 146.135 124.874C145.547 124.574 145.079 124.118 144.731 123.506C144.383 122.882 144.209 122.102 144.209 121.166V111.014L142.157 109.646V109.358C142.373 109.202 142.607 109.034 142.859 108.854C143.111 108.662 143.381 108.464 143.669 108.26C143.957 108.056 144.257 107.84 144.569 107.612C144.881 107.372 145.211 107.126 145.559 106.874C145.907 106.622 146.267 106.364 146.639 106.1H147.071V109.214V120.554ZM146.009 110.384V108.638H152.651L152.363 110.384H146.009ZM169.213 134.144C167.977 134.144 166.891 134.042 165.955 133.838C165.031 133.646 164.257 133.364 163.633 132.992C163.009 132.62 162.541 132.176 162.229 131.66C161.917 131.144 161.761 130.562 161.761 129.914C161.761 129.434 161.881 128.978 162.121 128.546C162.373 128.114 162.763 127.706 163.291 127.322C163.819 126.95 164.503 126.602 165.343 126.278C166.195 125.966 167.221 125.684 168.421 125.432H169.429V125.828C168.145 126.032 167.137 126.32 166.405 126.692C165.673 127.064 165.151 127.496 164.839 127.988C164.539 128.492 164.389 129.038 164.389 129.626C164.389 130.346 164.581 130.958 164.965 131.462C165.361 131.978 165.949 132.368 166.729 132.632C167.521 132.908 168.499 133.046 169.663 133.046C170.875 133.046 171.919 132.878 172.795 132.542C173.671 132.206 174.343 131.75 174.811 131.174C175.279 130.61 175.513 129.992 175.513 129.32C175.513 128.828 175.399 128.408 175.171 128.06C174.943 127.724 174.571 127.436 174.055 127.196C173.551 126.968 172.885 126.782 172.057 126.638C171.229 126.506 170.209 126.398 168.997 126.314C167.881 126.23 166.963 126.08 166.243 125.864C165.523 125.648 164.959 125.378 164.551 125.054C164.143 124.742 163.855 124.388 163.687 123.992C163.531 123.584 163.453 123.152 163.453 122.696C163.453 121.844 163.843 121.124 164.623 120.536C165.403 119.948 166.453 119.504 167.773 119.204L168.169 119.564C167.449 119.636 166.915 119.846 166.567 120.194C166.231 120.53 166.063 120.938 166.063 121.418C166.063 121.718 166.117 121.988 166.225 122.228C166.345 122.468 166.567 122.678 166.891 122.858C167.215 123.038 167.695 123.194 168.331 123.326C168.979 123.446 169.831 123.548 170.887 123.632C172.039 123.716 173.059 123.866 173.947 124.082C174.835 124.286 175.585 124.574 176.197 124.946C176.821 125.306 177.289 125.75 177.601 126.278C177.925 126.818 178.087 127.46 178.087 128.204C178.087 129.236 177.739 130.202 177.043 131.102C176.359 132.014 175.351 132.746 174.019 133.298C172.699 133.862 171.097 134.144 169.213 134.144ZM169.357 119.888C168.145 119.888 167.047 119.642 166.063 119.15C165.079 118.646 164.299 117.956 163.723 117.08C163.147 116.204 162.859 115.208 162.859 114.092C162.859 112.952 163.147 111.944 163.723 111.068C164.299 110.192 165.079 109.508 166.063 109.016C167.047 108.524 168.145 108.278 169.357 108.278C170.281 108.278 171.139 108.422 171.931 108.71C172.723 108.986 173.413 109.388 174.001 109.916C174.601 110.444 175.063 111.062 175.387 111.77C175.723 112.466 175.891 113.234 175.891 114.074C175.891 115.202 175.603 116.204 175.027 117.08C174.451 117.956 173.671 118.646 172.687 119.15C171.703 119.642 170.593 119.888 169.357 119.888ZM169.645 118.88C170.725 118.832 171.541 118.37 172.093 117.494C172.657 116.606 172.909 115.454 172.849 114.038C172.789 112.55 172.417 111.38 171.733 110.528C171.061 109.664 170.173 109.25 169.069 109.286C168.037 109.322 167.233 109.778 166.657 110.654C166.093 111.53 165.835 112.682 165.883 114.11C165.943 115.574 166.309 116.744 166.981 117.62C167.665 118.496 168.553 118.916 169.645 118.88ZM171.607 109.358L170.977 108.494C172.021 108.614 172.915 108.668 173.659 108.656C174.415 108.644 175.057 108.602 175.585 108.53C176.113 108.446 176.569 108.368 176.953 108.296C177.349 108.212 177.709 108.17 178.033 108.17C178.381 108.17 178.651 108.272 178.843 108.476C179.035 108.68 179.131 108.998 179.131 109.43C179.131 109.97 178.963 110.408 178.627 110.744C178.303 111.08 177.931 111.248 177.511 111.248C177.199 111.248 176.893 111.158 176.593 110.978C176.293 110.786 175.939 110.57 175.531 110.33C175.135 110.09 174.619 109.874 173.983 109.682C173.359 109.49 172.567 109.382 171.607 109.358ZM183.786 103.616C183.114 103.616 182.568 103.394 182.148 102.95C181.74 102.494 181.536 101.96 181.536 101.348C181.536 100.736 181.74 100.22 182.148 99.8C182.568 99.368 183.114 99.152 183.786 99.152C184.47 99.152 185.01 99.368 185.406 99.8C185.814 100.22 186.018 100.736 186.018 101.348C186.018 101.96 185.814 102.494 185.406 102.95C185.01 103.394 184.47 103.616 183.786 103.616ZM185.514 108.206L185.442 111.32V123.632L188.16 124.388V125H179.898V124.388L182.58 123.632V111.626C182.448 111.506 182.244 111.362 181.968 111.194C181.692 111.014 181.38 110.834 181.032 110.654C180.684 110.474 180.324 110.306 179.952 110.15V109.682L185.262 108.206H185.514ZM200.456 108.368C201.044 108.368 201.482 108.518 201.77 108.818C202.058 109.106 202.202 109.49 202.202 109.97C202.202 110.546 202.016 111.008 201.644 111.356C201.284 111.704 200.804 111.878 200.204 111.878C199.94 111.878 199.67 111.836 199.394 111.752C199.13 111.656 198.848 111.566 198.548 111.482C198.26 111.398 197.936 111.356 197.576 111.356C197.276 111.356 196.964 111.404 196.64 111.5C196.316 111.596 195.992 111.728 195.668 111.896C195.356 112.064 195.068 112.262 194.804 112.49L194.534 111.806C195.302 111.134 195.986 110.582 196.586 110.15C197.198 109.706 197.738 109.352 198.206 109.088C198.674 108.824 199.088 108.638 199.448 108.53C199.82 108.422 200.156 108.368 200.456 108.368ZM195.092 111.572V123.632L197.936 124.388V125H189.566V124.388L192.248 123.632V111.77C192.092 111.626 191.894 111.488 191.654 111.356C191.414 111.224 191.12 111.08 190.772 110.924C190.436 110.756 190.046 110.576 189.602 110.384V109.97L194.696 108.206H194.984L195.092 111.572ZM208.339 123.632L211.057 124.388V125H202.795V124.388L205.477 123.632V102.5C205.321 102.344 205.111 102.182 204.847 102.014C204.595 101.846 204.283 101.666 203.911 101.474C203.539 101.282 203.119 101.084 202.651 100.88V100.538L208.195 99.062H208.465L208.339 102.032V123.632ZM218.967 108.278C219.687 108.278 220.341 108.35 220.929 108.494C221.517 108.638 222.159 108.884 222.855 109.232L223.215 113.714H222.513L220.569 109.16L221.847 110.708C221.331 110.24 220.845 109.904 220.389 109.7C219.945 109.484 219.429 109.376 218.841 109.376C217.893 109.376 217.149 109.592 216.609 110.024C216.069 110.444 215.799 111.038 215.799 111.806C215.799 112.37 215.937 112.844 216.213 113.228C216.501 113.612 216.921 113.966 217.473 114.29C218.025 114.602 218.715 114.932 219.543 115.28C220.155 115.544 220.713 115.832 221.217 116.144C221.721 116.456 222.147 116.81 222.495 117.206C222.855 117.602 223.131 118.058 223.323 118.574C223.527 119.09 223.629 119.69 223.629 120.374C223.629 121.406 223.359 122.3 222.819 123.056C222.291 123.8 221.577 124.37 220.677 124.766C219.777 125.162 218.763 125.36 217.635 125.36C216.867 125.36 216.177 125.294 215.565 125.162C214.965 125.042 214.371 124.844 213.783 124.568L212.901 119.78H213.675L216.285 124.73L214.521 123.47C214.929 123.686 215.289 123.86 215.601 123.992C215.925 124.112 216.231 124.196 216.519 124.244C216.807 124.28 217.101 124.298 217.401 124.298C218.505 124.298 219.411 124.052 220.119 123.56C220.839 123.056 221.199 122.3 221.199 121.292C221.199 120.812 221.097 120.398 220.893 120.05C220.689 119.69 220.401 119.372 220.029 119.096C219.657 118.82 219.219 118.562 218.715 118.322C218.223 118.07 217.689 117.818 217.113 117.566C216.345 117.218 215.691 116.834 215.151 116.414C214.611 115.982 214.197 115.466 213.909 114.866C213.633 114.266 213.495 113.558 213.495 112.742C213.495 111.794 213.735 110.99 214.215 110.33C214.707 109.658 215.367 109.148 216.195 108.8C217.023 108.452 217.947 108.278 218.967 108.278ZM241.002 134.144C239.766 134.144 238.68 134.042 237.744 133.838C236.82 133.646 236.046 133.364 235.422 132.992C234.798 132.62 234.33 132.176 234.018 131.66C233.706 131.144 233.55 130.562 233.55 129.914C233.55 129.434 233.67 128.978 233.91 128.546C234.162 128.114 234.552 127.706 235.08 127.322C235.608 126.95 236.292 126.602 237.132 126.278C237.984 125.966 239.01 125.684 240.21 125.432H241.218V125.828C239.934 126.032 238.926 126.32 238.194 126.692C237.462 127.064 236.94 127.496 236.628 127.988C236.328 128.492 236.178 129.038 236.178 129.626C236.178 130.346 236.37 130.958 236.754 131.462C237.15 131.978 237.738 132.368 238.518 132.632C239.31 132.908 240.288 133.046 241.452 133.046C242.664 133.046 243.708 132.878 244.584 132.542C245.46 132.206 246.132 131.75 246.6 131.174C247.068 130.61 247.302 129.992 247.302 129.32C247.302 128.828 247.188 128.408 246.96 128.06C246.732 127.724 246.36 127.436 245.844 127.196C245.34 126.968 244.674 126.782 243.846 126.638C243.018 126.506 241.998 126.398 240.786 126.314C239.67 126.23 238.752 126.08 238.032 125.864C237.312 125.648 236.748 125.378 236.34 125.054C235.932 124.742 235.644 124.388 235.476 123.992C235.32 123.584 235.242 123.152 235.242 122.696C235.242 121.844 235.632 121.124 236.412 120.536C237.192 119.948 238.242 119.504 239.562 119.204L239.958 119.564C239.238 119.636 238.704 119.846 238.356 120.194C238.02 120.53 237.852 120.938 237.852 121.418C237.852 121.718 237.906 121.988 238.014 122.228C238.134 122.468 238.356 122.678 238.68 122.858C239.004 123.038 239.484 123.194 240.12 123.326C240.768 123.446 241.62 123.548 242.676 123.632C243.828 123.716 244.848 123.866 245.736 124.082C246.624 124.286 247.374 124.574 247.986 124.946C248.61 125.306 249.078 125.75 249.39 126.278C249.714 126.818 249.876 127.46 249.876 128.204C249.876 129.236 249.528 130.202 248.832 131.102C248.148 132.014 247.14 132.746 245.808 133.298C244.488 133.862 242.886 134.144 241.002 134.144ZM241.146 119.888C239.934 119.888 238.836 119.642 237.852 119.15C236.868 118.646 236.088 117.956 235.512 117.08C234.936 116.204 234.648 115.208 234.648 114.092C234.648 112.952 234.936 111.944 235.512 111.068C236.088 110.192 236.868 109.508 237.852 109.016C238.836 108.524 239.934 108.278 241.146 108.278C242.07 108.278 242.928 108.422 243.72 108.71C244.512 108.986 245.202 109.388 245.79 109.916C246.39 110.444 246.852 111.062 247.176 111.77C247.512 112.466 247.68 113.234 247.68 114.074C247.68 115.202 247.392 116.204 246.816 117.08C246.24 117.956 245.46 118.646 244.476 119.15C243.492 119.642 242.382 119.888 241.146 119.888ZM241.434 118.88C242.514 118.832 243.33 118.37 243.882 117.494C244.446 116.606 244.698 115.454 244.638 114.038C244.578 112.55 244.206 111.38 243.522 110.528C242.85 109.664 241.962 109.25 240.858 109.286C239.826 109.322 239.022 109.778 238.446 110.654C237.882 111.53 237.624 112.682 237.672 114.11C237.732 115.574 238.098 116.744 238.77 117.62C239.454 118.496 240.342 118.916 241.434 118.88ZM243.396 109.358L242.766 108.494C243.81 108.614 244.704 108.668 245.448 108.656C246.204 108.644 246.846 108.602 247.374 108.53C247.902 108.446 248.358 108.368 248.742 108.296C249.138 108.212 249.498 108.17 249.822 108.17C250.17 108.17 250.44 108.272 250.632 108.476C250.824 108.68 250.92 108.998 250.92 109.43C250.92 109.97 250.752 110.408 250.416 110.744C250.092 111.08 249.72 111.248 249.3 111.248C248.988 111.248 248.682 111.158 248.382 110.978C248.082 110.786 247.728 110.57 247.32 110.33C246.924 110.09 246.408 109.874 245.772 109.682C245.148 109.49 244.356 109.382 243.396 109.358ZM259.19 108.278C260.378 108.278 261.41 108.536 262.286 109.052C263.174 109.568 263.876 110.324 264.392 111.32C264.92 112.316 265.244 113.54 265.364 114.992H254.042L254.078 113.84L263.546 113.552L262.268 114.29C262.172 113.282 261.986 112.424 261.71 111.716C261.434 111.008 261.062 110.468 260.594 110.096C260.126 109.712 259.538 109.52 258.83 109.52C257.942 109.52 257.168 109.766 256.508 110.258C255.86 110.75 255.356 111.476 254.996 112.436C254.636 113.384 254.456 114.536 254.456 115.892C254.456 117.452 254.714 118.766 255.23 119.834C255.758 120.902 256.496 121.706 257.444 122.246C258.404 122.786 259.538 123.056 260.846 123.056C261.374 123.056 261.89 122.99 262.394 122.858C262.898 122.714 263.384 122.504 263.852 122.228C264.332 121.94 264.77 121.592 265.166 121.184L265.562 121.58C264.914 122.468 264.254 123.194 263.582 123.758C262.922 124.31 262.22 124.718 261.476 124.982C260.744 125.234 259.952 125.36 259.1 125.36C257.648 125.36 256.352 125.018 255.212 124.334C254.072 123.65 253.172 122.69 252.512 121.454C251.852 120.206 251.522 118.742 251.522 117.062C251.522 115.466 251.828 114.002 252.44 112.67C253.052 111.338 253.928 110.276 255.068 109.484C256.22 108.68 257.594 108.278 259.19 108.278ZM272.403 120.554C272.403 121.382 272.655 122.006 273.159 122.426C273.675 122.846 274.383 123.056 275.283 123.056C275.739 123.056 276.225 123.014 276.741 122.93C277.269 122.834 277.851 122.69 278.487 122.498V123.236C277.659 123.788 276.951 124.214 276.363 124.514C275.787 124.814 275.277 125.024 274.833 125.144C274.389 125.264 273.945 125.324 273.501 125.324C272.745 125.324 272.067 125.174 271.467 124.874C270.879 124.574 270.411 124.118 270.063 123.506C269.715 122.882 269.541 122.102 269.541 121.166V111.014L267.489 109.646V109.358C267.705 109.202 267.939 109.034 268.191 108.854C268.443 108.662 268.713 108.464 269.001 108.26C269.289 108.056 269.589 107.84 269.901 107.612C270.213 107.372 270.543 107.126 270.891 106.874C271.239 106.622 271.599 106.364 271.971 106.1H272.403V109.214V120.554ZM271.341 110.384V108.638H277.983L277.695 110.384H271.341ZM284.462 120.554C284.462 121.382 284.714 122.006 285.218 122.426C285.734 122.846 286.442 123.056 287.342 123.056C287.798 123.056 288.284 123.014 288.8 122.93C289.328 122.834 289.91 122.69 290.546 122.498V123.236C289.718 123.788 289.01 124.214 288.422 124.514C287.846 124.814 287.336 125.024 286.892 125.144C286.448 125.264 286.004 125.324 285.56 125.324C284.804 125.324 284.126 125.174 283.526 124.874C282.938 124.574 282.47 124.118 282.122 123.506C281.774 122.882 281.6 122.102 281.6 121.166V111.014L279.548 109.646V109.358C279.764 109.202 279.998 109.034 280.25 108.854C280.502 108.662 280.772 108.464 281.06 108.26C281.348 108.056 281.648 107.84 281.96 107.612C282.272 107.372 282.602 107.126 282.95 106.874C283.298 106.622 283.658 106.364 284.03 106.1H284.462V109.214V120.554ZM283.4 110.384V108.638H290.042L289.754 110.384H283.4ZM295.548 103.616C294.876 103.616 294.33 103.394 293.91 102.95C293.502 102.494 293.298 101.96 293.298 101.348C293.298 100.736 293.502 100.22 293.91 99.8C294.33 99.368 294.876 99.152 295.548 99.152C296.232 99.152 296.772 99.368 297.168 99.8C297.576 100.22 297.78 100.736 297.78 101.348C297.78 101.96 297.576 102.494 297.168 102.95C296.772 103.394 296.232 103.616 295.548 103.616ZM297.276 108.206L297.204 111.32V123.632L299.922 124.388V125H291.66V124.388L294.342 123.632V111.626C294.21 111.506 294.006 111.362 293.73 111.194C293.454 111.014 293.142 110.834 292.794 110.654C292.446 110.474 292.086 110.306 291.714 110.15V109.682L297.024 108.206H297.276ZM306.853 111.572V123.632L309.571 124.388V125H301.327V124.388L304.009 123.632V111.77C303.817 111.602 303.529 111.416 303.145 111.212C302.773 111.008 302.179 110.732 301.363 110.384V109.97L306.223 108.206H306.493L306.853 111.572ZM312.091 124.388L314.809 123.632V114.11C314.809 113.402 314.671 112.802 314.395 112.31C314.119 111.818 313.705 111.44 313.153 111.176C312.601 110.912 311.911 110.78 311.083 110.78C310.135 110.78 309.247 110.942 308.419 111.266C307.603 111.59 306.997 111.962 306.601 112.382L306.043 111.86C306.787 111.176 307.459 110.606 308.059 110.15C308.671 109.682 309.247 109.31 309.787 109.034C310.339 108.758 310.885 108.566 311.425 108.458C311.977 108.338 312.553 108.278 313.153 108.278C314.713 108.278 315.853 108.746 316.573 109.682C317.305 110.606 317.671 112.082 317.671 114.11V123.632L320.371 124.388V125H312.091V124.388ZM328.47 134.144C327.234 134.144 326.148 134.042 325.212 133.838C324.288 133.646 323.514 133.364 322.89 132.992C322.266 132.62 321.798 132.176 321.486 131.66C321.174 131.144 321.018 130.562 321.018 129.914C321.018 129.434 321.138 128.978 321.378 128.546C321.63 128.114 322.02 127.706 322.548 127.322C323.076 126.95 323.76 126.602 324.6 126.278C325.452 125.966 326.478 125.684 327.678 125.432H328.686V125.828C327.402 126.032 326.394 126.32 325.662 126.692C324.93 127.064 324.408 127.496 324.096 127.988C323.796 128.492 323.646 129.038 323.646 129.626C323.646 130.346 323.838 130.958 324.222 131.462C324.618 131.978 325.206 132.368 325.986 132.632C326.778 132.908 327.756 133.046 328.92 133.046C330.132 133.046 331.176 132.878 332.052 132.542C332.928 132.206 333.6 131.75 334.068 131.174C334.536 130.61 334.77 129.992 334.77 129.32C334.77 128.828 334.656 128.408 334.428 128.06C334.2 127.724 333.828 127.436 333.312 127.196C332.808 126.968 332.142 126.782 331.314 126.638C330.486 126.506 329.466 126.398 328.254 126.314C327.138 126.23 326.22 126.08 325.5 125.864C324.78 125.648 324.216 125.378 323.808 125.054C323.4 124.742 323.112 124.388 322.944 123.992C322.788 123.584 322.71 123.152 322.71 122.696C322.71 121.844 323.1 121.124 323.88 120.536C324.66 119.948 325.71 119.504 327.03 119.204L327.426 119.564C326.706 119.636 326.172 119.846 325.824 120.194C325.488 120.53 325.32 120.938 325.32 121.418C325.32 121.718 325.374 121.988 325.482 122.228C325.602 122.468 325.824 122.678 326.148 122.858C326.472 123.038 326.952 123.194 327.588 123.326C328.236 123.446 329.088 123.548 330.144 123.632C331.296 123.716 332.316 123.866 333.204 124.082C334.092 124.286 334.842 124.574 335.454 124.946C336.078 125.306 336.546 125.75 336.858 126.278C337.182 126.818 337.344 127.46 337.344 128.204C337.344 129.236 336.996 130.202 336.3 131.102C335.616 132.014 334.608 132.746 333.276 133.298C331.956 133.862 330.354 134.144 328.47 134.144ZM328.614 119.888C327.402 119.888 326.304 119.642 325.32 119.15C324.336 118.646 323.556 117.956 322.98 117.08C322.404 116.204 322.116 115.208 322.116 114.092C322.116 112.952 322.404 111.944 322.98 111.068C323.556 110.192 324.336 109.508 325.32 109.016C326.304 108.524 327.402 108.278 328.614 108.278C329.538 108.278 330.396 108.422 331.188 108.71C331.98 108.986 332.67 109.388 333.258 109.916C333.858 110.444 334.32 111.062 334.644 111.77C334.98 112.466 335.148 113.234 335.148 114.074C335.148 115.202 334.86 116.204 334.284 117.08C333.708 117.956 332.928 118.646 331.944 119.15C330.96 119.642 329.85 119.888 328.614 119.888ZM328.902 118.88C329.982 118.832 330.798 118.37 331.35 117.494C331.914 116.606 332.166 115.454 332.106 114.038C332.046 112.55 331.674 111.38 330.99 110.528C330.318 109.664 329.43 109.25 328.326 109.286C327.294 109.322 326.49 109.778 325.914 110.654C325.35 111.53 325.092 112.682 325.14 114.11C325.2 115.574 325.566 116.744 326.238 117.62C326.922 118.496 327.81 118.916 328.902 118.88ZM330.864 109.358L330.234 108.494C331.278 108.614 332.172 108.668 332.916 108.656C333.672 108.644 334.314 108.602 334.842 108.53C335.37 108.446 335.826 108.368 336.21 108.296C336.606 108.212 336.966 108.17 337.29 108.17C337.638 108.17 337.908 108.272 338.1 108.476C338.292 108.68 338.388 108.998 338.388 109.43C338.388 109.97 338.22 110.408 337.884 110.744C337.56 111.08 337.188 111.248 336.768 111.248C336.456 111.248 336.15 111.158 335.85 110.978C335.55 110.786 335.196 110.57 334.788 110.33C334.392 110.09 333.876 109.874 333.24 109.682C332.616 109.49 331.824 109.382 330.864 109.358ZM127.485 168.256C127.605 168.52 127.731 168.796 127.863 169.084C128.007 169.372 128.223 169.726 128.511 170.146C128.799 170.578 129.087 170.872 129.375 171.028C129.663 171.184 129.963 171.262 130.275 171.262C130.839 171.262 131.337 171.166 131.769 170.974C132.201 170.77 132.537 170.476 132.777 170.092C133.017 169.708 133.137 169.246 133.137 168.706C133.137 168.346 133.071 167.974 132.939 167.59C132.819 167.206 132.603 166.774 132.291 166.294C131.991 165.814 131.565 165.25 131.013 164.602C130.473 163.954 130.047 163.372 129.735 162.856C129.435 162.328 129.219 161.842 129.087 161.398C128.967 160.954 128.907 160.522 128.907 160.102C128.907 159.214 129.123 158.404 129.555 157.672C129.987 156.94 130.605 156.358 131.409 155.926C132.225 155.494 133.191 155.278 134.307 155.278C135.123 155.278 135.783 155.38 136.287 155.584C136.791 155.788 137.157 156.064 137.385 156.412C137.613 156.748 137.727 157.138 137.727 157.582C137.727 157.882 137.655 158.152 137.511 158.392C137.379 158.62 137.175 158.8 136.899 158.932C136.623 159.064 136.275 159.13 135.855 159.13C135.795 158.842 135.699 158.578 135.567 158.338C135.435 158.098 135.237 157.798 134.973 157.438C134.709 157.078 134.427 156.814 134.127 156.646C133.827 156.466 133.515 156.376 133.191 156.376C132.459 156.376 131.883 156.574 131.463 156.97C131.043 157.366 130.833 157.924 130.833 158.644C130.833 158.944 130.893 159.274 131.013 159.634C131.145 159.982 131.361 160.396 131.661 160.876C131.961 161.344 132.375 161.92 132.903 162.604C133.431 163.264 133.851 163.87 134.163 164.422C134.475 164.962 134.697 165.466 134.829 165.934C134.973 166.39 135.045 166.834 135.045 167.266C135.045 168.238 134.787 169.108 134.271 169.876C133.767 170.644 133.077 171.25 132.201 171.694C131.325 172.138 130.329 172.36 129.213 172.36C128.337 172.36 127.623 172.246 127.071 172.018C126.519 171.802 126.111 171.508 125.847 171.136C125.595 170.752 125.469 170.344 125.469 169.912C125.469 169.576 125.547 169.282 125.703 169.03C125.859 168.778 126.087 168.586 126.387 168.454C126.687 168.322 127.053 168.256 127.485 168.256ZM139.872 156.898L140.178 155.638H149.448L149.178 156.898H139.872ZM142.212 168.058C142.152 168.274 142.098 168.466 142.05 168.634C142.014 168.79 141.984 168.928 141.96 169.048C141.948 169.168 141.942 169.276 141.942 169.372C141.942 169.576 141.99 169.726 142.086 169.822C142.182 169.918 142.314 169.966 142.482 169.966C142.746 169.966 143.1 169.834 143.544 169.57C143.988 169.306 144.504 168.904 145.092 168.364C145.68 167.812 146.304 167.104 146.964 166.24L147.504 166.6C146.856 167.596 146.232 168.454 145.632 169.174C145.044 169.894 144.48 170.488 143.94 170.956C143.412 171.424 142.908 171.772 142.428 172C141.948 172.228 141.492 172.342 141.06 172.342C140.544 172.342 140.118 172.192 139.782 171.892C139.458 171.58 139.296 171.058 139.296 170.326C139.296 170.026 139.326 169.666 139.386 169.246C139.458 168.826 139.596 168.274 139.8 167.59L144.39 152.074H147L142.212 168.058ZM158.366 171.208L160.238 165.142H160.382C159.506 166.618 158.72 167.83 158.024 168.778C157.328 169.714 156.68 170.446 156.08 170.974C155.492 171.49 154.928 171.85 154.388 172.054C153.86 172.258 153.326 172.36 152.786 172.36C151.862 172.36 151.202 172.15 150.806 171.73C150.41 171.31 150.212 170.764 150.212 170.092C150.212 169.72 150.266 169.3 150.374 168.832C150.494 168.352 150.662 167.83 150.878 167.266L154.73 157.006L155.18 157.708C154.832 157.648 154.394 157.708 153.866 157.888C153.338 158.056 152.75 158.368 152.102 158.824C151.454 159.28 150.77 159.904 150.05 160.696L149.6 160.282C150.512 159.046 151.352 158.062 152.12 157.33C152.888 156.598 153.608 156.076 154.28 155.764C154.952 155.44 155.582 155.278 156.17 155.278C156.746 155.278 157.154 155.386 157.394 155.602C157.646 155.818 157.682 156.154 157.502 156.61L153.308 167.68C153.2 167.968 153.116 168.232 153.056 168.472C152.996 168.7 152.966 168.904 152.966 169.084C152.966 169.408 153.068 169.654 153.272 169.822C153.488 169.978 153.818 170.056 154.262 170.056C154.766 170.056 155.336 169.84 155.972 169.408C156.608 168.964 157.244 168.364 157.88 167.608C158.528 166.852 159.122 165.988 159.662 165.016C160.214 164.044 160.658 163.024 160.994 161.956L163.028 155.638H165.638L160.922 170.524L160.832 169.984C161.204 170.056 161.648 170.008 162.164 169.84C162.68 169.66 163.244 169.36 163.856 168.94C164.48 168.52 165.122 167.974 165.782 167.302L166.16 167.716C164.828 169.48 163.646 170.698 162.614 171.37C161.594 172.03 160.67 172.36 159.842 172.36C159.206 172.36 158.774 172.258 158.546 172.054C158.318 171.862 158.258 171.58 158.366 171.208ZM168.061 156.898L168.295 155.638H178.537L178.285 156.898H168.061ZM171.679 168.256C171.175 170.656 170.587 172.678 169.915 174.322C169.255 175.978 168.529 177.304 167.737 178.3C166.957 179.308 166.129 180.034 165.253 180.478C164.365 180.922 163.453 181.144 162.517 181.144C161.545 181.144 160.807 180.946 160.303 180.55C159.799 180.154 159.547 179.638 159.547 179.002C159.547 178.57 159.691 178.18 159.979 177.832C160.267 177.484 160.639 177.31 161.095 177.31C161.419 177.31 161.683 177.424 161.887 177.652C162.079 177.88 162.235 178.204 162.355 178.624C162.487 179.056 162.673 179.35 162.913 179.506C163.141 179.674 163.405 179.758 163.705 179.758C164.185 179.758 164.647 179.626 165.091 179.362C165.523 179.11 165.943 178.654 166.351 177.994C166.759 177.334 167.155 176.416 167.539 175.24C167.935 174.064 168.319 172.558 168.691 170.722L171.877 155.404C172.297 153.376 172.951 151.672 173.839 150.292C174.739 148.9 175.813 147.85 177.061 147.142C178.321 146.422 179.701 146.062 181.201 146.062C182.029 146.062 182.713 146.164 183.253 146.368C183.805 146.572 184.219 146.842 184.495 147.178C184.771 147.514 184.909 147.904 184.909 148.348C184.909 148.864 184.735 149.296 184.387 149.644C184.039 149.98 183.571 150.148 182.983 150.148C182.623 150.148 182.341 149.98 182.137 149.644C181.933 149.308 181.759 148.93 181.615 148.51C181.483 148.078 181.279 147.766 181.003 147.574C180.727 147.37 180.367 147.268 179.923 147.268C179.131 147.268 178.411 147.49 177.763 147.934C177.115 148.366 176.545 149.038 176.053 149.95C175.573 150.862 175.177 152.032 174.865 153.46L171.679 168.256ZM178.432 156.898L178.666 155.638H188.908L188.656 156.898H178.432ZM182.05 168.256C181.546 170.656 180.958 172.678 180.286 174.322C179.626 175.978 178.9 177.304 178.108 178.3C177.328 179.308 176.5 180.034 175.624 180.478C174.736 180.922 173.824 181.144 172.888 181.144C171.916 181.144 171.178 180.946 170.674 180.55C170.17 180.154 169.918 179.638 169.918 179.002C169.918 178.57 170.062 178.18 170.35 177.832C170.638 177.484 171.01 177.31 171.466 177.31C171.79 177.31 172.054 177.424 172.258 177.652C172.45 177.88 172.606 178.204 172.726 178.624C172.858 179.056 173.044 179.35 173.284 179.506C173.512 179.674 173.776 179.758 174.076 179.758C174.556 179.758 175.018 179.626 175.462 179.362C175.894 179.11 176.314 178.654 176.722 177.994C177.13 177.334 177.526 176.416 177.91 175.24C178.306 174.064 178.69 172.558 179.062 170.722L182.248 155.404C182.668 153.376 183.322 151.672 184.21 150.292C185.11 148.9 186.184 147.85 187.432 147.142C188.692 146.422 190.072 146.062 191.572 146.062C192.4 146.062 193.084 146.164 193.624 146.368C194.176 146.572 194.59 146.842 194.866 147.178C195.142 147.514 195.28 147.904 195.28 148.348C195.28 148.864 195.106 149.296 194.758 149.644C194.41 149.98 193.942 150.148 193.354 150.148C192.994 150.148 192.712 149.98 192.508 149.644C192.304 149.308 192.13 148.93 191.986 148.51C191.854 148.078 191.65 147.766 191.374 147.574C191.098 147.37 190.738 147.268 190.294 147.268C189.502 147.268 188.782 147.49 188.134 147.934C187.486 148.366 186.916 149.038 186.424 149.95C185.944 150.862 185.548 152.032 185.236 153.46L182.05 168.256ZM208.876 160.228C208.876 159.172 208.492 158.296 207.724 157.6C206.968 156.904 205.924 156.556 204.592 156.556C203.488 156.556 202.546 156.838 201.766 157.402C200.986 157.966 200.398 158.77 200.002 159.814C199.606 160.858 199.408 162.118 199.408 163.594C199.408 165.046 199.618 166.27 200.038 167.266C200.458 168.25 201.058 168.994 201.838 169.498C202.63 169.99 203.572 170.236 204.664 170.236C205.612 170.236 206.512 170.08 207.364 169.768C208.228 169.456 209.062 168.952 209.866 168.256L209.956 169.228C209.128 169.852 208.402 170.374 207.778 170.794C207.166 171.202 206.608 171.52 206.104 171.748C205.612 171.976 205.15 172.132 204.718 172.216C204.286 172.312 203.842 172.36 203.386 172.36C201.862 172.36 200.56 172.036 199.48 171.388C198.412 170.74 197.596 169.834 197.032 168.67C196.48 167.506 196.204 166.162 196.204 164.638C196.204 163.174 196.432 161.866 196.888 160.714C197.344 159.55 197.98 158.566 198.796 157.762C199.612 156.946 200.56 156.328 201.64 155.908C202.72 155.488 203.872 155.278 205.096 155.278C205.72 155.278 206.332 155.326 206.932 155.422C207.544 155.518 208.162 155.668 208.786 155.872C209.41 156.076 210.04 156.346 210.676 156.682L208.876 157.528V149.158C208.732 149.014 208.528 148.864 208.264 148.708C208 148.552 207.7 148.396 207.364 148.24C207.04 148.084 206.704 147.928 206.356 147.772V147.448L211.666 146.062H211.918L211.72 148.942V169.714C211.828 169.81 211.984 169.912 212.188 170.02C212.392 170.128 212.614 170.236 212.854 170.344C213.094 170.452 213.328 170.554 213.556 170.65C213.796 170.734 214.012 170.794 214.204 170.83V171.316L209.308 172.342H209.038L208.876 169.678V160.228ZM224.185 171.172C225.181 171.172 226.045 170.92 226.777 170.416C227.509 169.9 228.079 169.12 228.487 168.076C228.895 167.02 229.099 165.7 229.099 164.116C229.099 162.448 228.895 161.05 228.487 159.922C228.091 158.782 227.521 157.924 226.777 157.348C226.045 156.76 225.169 156.466 224.149 156.466C223.153 156.466 222.289 156.724 221.557 157.24C220.825 157.744 220.255 158.518 219.847 159.562C219.439 160.606 219.235 161.926 219.235 163.522C219.235 165.178 219.433 166.576 219.829 167.716C220.237 168.856 220.807 169.72 221.539 170.308C222.283 170.884 223.165 171.172 224.185 171.172ZM224.113 172.36C222.553 172.36 221.161 172.006 219.937 171.298C218.725 170.578 217.771 169.582 217.075 168.31C216.379 167.038 216.031 165.58 216.031 163.936C216.031 162.256 216.391 160.762 217.111 159.454C217.843 158.146 218.821 157.126 220.045 156.394C221.281 155.65 222.673 155.278 224.221 155.278C225.793 155.278 227.185 155.638 228.397 156.358C229.609 157.066 230.563 158.056 231.259 159.328C231.955 160.588 232.303 162.046 232.303 163.702C232.303 165.382 231.937 166.876 231.205 168.184C230.485 169.48 229.507 170.5 228.271 171.244C227.035 171.988 225.649 172.36 224.113 172.36ZM240.056 158.572V170.632L242.774 171.388V172H234.53V171.388L237.212 170.632V158.77C237.02 158.602 236.732 158.416 236.348 158.212C235.976 158.008 235.382 157.732 234.566 157.384V156.97L239.426 155.206H239.696L240.056 158.572ZM245.294 171.388L248.012 170.632V161.11C248.012 160.402 247.874 159.802 247.598 159.31C247.322 158.818 246.908 158.44 246.356 158.176C245.804 157.912 245.114 157.78 244.286 157.78C243.338 157.78 242.45 157.942 241.622 158.266C240.806 158.59 240.2 158.962 239.804 159.382L239.246 158.86C239.99 158.176 240.662 157.606 241.262 157.15C241.874 156.682 242.45 156.31 242.99 156.034C243.542 155.758 244.088 155.566 244.628 155.458C245.18 155.338 245.756 155.278 246.356 155.278C247.916 155.278 249.056 155.746 249.776 156.682C250.508 157.606 250.874 159.082 250.874 161.11V170.632L253.574 171.388V172H245.294V171.388ZM262.952 155.278C264.14 155.278 265.172 155.536 266.048 156.052C266.936 156.568 267.638 157.324 268.154 158.32C268.682 159.316 269.006 160.54 269.126 161.992H257.804L257.84 160.84L267.308 160.552L266.03 161.29C265.934 160.282 265.748 159.424 265.472 158.716C265.196 158.008 264.824 157.468 264.356 157.096C263.888 156.712 263.3 156.52 262.592 156.52C261.704 156.52 260.93 156.766 260.27 157.258C259.622 157.75 259.118 158.476 258.758 159.436C258.398 160.384 258.218 161.536 258.218 162.892C258.218 164.452 258.476 165.766 258.992 166.834C259.52 167.902 260.258 168.706 261.206 169.246C262.166 169.786 263.3 170.056 264.608 170.056C265.136 170.056 265.652 169.99 266.156 169.858C266.66 169.714 267.146 169.504 267.614 169.228C268.094 168.94 268.532 168.592 268.928 168.184L269.324 168.58C268.676 169.468 268.016 170.194 267.344 170.758C266.684 171.31 265.982 171.718 265.238 171.982C264.506 172.234 263.714 172.36 262.862 172.36C261.41 172.36 260.114 172.018 258.974 171.334C257.834 170.65 256.934 169.69 256.274 168.454C255.614 167.206 255.284 165.742 255.284 164.062C255.284 162.466 255.59 161.002 256.202 159.67C256.814 158.338 257.69 157.276 258.83 156.484C259.982 155.68 261.356 155.278 262.952 155.278Z" fill="white"/>
</svg>
