<svg width="375" height="130" viewBox="0 0 375 130" fill="none" xmlns="http://www.w3.org/2000/svg">
<rect x="25" y="76" width="332" height="35" fill="#F24545"/>
<rect x="25" y="11" width="332" height="35" fill="#2A7BE8"/>
<rect x="25" y="41" width="332" height="35" fill="#42AF7E"/>
<path d="M48.2513 23.616C47.5793 23.616 47.0333 23.394 46.6133 22.95C46.2053 22.494 46.0013 21.96 46.0013 21.348C46.0013 20.736 46.2053 20.22 46.6133 19.8C47.0333 19.368 47.5793 19.152 48.2513 19.152C48.9353 19.152 49.4753 19.368 49.8713 19.8C50.2793 20.22 50.4833 20.736 50.4833 21.348C50.4833 21.96 50.2793 22.494 49.8713 22.95C49.4753 23.394 48.9353 23.616 48.2513 23.616ZM49.9793 28.206L49.9073 31.32V43.632L52.6253 44.388V45H44.3633V44.388L47.0453 43.632V31.626C46.9133 31.506 46.7093 31.362 46.4333 31.194C46.1573 31.014 45.8453 30.834 45.4973 30.654C45.1493 30.474 44.7893 30.306 44.4173 30.15V29.682L49.7273 28.206H49.9793ZM83.2309 29.97L80.7829 29.34V28.638H86.7949V29.34L84.7249 29.97L79.9189 45.396H79.1989L73.2769 32.076H74.0689L68.5069 45.396H67.7869L62.7469 30.132L60.4969 29.34V28.638H68.2009V29.34L65.7709 30.06L69.4969 41.67L68.7769 41.886L74.1409 28.206H74.7349L80.6569 41.58L79.9189 41.886L83.2309 29.97ZM97.8894 34.488L98.1594 35.586C96.6474 35.97 95.4174 36.354 94.4694 36.738C93.5214 37.122 92.7834 37.512 92.2554 37.908C91.7394 38.292 91.3794 38.706 91.1754 39.15C90.9834 39.582 90.8874 40.056 90.8874 40.572C90.8874 41.46 91.1454 42.138 91.6614 42.606C92.1894 43.062 92.8314 43.29 93.5874 43.29C94.1874 43.29 94.7274 43.152 95.2074 42.876C95.6994 42.588 96.0894 42.204 96.3774 41.724C96.6654 41.232 96.8094 40.68 96.8094 40.068V32.994C96.8094 32.01 96.5574 31.242 96.0534 30.69C95.5614 30.126 94.7694 29.844 93.6774 29.844C93.2334 29.844 92.7534 29.898 92.2374 30.006C91.7334 30.114 91.2774 30.27 90.8694 30.474L91.8054 29.682C91.7694 30.054 91.7154 30.432 91.6434 30.816C91.5714 31.2 91.4874 31.548 91.3914 31.86C91.2954 32.16 91.1754 32.388 91.0314 32.544C90.8514 32.748 90.6114 32.898 90.3114 32.994C90.0234 33.09 89.7234 33.138 89.4114 33.138C89.0274 33.138 88.7154 33.054 88.4754 32.886C88.2474 32.706 88.1334 32.466 88.1334 32.166C88.1334 31.758 88.3374 31.332 88.7454 30.888C89.1534 30.444 89.6814 30.036 90.3294 29.664C90.9894 29.28 91.7154 28.974 92.5074 28.746C93.2994 28.506 94.0854 28.386 94.8654 28.386C96.0174 28.386 96.9414 28.56 97.6374 28.908C98.3454 29.244 98.8554 29.736 99.1674 30.384C99.4914 31.032 99.6534 31.818 99.6534 32.742V41.778C99.6534 42.162 99.7074 42.48 99.8154 42.732C99.9354 42.972 100.103 43.152 100.319 43.272C100.535 43.392 100.799 43.452 101.111 43.452C101.423 43.452 101.753 43.392 102.101 43.272C102.449 43.152 102.797 42.984 103.145 42.768V43.488C102.521 44.196 101.909 44.682 101.309 44.946C100.721 45.21 100.151 45.342 99.5994 45.342C98.9754 45.342 98.4594 45.204 98.0514 44.928C97.6434 44.64 97.3374 44.238 97.1334 43.722C96.9294 43.194 96.8214 42.57 96.8094 41.85L96.8994 41.724C96.7314 42.432 96.4254 43.062 95.9814 43.614C95.5494 44.154 95.0274 44.58 94.4154 44.892C93.8034 45.204 93.1434 45.36 92.4354 45.36C91.1394 45.36 90.0654 45.006 89.2134 44.298C88.3614 43.578 87.9354 42.546 87.9354 41.202C87.9354 40.494 88.0674 39.858 88.3314 39.294C88.6074 38.718 89.0994 38.178 89.8074 37.674C90.5274 37.158 91.5414 36.648 92.8494 36.144C94.1574 35.628 95.8374 35.076 97.8894 34.488ZM109.303 31.572V43.632L112.021 44.388V45H103.777V44.388L106.459 43.632V31.77C106.267 31.602 105.979 31.416 105.595 31.212C105.223 31.008 104.629 30.732 103.813 30.384V29.97L108.673 28.206H108.943L109.303 31.572ZM114.541 44.388L117.259 43.632V34.11C117.259 33.402 117.121 32.802 116.845 32.31C116.569 31.818 116.155 31.44 115.603 31.176C115.051 30.912 114.361 30.78 113.533 30.78C112.585 30.78 111.697 30.942 110.869 31.266C110.053 31.59 109.447 31.962 109.051 32.382L108.493 31.86C109.237 31.176 109.909 30.606 110.509 30.15C111.121 29.682 111.697 29.31 112.237 29.034C112.789 28.758 113.335 28.566 113.875 28.458C114.427 28.338 115.003 28.278 115.603 28.278C117.163 28.278 118.303 28.746 119.023 29.682C119.755 30.606 120.121 32.082 120.121 34.11V43.632L122.821 44.388V45H114.541V44.388ZM128.958 40.554C128.958 41.382 129.21 42.006 129.714 42.426C130.23 42.846 130.938 43.056 131.838 43.056C132.294 43.056 132.78 43.014 133.296 42.93C133.824 42.834 134.406 42.69 135.042 42.498V43.236C134.214 43.788 133.506 44.214 132.918 44.514C132.342 44.814 131.832 45.024 131.388 45.144C130.944 45.264 130.5 45.324 130.056 45.324C129.3 45.324 128.622 45.174 128.022 44.874C127.434 44.574 126.966 44.118 126.618 43.506C126.27 42.882 126.096 42.102 126.096 41.166V31.014L124.044 29.646V29.358C124.26 29.202 124.494 29.034 124.746 28.854C124.998 28.662 125.268 28.464 125.556 28.26C125.844 28.056 126.144 27.84 126.456 27.612C126.768 27.372 127.098 27.126 127.446 26.874C127.794 26.622 128.154 26.364 128.526 26.1H128.958V29.214V40.554ZM127.896 30.384V28.638H134.538L134.25 30.384H127.896ZM153.619 42.066L152.089 45.594L144.925 30.132L142.675 29.34V28.638H150.469V29.34L148.039 30.06L153.619 42.066ZM146.707 54.144C146.047 54.144 145.495 53.964 145.051 53.604C144.619 53.256 144.403 52.764 144.403 52.128C144.403 51.804 144.463 51.522 144.583 51.282C144.703 51.054 144.865 50.874 145.069 50.742C145.285 50.622 145.501 50.562 145.717 50.562C145.933 50.562 146.149 50.622 146.365 50.742C146.581 50.862 146.821 50.982 147.085 51.102C147.349 51.222 147.649 51.282 147.985 51.282C148.333 51.282 148.645 51.216 148.921 51.084C149.209 50.964 149.479 50.73 149.731 50.382C149.983 50.046 150.235 49.566 150.487 48.942L152.395 44.19L153.223 42.012L157.435 29.97L154.969 29.34V28.638H161.017V29.34L158.983 29.97L151.927 48.564C151.387 50.004 150.847 51.126 150.307 51.93C149.779 52.746 149.221 53.316 148.633 53.64C148.057 53.976 147.415 54.144 146.707 54.144ZM169.861 44.172C170.857 44.172 171.721 43.92 172.453 43.416C173.185 42.9 173.755 42.12 174.163 41.076C174.571 40.02 174.775 38.7 174.775 37.116C174.775 35.448 174.571 34.05 174.163 32.922C173.767 31.782 173.197 30.924 172.453 30.348C171.721 29.76 170.845 29.466 169.825 29.466C168.829 29.466 167.965 29.724 167.233 30.24C166.501 30.744 165.931 31.518 165.523 32.562C165.115 33.606 164.911 34.926 164.911 36.522C164.911 38.178 165.109 39.576 165.505 40.716C165.913 41.856 166.483 42.72 167.215 43.308C167.959 43.884 168.841 44.172 169.861 44.172ZM169.789 45.36C168.229 45.36 166.837 45.006 165.613 44.298C164.401 43.578 163.447 42.582 162.751 41.31C162.055 40.038 161.707 38.58 161.707 36.936C161.707 35.256 162.067 33.762 162.787 32.454C163.519 31.146 164.497 30.126 165.721 29.394C166.957 28.65 168.349 28.278 169.897 28.278C171.469 28.278 172.861 28.638 174.073 29.358C175.285 30.066 176.239 31.056 176.935 32.328C177.631 33.588 177.979 35.046 177.979 36.702C177.979 38.382 177.613 39.876 176.881 41.184C176.161 42.48 175.183 43.5 173.947 44.244C172.711 44.988 171.325 45.36 169.789 45.36ZM185.228 39.726C185.228 40.482 185.342 41.094 185.57 41.562C185.798 42.018 186.17 42.354 186.686 42.57C187.202 42.786 187.892 42.894 188.756 42.894C189.62 42.894 190.448 42.744 191.24 42.444C192.032 42.132 192.62 41.76 193.004 41.328L193.544 41.922C192.836 42.582 192.194 43.134 191.618 43.578C191.042 44.022 190.496 44.376 189.98 44.64C189.476 44.904 188.972 45.09 188.468 45.198C187.964 45.306 187.418 45.36 186.83 45.36C185.294 45.36 184.166 44.898 183.446 43.974C182.726 43.038 182.366 41.622 182.366 39.726V30.294L179.594 29.376V28.674L185.39 28.404L185.228 30.276V39.726ZM192.734 45.342L192.554 42.03V30.294L189.782 29.376V28.674L195.614 28.404L195.434 30.276V42.714C195.542 42.81 195.692 42.912 195.884 43.02C196.088 43.128 196.31 43.236 196.55 43.344C196.79 43.452 197.024 43.554 197.252 43.65C197.492 43.734 197.708 43.794 197.9 43.83V44.316L193.004 45.342H192.734ZM210.292 28.368C210.88 28.368 211.318 28.518 211.606 28.818C211.894 29.106 212.038 29.49 212.038 29.97C212.038 30.546 211.852 31.008 211.48 31.356C211.12 31.704 210.64 31.878 210.04 31.878C209.776 31.878 209.506 31.836 209.23 31.752C208.966 31.656 208.684 31.566 208.384 31.482C208.096 31.398 207.772 31.356 207.412 31.356C207.112 31.356 206.8 31.404 206.476 31.5C206.152 31.596 205.828 31.728 205.504 31.896C205.192 32.064 204.904 32.262 204.64 32.49L204.37 31.806C205.138 31.134 205.822 30.582 206.422 30.15C207.034 29.706 207.574 29.352 208.042 29.088C208.51 28.824 208.924 28.638 209.284 28.53C209.656 28.422 209.992 28.368 210.292 28.368ZM204.928 31.572V43.632L207.772 44.388V45H199.402V44.388L202.084 43.632V31.77C201.928 31.626 201.73 31.488 201.49 31.356C201.25 31.224 200.956 31.08 200.608 30.924C200.272 30.756 199.882 30.576 199.438 30.384V29.97L204.532 28.206H204.82L204.928 31.572ZM227.01 28.278C227.73 28.278 228.384 28.35 228.972 28.494C229.56 28.638 230.202 28.884 230.898 29.232L231.258 33.714H230.556L228.612 29.16L229.89 30.708C229.374 30.24 228.888 29.904 228.432 29.7C227.988 29.484 227.472 29.376 226.884 29.376C225.936 29.376 225.192 29.592 224.652 30.024C224.112 30.444 223.842 31.038 223.842 31.806C223.842 32.37 223.98 32.844 224.256 33.228C224.544 33.612 224.964 33.966 225.516 34.29C226.068 34.602 226.758 34.932 227.586 35.28C228.198 35.544 228.756 35.832 229.26 36.144C229.764 36.456 230.19 36.81 230.538 37.206C230.898 37.602 231.174 38.058 231.366 38.574C231.57 39.09 231.672 39.69 231.672 40.374C231.672 41.406 231.402 42.3 230.862 43.056C230.334 43.8 229.62 44.37 228.72 44.766C227.82 45.162 226.806 45.36 225.678 45.36C224.91 45.36 224.22 45.294 223.608 45.162C223.008 45.042 222.414 44.844 221.826 44.568L220.944 39.78H221.718L224.328 44.73L222.564 43.47C222.972 43.686 223.332 43.86 223.644 43.992C223.968 44.112 224.274 44.196 224.562 44.244C224.85 44.28 225.144 44.298 225.444 44.298C226.548 44.298 227.454 44.052 228.162 43.56C228.882 43.056 229.242 42.3 229.242 41.292C229.242 40.812 229.14 40.398 228.936 40.05C228.732 39.69 228.444 39.372 228.072 39.096C227.7 38.82 227.262 38.562 226.758 38.322C226.266 38.07 225.732 37.818 225.156 37.566C224.388 37.218 223.734 36.834 223.194 36.414C222.654 35.982 222.24 35.466 221.952 34.866C221.676 34.266 221.538 33.558 221.538 32.742C221.538 31.794 221.778 30.99 222.258 30.33C222.75 29.658 223.41 29.148 224.238 28.8C225.066 28.452 225.99 28.278 227.01 28.278ZM238.962 40.554C238.962 41.382 239.214 42.006 239.718 42.426C240.234 42.846 240.942 43.056 241.842 43.056C242.298 43.056 242.784 43.014 243.3 42.93C243.828 42.834 244.41 42.69 245.046 42.498V43.236C244.218 43.788 243.51 44.214 242.922 44.514C242.346 44.814 241.836 45.024 241.392 45.144C240.948 45.264 240.504 45.324 240.06 45.324C239.304 45.324 238.626 45.174 238.026 44.874C237.438 44.574 236.97 44.118 236.622 43.506C236.274 42.882 236.1 42.102 236.1 41.166V31.014L234.048 29.646V29.358C234.264 29.202 234.498 29.034 234.75 28.854C235.002 28.662 235.272 28.464 235.56 28.26C235.848 28.056 236.148 27.84 236.46 27.612C236.772 27.372 237.102 27.126 237.45 26.874C237.798 26.622 238.158 26.364 238.53 26.1H238.962V29.214V40.554ZM237.9 30.384V28.638H244.542L244.254 30.384H237.9ZM251.146 39.726C251.146 40.482 251.26 41.094 251.488 41.562C251.716 42.018 252.088 42.354 252.604 42.57C253.12 42.786 253.81 42.894 254.674 42.894C255.538 42.894 256.366 42.744 257.158 42.444C257.95 42.132 258.538 41.76 258.922 41.328L259.462 41.922C258.754 42.582 258.112 43.134 257.536 43.578C256.96 44.022 256.414 44.376 255.898 44.64C255.394 44.904 254.89 45.09 254.386 45.198C253.882 45.306 253.336 45.36 252.748 45.36C251.212 45.36 250.084 44.898 249.364 43.974C248.644 43.038 248.284 41.622 248.284 39.726V30.294L245.512 29.376V28.674L251.308 28.404L251.146 30.276V39.726ZM258.652 45.342L258.472 42.03V30.294L255.7 29.376V28.674L261.532 28.404L261.352 30.276V42.714C261.46 42.81 261.61 42.912 261.802 43.02C262.006 43.128 262.228 43.236 262.468 43.344C262.708 43.452 262.942 43.554 263.17 43.65C263.41 43.734 263.626 43.794 263.818 43.83V44.316L258.922 45.342H258.652ZM268.938 30.384L268.218 30.762L265.086 30.24V29.682L268.452 28.602L269.316 28.638H276.192L275.886 30.384H268.938ZM271.008 43.632L274.05 44.388V45H265.446V44.388L268.128 43.632V28.242C268.128 26.682 268.38 25.326 268.884 24.174C269.388 23.022 270.072 22.068 270.936 21.312C271.812 20.556 272.79 19.992 273.87 19.62C274.962 19.248 276.084 19.062 277.236 19.062C277.86 19.062 278.394 19.116 278.838 19.224C279.282 19.32 279.648 19.458 279.936 19.638C280.224 19.818 280.434 20.022 280.566 20.25C280.698 20.478 280.764 20.724 280.764 20.988C280.764 21.456 280.608 21.852 280.296 22.176C279.984 22.488 279.594 22.644 279.126 22.644C278.814 22.644 278.514 22.542 278.226 22.338C277.938 22.134 277.638 21.906 277.326 21.654C277.014 21.39 276.666 21.156 276.282 20.952C275.898 20.748 275.448 20.646 274.932 20.646C274.212 20.646 273.552 20.82 272.952 21.168C272.364 21.516 271.89 22.08 271.53 22.86C271.182 23.628 271.008 24.666 271.008 25.974V43.632ZM280.996 30.384L280.276 30.762L277.144 30.24V29.682L280.51 28.602L281.374 28.638H288.25L287.944 30.384H280.996ZM283.066 43.632L286.108 44.388V45H277.504V44.388L280.186 43.632V28.242C280.186 26.682 280.438 25.326 280.942 24.174C281.446 23.022 282.13 22.068 282.994 21.312C283.87 20.556 284.848 19.992 285.928 19.62C287.02 19.248 288.142 19.062 289.294 19.062C289.918 19.062 290.452 19.116 290.896 19.224C291.34 19.32 291.706 19.458 291.994 19.638C292.282 19.818 292.492 20.022 292.624 20.25C292.756 20.478 292.822 20.724 292.822 20.988C292.822 21.456 292.666 21.852 292.354 22.176C292.042 22.488 291.652 22.644 291.184 22.644C290.872 22.644 290.572 22.542 290.284 22.338C289.996 22.134 289.696 21.906 289.384 21.654C289.072 21.39 288.724 21.156 288.34 20.952C287.956 20.748 287.506 20.646 286.99 20.646C286.27 20.646 285.61 20.82 285.01 21.168C284.422 21.516 283.948 22.08 283.588 22.86C283.24 23.628 283.066 24.666 283.066 25.974V43.632Z" fill="white"/>
<path d="M91.2513 79.616C90.5793 79.616 90.0333 79.394 89.6133 78.95C89.2053 78.494 89.0013 77.96 89.0013 77.348C89.0013 76.736 89.2053 76.22 89.6133 75.8C90.0333 75.368 90.5793 75.152 91.2513 75.152C91.9353 75.152 92.4753 75.368 92.8713 75.8C93.2793 76.22 93.4833 76.736 93.4833 77.348C93.4833 77.96 93.2793 78.494 92.8713 78.95C92.4753 79.394 91.9353 79.616 91.2513 79.616ZM92.9793 84.206L92.9073 87.32V99.632L95.6253 100.388V101H87.3633V100.388L90.0453 99.632V87.626C89.9133 87.506 89.7093 87.362 89.4333 87.194C89.1573 87.014 88.8453 86.834 88.4973 86.654C88.1493 86.474 87.7893 86.306 87.4173 86.15V85.682L92.7273 84.206H92.9793ZM126.231 85.97L123.783 85.34V84.638H129.795V85.34L127.725 85.97L122.919 101.396H122.199L116.277 88.076H117.069L111.507 101.396H110.787L105.747 86.132L103.497 85.34V84.638H111.201V85.34L108.771 86.06L112.497 97.67L111.777 97.886L117.141 84.206H117.735L123.657 97.58L122.919 97.886L126.231 85.97ZM140.889 90.488L141.159 91.586C139.647 91.97 138.417 92.354 137.469 92.738C136.521 93.122 135.783 93.512 135.255 93.908C134.739 94.292 134.379 94.706 134.175 95.15C133.983 95.582 133.887 96.056 133.887 96.572C133.887 97.46 134.145 98.138 134.661 98.606C135.189 99.062 135.831 99.29 136.587 99.29C137.187 99.29 137.727 99.152 138.207 98.876C138.699 98.588 139.089 98.204 139.377 97.724C139.665 97.232 139.809 96.68 139.809 96.068V88.994C139.809 88.01 139.557 87.242 139.053 86.69C138.561 86.126 137.769 85.844 136.677 85.844C136.233 85.844 135.753 85.898 135.237 86.006C134.733 86.114 134.277 86.27 133.869 86.474L134.805 85.682C134.769 86.054 134.715 86.432 134.643 86.816C134.571 87.2 134.487 87.548 134.391 87.86C134.295 88.16 134.175 88.388 134.031 88.544C133.851 88.748 133.611 88.898 133.311 88.994C133.023 89.09 132.723 89.138 132.411 89.138C132.027 89.138 131.715 89.054 131.475 88.886C131.247 88.706 131.133 88.466 131.133 88.166C131.133 87.758 131.337 87.332 131.745 86.888C132.153 86.444 132.681 86.036 133.329 85.664C133.989 85.28 134.715 84.974 135.507 84.746C136.299 84.506 137.085 84.386 137.865 84.386C139.017 84.386 139.941 84.56 140.637 84.908C141.345 85.244 141.855 85.736 142.167 86.384C142.491 87.032 142.653 87.818 142.653 88.742V97.778C142.653 98.162 142.707 98.48 142.815 98.732C142.935 98.972 143.103 99.152 143.319 99.272C143.535 99.392 143.799 99.452 144.111 99.452C144.423 99.452 144.753 99.392 145.101 99.272C145.449 99.152 145.797 98.984 146.145 98.768V99.488C145.521 100.196 144.909 100.682 144.309 100.946C143.721 101.21 143.151 101.342 142.599 101.342C141.975 101.342 141.459 101.204 141.051 100.928C140.643 100.64 140.337 100.238 140.133 99.722C139.929 99.194 139.821 98.57 139.809 97.85L139.899 97.724C139.731 98.432 139.425 99.062 138.981 99.614C138.549 100.154 138.027 100.58 137.415 100.892C136.803 101.204 136.143 101.36 135.435 101.36C134.139 101.36 133.065 101.006 132.213 100.298C131.361 99.578 130.935 98.546 130.935 97.202C130.935 96.494 131.067 95.858 131.331 95.294C131.607 94.718 132.099 94.178 132.807 93.674C133.527 93.158 134.541 92.648 135.849 92.144C137.157 91.628 138.837 91.076 140.889 90.488ZM152.303 87.572V99.632L155.021 100.388V101H146.777V100.388L149.459 99.632V87.77C149.267 87.602 148.979 87.416 148.595 87.212C148.223 87.008 147.629 86.732 146.813 86.384V85.97L151.673 84.206H151.943L152.303 87.572ZM157.541 100.388L160.259 99.632V90.11C160.259 89.402 160.121 88.802 159.845 88.31C159.569 87.818 159.155 87.44 158.603 87.176C158.051 86.912 157.361 86.78 156.533 86.78C155.585 86.78 154.697 86.942 153.869 87.266C153.053 87.59 152.447 87.962 152.051 88.382L151.493 87.86C152.237 87.176 152.909 86.606 153.509 86.15C154.121 85.682 154.697 85.31 155.237 85.034C155.789 84.758 156.335 84.566 156.875 84.458C157.427 84.338 158.003 84.278 158.603 84.278C160.163 84.278 161.303 84.746 162.023 85.682C162.755 86.606 163.121 88.082 163.121 90.11V99.632L165.821 100.388V101H157.541V100.388ZM171.958 96.554C171.958 97.382 172.21 98.006 172.714 98.426C173.23 98.846 173.938 99.056 174.838 99.056C175.294 99.056 175.78 99.014 176.296 98.93C176.824 98.834 177.406 98.69 178.042 98.498V99.236C177.214 99.788 176.506 100.214 175.918 100.514C175.342 100.814 174.832 101.024 174.388 101.144C173.944 101.264 173.5 101.324 173.056 101.324C172.3 101.324 171.622 101.174 171.022 100.874C170.434 100.574 169.966 100.118 169.618 99.506C169.27 98.882 169.096 98.102 169.096 97.166V87.014L167.044 85.646V85.358C167.26 85.202 167.494 85.034 167.746 84.854C167.998 84.662 168.268 84.464 168.556 84.26C168.844 84.056 169.144 83.84 169.456 83.612C169.768 83.372 170.098 83.126 170.446 82.874C170.794 82.622 171.154 82.364 171.526 82.1H171.958V85.214V96.554ZM170.896 86.384V84.638H177.538L177.25 86.384H170.896ZM196.619 98.066L195.089 101.594L187.925 86.132L185.675 85.34V84.638H193.469V85.34L191.039 86.06L196.619 98.066ZM189.707 110.144C189.047 110.144 188.495 109.964 188.051 109.604C187.619 109.256 187.403 108.764 187.403 108.128C187.403 107.804 187.463 107.522 187.583 107.282C187.703 107.054 187.865 106.874 188.069 106.742C188.285 106.622 188.501 106.562 188.717 106.562C188.933 106.562 189.149 106.622 189.365 106.742C189.581 106.862 189.821 106.982 190.085 107.102C190.349 107.222 190.649 107.282 190.985 107.282C191.333 107.282 191.645 107.216 191.921 107.084C192.209 106.964 192.479 106.73 192.731 106.382C192.983 106.046 193.235 105.566 193.487 104.942L195.395 100.19L196.223 98.012L200.435 85.97L197.969 85.34V84.638H204.017V85.34L201.983 85.97L194.927 104.564C194.387 106.004 193.847 107.126 193.307 107.93C192.779 108.746 192.221 109.316 191.633 109.64C191.057 109.976 190.415 110.144 189.707 110.144ZM212.861 100.172C213.857 100.172 214.721 99.92 215.453 99.416C216.185 98.9 216.755 98.12 217.163 97.076C217.571 96.02 217.775 94.7 217.775 93.116C217.775 91.448 217.571 90.05 217.163 88.922C216.767 87.782 216.197 86.924 215.453 86.348C214.721 85.76 213.845 85.466 212.825 85.466C211.829 85.466 210.965 85.724 210.233 86.24C209.501 86.744 208.931 87.518 208.523 88.562C208.115 89.606 207.911 90.926 207.911 92.522C207.911 94.178 208.109 95.576 208.505 96.716C208.913 97.856 209.483 98.72 210.215 99.308C210.959 99.884 211.841 100.172 212.861 100.172ZM212.789 101.36C211.229 101.36 209.837 101.006 208.613 100.298C207.401 99.578 206.447 98.582 205.751 97.31C205.055 96.038 204.707 94.58 204.707 92.936C204.707 91.256 205.067 89.762 205.787 88.454C206.519 87.146 207.497 86.126 208.721 85.394C209.957 84.65 211.349 84.278 212.897 84.278C214.469 84.278 215.861 84.638 217.073 85.358C218.285 86.066 219.239 87.056 219.935 88.328C220.631 89.588 220.979 91.046 220.979 92.702C220.979 94.382 220.613 95.876 219.881 97.184C219.161 98.48 218.183 99.5 216.947 100.244C215.711 100.988 214.325 101.36 212.789 101.36ZM228.228 95.726C228.228 96.482 228.342 97.094 228.57 97.562C228.798 98.018 229.17 98.354 229.686 98.57C230.202 98.786 230.892 98.894 231.756 98.894C232.62 98.894 233.448 98.744 234.24 98.444C235.032 98.132 235.62 97.76 236.004 97.328L236.544 97.922C235.836 98.582 235.194 99.134 234.618 99.578C234.042 100.022 233.496 100.376 232.98 100.64C232.476 100.904 231.972 101.09 231.468 101.198C230.964 101.306 230.418 101.36 229.83 101.36C228.294 101.36 227.166 100.898 226.446 99.974C225.726 99.038 225.366 97.622 225.366 95.726V86.294L222.594 85.376V84.674L228.39 84.404L228.228 86.276V95.726ZM235.734 101.342L235.554 98.03V86.294L232.782 85.376V84.674L238.614 84.404L238.434 86.276V98.714C238.542 98.81 238.692 98.912 238.884 99.02C239.088 99.128 239.31 99.236 239.55 99.344C239.79 99.452 240.024 99.554 240.252 99.65C240.492 99.734 240.708 99.794 240.9 99.83V100.316L236.004 101.342H235.734ZM253.292 84.368C253.88 84.368 254.318 84.518 254.606 84.818C254.894 85.106 255.038 85.49 255.038 85.97C255.038 86.546 254.852 87.008 254.48 87.356C254.12 87.704 253.64 87.878 253.04 87.878C252.776 87.878 252.506 87.836 252.23 87.752C251.966 87.656 251.684 87.566 251.384 87.482C251.096 87.398 250.772 87.356 250.412 87.356C250.112 87.356 249.8 87.404 249.476 87.5C249.152 87.596 248.828 87.728 248.504 87.896C248.192 88.064 247.904 88.262 247.64 88.49L247.37 87.806C248.138 87.134 248.822 86.582 249.422 86.15C250.034 85.706 250.574 85.352 251.042 85.088C251.51 84.824 251.924 84.638 252.284 84.53C252.656 84.422 252.992 84.368 253.292 84.368ZM247.928 87.572V99.632L250.772 100.388V101H242.402V100.388L245.084 99.632V87.77C244.928 87.626 244.73 87.488 244.49 87.356C244.25 87.224 243.956 87.08 243.608 86.924C243.272 86.756 242.882 86.576 242.438 86.384V85.97L247.532 84.206H247.82L247.928 87.572ZM270.01 84.278C270.73 84.278 271.384 84.35 271.972 84.494C272.56 84.638 273.202 84.884 273.898 85.232L274.258 89.714H273.556L271.612 85.16L272.89 86.708C272.374 86.24 271.888 85.904 271.432 85.7C270.988 85.484 270.472 85.376 269.884 85.376C268.936 85.376 268.192 85.592 267.652 86.024C267.112 86.444 266.842 87.038 266.842 87.806C266.842 88.37 266.98 88.844 267.256 89.228C267.544 89.612 267.964 89.966 268.516 90.29C269.068 90.602 269.758 90.932 270.586 91.28C271.198 91.544 271.756 91.832 272.26 92.144C272.764 92.456 273.19 92.81 273.538 93.206C273.898 93.602 274.174 94.058 274.366 94.574C274.57 95.09 274.672 95.69 274.672 96.374C274.672 97.406 274.402 98.3 273.862 99.056C273.334 99.8 272.62 100.37 271.72 100.766C270.82 101.162 269.806 101.36 268.678 101.36C267.91 101.36 267.22 101.294 266.608 101.162C266.008 101.042 265.414 100.844 264.826 100.568L263.944 95.78H264.718L267.328 100.73L265.564 99.47C265.972 99.686 266.332 99.86 266.644 99.992C266.968 100.112 267.274 100.196 267.562 100.244C267.85 100.28 268.144 100.298 268.444 100.298C269.548 100.298 270.454 100.052 271.162 99.56C271.882 99.056 272.242 98.3 272.242 97.292C272.242 96.812 272.14 96.398 271.936 96.05C271.732 95.69 271.444 95.372 271.072 95.096C270.7 94.82 270.262 94.562 269.758 94.322C269.266 94.07 268.732 93.818 268.156 93.566C267.388 93.218 266.734 92.834 266.194 92.414C265.654 91.982 265.24 91.466 264.952 90.866C264.676 90.266 264.538 89.558 264.538 88.742C264.538 87.794 264.778 86.99 265.258 86.33C265.75 85.658 266.41 85.148 267.238 84.8C268.066 84.452 268.99 84.278 270.01 84.278ZM281.962 96.554C281.962 97.382 282.214 98.006 282.718 98.426C283.234 98.846 283.942 99.056 284.842 99.056C285.298 99.056 285.784 99.014 286.3 98.93C286.828 98.834 287.41 98.69 288.046 98.498V99.236C287.218 99.788 286.51 100.214 285.922 100.514C285.346 100.814 284.836 101.024 284.392 101.144C283.948 101.264 283.504 101.324 283.06 101.324C282.304 101.324 281.626 101.174 281.026 100.874C280.438 100.574 279.97 100.118 279.622 99.506C279.274 98.882 279.1 98.102 279.1 97.166V87.014L277.048 85.646V85.358C277.264 85.202 277.498 85.034 277.75 84.854C278.002 84.662 278.272 84.464 278.56 84.26C278.848 84.056 279.148 83.84 279.46 83.612C279.772 83.372 280.102 83.126 280.45 82.874C280.798 82.622 281.158 82.364 281.53 82.1H281.962V85.214V96.554ZM280.9 86.384V84.638H287.542L287.254 86.384H280.9ZM294.146 95.726C294.146 96.482 294.26 97.094 294.488 97.562C294.716 98.018 295.088 98.354 295.604 98.57C296.12 98.786 296.81 98.894 297.674 98.894C298.538 98.894 299.366 98.744 300.158 98.444C300.95 98.132 301.538 97.76 301.922 97.328L302.462 97.922C301.754 98.582 301.112 99.134 300.536 99.578C299.96 100.022 299.414 100.376 298.898 100.64C298.394 100.904 297.89 101.09 297.386 101.198C296.882 101.306 296.336 101.36 295.748 101.36C294.212 101.36 293.084 100.898 292.364 99.974C291.644 99.038 291.284 97.622 291.284 95.726V86.294L288.512 85.376V84.674L294.308 84.404L294.146 86.276V95.726ZM301.652 101.342L301.472 98.03V86.294L298.7 85.376V84.674L304.532 84.404L304.352 86.276V98.714C304.46 98.81 304.61 98.912 304.802 99.02C305.006 99.128 305.228 99.236 305.468 99.344C305.708 99.452 305.942 99.554 306.17 99.65C306.41 99.734 306.626 99.794 306.818 99.83V100.316L301.922 101.342H301.652ZM311.938 86.384L311.218 86.762L308.086 86.24V85.682L311.452 84.602L312.316 84.638H319.192L318.886 86.384H311.938ZM314.008 99.632L317.05 100.388V101H308.446V100.388L311.128 99.632V84.242C311.128 82.682 311.38 81.326 311.884 80.174C312.388 79.022 313.072 78.068 313.936 77.312C314.812 76.556 315.79 75.992 316.87 75.62C317.962 75.248 319.084 75.062 320.236 75.062C320.86 75.062 321.394 75.116 321.838 75.224C322.282 75.32 322.648 75.458 322.936 75.638C323.224 75.818 323.434 76.022 323.566 76.25C323.698 76.478 323.764 76.724 323.764 76.988C323.764 77.456 323.608 77.852 323.296 78.176C322.984 78.488 322.594 78.644 322.126 78.644C321.814 78.644 321.514 78.542 321.226 78.338C320.938 78.134 320.638 77.906 320.326 77.654C320.014 77.39 319.666 77.156 319.282 76.952C318.898 76.748 318.448 76.646 317.932 76.646C317.212 76.646 316.552 76.82 315.952 77.168C315.364 77.516 314.89 78.08 314.53 78.86C314.182 79.628 314.008 80.666 314.008 81.974V99.632ZM323.996 86.384L323.276 86.762L320.144 86.24V85.682L323.51 84.602L324.374 84.638H331.25L330.944 86.384H323.996ZM326.066 99.632L329.108 100.388V101H320.504V100.388L323.186 99.632V84.242C323.186 82.682 323.438 81.326 323.942 80.174C324.446 79.022 325.13 78.068 325.994 77.312C326.87 76.556 327.848 75.992 328.928 75.62C330.02 75.248 331.142 75.062 332.294 75.062C332.918 75.062 333.452 75.116 333.896 75.224C334.34 75.32 334.706 75.458 334.994 75.638C335.282 75.818 335.492 76.022 335.624 76.25C335.756 76.478 335.822 76.724 335.822 76.988C335.822 77.456 335.666 77.852 335.354 78.176C335.042 78.488 334.652 78.644 334.184 78.644C333.872 78.644 333.572 78.542 333.284 78.338C332.996 78.134 332.696 77.906 332.384 77.654C332.072 77.39 331.724 77.156 331.34 76.952C330.956 76.748 330.506 76.646 329.99 76.646C329.27 76.646 328.61 76.82 328.01 77.168C327.422 77.516 326.948 78.08 326.588 78.86C326.24 79.628 326.066 80.666 326.066 81.974V99.632Z" fill="white"/>
<path d="M73.2513 51.616C72.5793 51.616 72.0333 51.394 71.6133 50.95C71.2053 50.494 71.0013 49.96 71.0013 49.348C71.0013 48.736 71.2053 48.22 71.6133 47.8C72.0333 47.368 72.5793 47.152 73.2513 47.152C73.9353 47.152 74.4753 47.368 74.8713 47.8C75.2793 48.22 75.4833 48.736 75.4833 49.348C75.4833 49.96 75.2793 50.494 74.8713 50.95C74.4753 51.394 73.9353 51.616 73.2513 51.616ZM74.9793 56.206L74.9073 59.32V71.632L77.6253 72.388V73H69.3633V72.388L72.0453 71.632V59.626C71.9133 59.506 71.7093 59.362 71.4333 59.194C71.1573 59.014 70.8453 58.834 70.4973 58.654C70.1493 58.474 69.7893 58.306 69.4173 58.15V57.682L74.7273 56.206H74.9793ZM108.231 57.97L105.783 57.34V56.638H111.795V57.34L109.725 57.97L104.919 73.396H104.199L98.2769 60.076H99.0689L93.5069 73.396H92.7869L87.7469 58.132L85.4969 57.34V56.638H93.2009V57.34L90.7709 58.06L94.4969 69.67L93.7769 69.886L99.1409 56.206H99.7349L105.657 69.58L104.919 69.886L108.231 57.97ZM122.889 62.488L123.159 63.586C121.647 63.97 120.417 64.354 119.469 64.738C118.521 65.122 117.783 65.512 117.255 65.908C116.739 66.292 116.379 66.706 116.175 67.15C115.983 67.582 115.887 68.056 115.887 68.572C115.887 69.46 116.145 70.138 116.661 70.606C117.189 71.062 117.831 71.29 118.587 71.29C119.187 71.29 119.727 71.152 120.207 70.876C120.699 70.588 121.089 70.204 121.377 69.724C121.665 69.232 121.809 68.68 121.809 68.068V60.994C121.809 60.01 121.557 59.242 121.053 58.69C120.561 58.126 119.769 57.844 118.677 57.844C118.233 57.844 117.753 57.898 117.237 58.006C116.733 58.114 116.277 58.27 115.869 58.474L116.805 57.682C116.769 58.054 116.715 58.432 116.643 58.816C116.571 59.2 116.487 59.548 116.391 59.86C116.295 60.16 116.175 60.388 116.031 60.544C115.851 60.748 115.611 60.898 115.311 60.994C115.023 61.09 114.723 61.138 114.411 61.138C114.027 61.138 113.715 61.054 113.475 60.886C113.247 60.706 113.133 60.466 113.133 60.166C113.133 59.758 113.337 59.332 113.745 58.888C114.153 58.444 114.681 58.036 115.329 57.664C115.989 57.28 116.715 56.974 117.507 56.746C118.299 56.506 119.085 56.386 119.865 56.386C121.017 56.386 121.941 56.56 122.637 56.908C123.345 57.244 123.855 57.736 124.167 58.384C124.491 59.032 124.653 59.818 124.653 60.742V69.778C124.653 70.162 124.707 70.48 124.815 70.732C124.935 70.972 125.103 71.152 125.319 71.272C125.535 71.392 125.799 71.452 126.111 71.452C126.423 71.452 126.753 71.392 127.101 71.272C127.449 71.152 127.797 70.984 128.145 70.768V71.488C127.521 72.196 126.909 72.682 126.309 72.946C125.721 73.21 125.151 73.342 124.599 73.342C123.975 73.342 123.459 73.204 123.051 72.928C122.643 72.64 122.337 72.238 122.133 71.722C121.929 71.194 121.821 70.57 121.809 69.85L121.899 69.724C121.731 70.432 121.425 71.062 120.981 71.614C120.549 72.154 120.027 72.58 119.415 72.892C118.803 73.204 118.143 73.36 117.435 73.36C116.139 73.36 115.065 73.006 114.213 72.298C113.361 71.578 112.935 70.546 112.935 69.202C112.935 68.494 113.067 67.858 113.331 67.294C113.607 66.718 114.099 66.178 114.807 65.674C115.527 65.158 116.541 64.648 117.849 64.144C119.157 63.628 120.837 63.076 122.889 62.488ZM134.303 59.572V71.632L137.021 72.388V73H128.777V72.388L131.459 71.632V59.77C131.267 59.602 130.979 59.416 130.595 59.212C130.223 59.008 129.629 58.732 128.813 58.384V57.97L133.673 56.206H133.943L134.303 59.572ZM139.541 72.388L142.259 71.632V62.11C142.259 61.402 142.121 60.802 141.845 60.31C141.569 59.818 141.155 59.44 140.603 59.176C140.051 58.912 139.361 58.78 138.533 58.78C137.585 58.78 136.697 58.942 135.869 59.266C135.053 59.59 134.447 59.962 134.051 60.382L133.493 59.86C134.237 59.176 134.909 58.606 135.509 58.15C136.121 57.682 136.697 57.31 137.237 57.034C137.789 56.758 138.335 56.566 138.875 56.458C139.427 56.338 140.003 56.278 140.603 56.278C142.163 56.278 143.303 56.746 144.023 57.682C144.755 58.606 145.121 60.082 145.121 62.11V71.632L147.821 72.388V73H139.541V72.388ZM153.958 68.554C153.958 69.382 154.21 70.006 154.714 70.426C155.23 70.846 155.938 71.056 156.838 71.056C157.294 71.056 157.78 71.014 158.296 70.93C158.824 70.834 159.406 70.69 160.042 70.498V71.236C159.214 71.788 158.506 72.214 157.918 72.514C157.342 72.814 156.832 73.024 156.388 73.144C155.944 73.264 155.5 73.324 155.056 73.324C154.3 73.324 153.622 73.174 153.022 72.874C152.434 72.574 151.966 72.118 151.618 71.506C151.27 70.882 151.096 70.102 151.096 69.166V59.014L149.044 57.646V57.358C149.26 57.202 149.494 57.034 149.746 56.854C149.998 56.662 150.268 56.464 150.556 56.26C150.844 56.056 151.144 55.84 151.456 55.612C151.768 55.372 152.098 55.126 152.446 54.874C152.794 54.622 153.154 54.364 153.526 54.1H153.958V57.214V68.554ZM152.896 58.384V56.638H159.538L159.25 58.384H152.896ZM178.619 70.066L177.089 73.594L169.925 58.132L167.675 57.34V56.638H175.469V57.34L173.039 58.06L178.619 70.066ZM171.707 82.144C171.047 82.144 170.495 81.964 170.051 81.604C169.619 81.256 169.403 80.764 169.403 80.128C169.403 79.804 169.463 79.522 169.583 79.282C169.703 79.054 169.865 78.874 170.069 78.742C170.285 78.622 170.501 78.562 170.717 78.562C170.933 78.562 171.149 78.622 171.365 78.742C171.581 78.862 171.821 78.982 172.085 79.102C172.349 79.222 172.649 79.282 172.985 79.282C173.333 79.282 173.645 79.216 173.921 79.084C174.209 78.964 174.479 78.73 174.731 78.382C174.983 78.046 175.235 77.566 175.487 76.942L177.395 72.19L178.223 70.012L182.435 57.97L179.969 57.34V56.638H186.017V57.34L183.983 57.97L176.927 76.564C176.387 78.004 175.847 79.126 175.307 79.93C174.779 80.746 174.221 81.316 173.633 81.64C173.057 81.976 172.415 82.144 171.707 82.144ZM194.861 72.172C195.857 72.172 196.721 71.92 197.453 71.416C198.185 70.9 198.755 70.12 199.163 69.076C199.571 68.02 199.775 66.7 199.775 65.116C199.775 63.448 199.571 62.05 199.163 60.922C198.767 59.782 198.197 58.924 197.453 58.348C196.721 57.76 195.845 57.466 194.825 57.466C193.829 57.466 192.965 57.724 192.233 58.24C191.501 58.744 190.931 59.518 190.523 60.562C190.115 61.606 189.911 62.926 189.911 64.522C189.911 66.178 190.109 67.576 190.505 68.716C190.913 69.856 191.483 70.72 192.215 71.308C192.959 71.884 193.841 72.172 194.861 72.172ZM194.789 73.36C193.229 73.36 191.837 73.006 190.613 72.298C189.401 71.578 188.447 70.582 187.751 69.31C187.055 68.038 186.707 66.58 186.707 64.936C186.707 63.256 187.067 61.762 187.787 60.454C188.519 59.146 189.497 58.126 190.721 57.394C191.957 56.65 193.349 56.278 194.897 56.278C196.469 56.278 197.861 56.638 199.073 57.358C200.285 58.066 201.239 59.056 201.935 60.328C202.631 61.588 202.979 63.046 202.979 64.702C202.979 66.382 202.613 67.876 201.881 69.184C201.161 70.48 200.183 71.5 198.947 72.244C197.711 72.988 196.325 73.36 194.789 73.36ZM210.228 67.726C210.228 68.482 210.342 69.094 210.57 69.562C210.798 70.018 211.17 70.354 211.686 70.57C212.202 70.786 212.892 70.894 213.756 70.894C214.62 70.894 215.448 70.744 216.24 70.444C217.032 70.132 217.62 69.76 218.004 69.328L218.544 69.922C217.836 70.582 217.194 71.134 216.618 71.578C216.042 72.022 215.496 72.376 214.98 72.64C214.476 72.904 213.972 73.09 213.468 73.198C212.964 73.306 212.418 73.36 211.83 73.36C210.294 73.36 209.166 72.898 208.446 71.974C207.726 71.038 207.366 69.622 207.366 67.726V58.294L204.594 57.376V56.674L210.39 56.404L210.228 58.276V67.726ZM217.734 73.342L217.554 70.03V58.294L214.782 57.376V56.674L220.614 56.404L220.434 58.276V70.714C220.542 70.81 220.692 70.912 220.884 71.02C221.088 71.128 221.31 71.236 221.55 71.344C221.79 71.452 222.024 71.554 222.252 71.65C222.492 71.734 222.708 71.794 222.9 71.83V72.316L218.004 73.342H217.734ZM235.292 56.368C235.88 56.368 236.318 56.518 236.606 56.818C236.894 57.106 237.038 57.49 237.038 57.97C237.038 58.546 236.852 59.008 236.48 59.356C236.12 59.704 235.64 59.878 235.04 59.878C234.776 59.878 234.506 59.836 234.23 59.752C233.966 59.656 233.684 59.566 233.384 59.482C233.096 59.398 232.772 59.356 232.412 59.356C232.112 59.356 231.8 59.404 231.476 59.5C231.152 59.596 230.828 59.728 230.504 59.896C230.192 60.064 229.904 60.262 229.64 60.49L229.37 59.806C230.138 59.134 230.822 58.582 231.422 58.15C232.034 57.706 232.574 57.352 233.042 57.088C233.51 56.824 233.924 56.638 234.284 56.53C234.656 56.422 234.992 56.368 235.292 56.368ZM229.928 59.572V71.632L232.772 72.388V73H224.402V72.388L227.084 71.632V59.77C226.928 59.626 226.73 59.488 226.49 59.356C226.25 59.224 225.956 59.08 225.608 58.924C225.272 58.756 224.882 58.576 224.438 58.384V57.97L229.532 56.206H229.82L229.928 59.572ZM252.01 56.278C252.73 56.278 253.384 56.35 253.972 56.494C254.56 56.638 255.202 56.884 255.898 57.232L256.258 61.714H255.556L253.612 57.16L254.89 58.708C254.374 58.24 253.888 57.904 253.432 57.7C252.988 57.484 252.472 57.376 251.884 57.376C250.936 57.376 250.192 57.592 249.652 58.024C249.112 58.444 248.842 59.038 248.842 59.806C248.842 60.37 248.98 60.844 249.256 61.228C249.544 61.612 249.964 61.966 250.516 62.29C251.068 62.602 251.758 62.932 252.586 63.28C253.198 63.544 253.756 63.832 254.26 64.144C254.764 64.456 255.19 64.81 255.538 65.206C255.898 65.602 256.174 66.058 256.366 66.574C256.57 67.09 256.672 67.69 256.672 68.374C256.672 69.406 256.402 70.3 255.862 71.056C255.334 71.8 254.62 72.37 253.72 72.766C252.82 73.162 251.806 73.36 250.678 73.36C249.91 73.36 249.22 73.294 248.608 73.162C248.008 73.042 247.414 72.844 246.826 72.568L245.944 67.78H246.718L249.328 72.73L247.564 71.47C247.972 71.686 248.332 71.86 248.644 71.992C248.968 72.112 249.274 72.196 249.562 72.244C249.85 72.28 250.144 72.298 250.444 72.298C251.548 72.298 252.454 72.052 253.162 71.56C253.882 71.056 254.242 70.3 254.242 69.292C254.242 68.812 254.14 68.398 253.936 68.05C253.732 67.69 253.444 67.372 253.072 67.096C252.7 66.82 252.262 66.562 251.758 66.322C251.266 66.07 250.732 65.818 250.156 65.566C249.388 65.218 248.734 64.834 248.194 64.414C247.654 63.982 247.24 63.466 246.952 62.866C246.676 62.266 246.538 61.558 246.538 60.742C246.538 59.794 246.778 58.99 247.258 58.33C247.75 57.658 248.41 57.148 249.238 56.8C250.066 56.452 250.99 56.278 252.01 56.278ZM263.962 68.554C263.962 69.382 264.214 70.006 264.718 70.426C265.234 70.846 265.942 71.056 266.842 71.056C267.298 71.056 267.784 71.014 268.3 70.93C268.828 70.834 269.41 70.69 270.046 70.498V71.236C269.218 71.788 268.51 72.214 267.922 72.514C267.346 72.814 266.836 73.024 266.392 73.144C265.948 73.264 265.504 73.324 265.06 73.324C264.304 73.324 263.626 73.174 263.026 72.874C262.438 72.574 261.97 72.118 261.622 71.506C261.274 70.882 261.1 70.102 261.1 69.166V59.014L259.048 57.646V57.358C259.264 57.202 259.498 57.034 259.75 56.854C260.002 56.662 260.272 56.464 260.56 56.26C260.848 56.056 261.148 55.84 261.46 55.612C261.772 55.372 262.102 55.126 262.45 54.874C262.798 54.622 263.158 54.364 263.53 54.1H263.962V57.214V68.554ZM262.9 58.384V56.638H269.542L269.254 58.384H262.9ZM276.146 67.726C276.146 68.482 276.26 69.094 276.488 69.562C276.716 70.018 277.088 70.354 277.604 70.57C278.12 70.786 278.81 70.894 279.674 70.894C280.538 70.894 281.366 70.744 282.158 70.444C282.95 70.132 283.538 69.76 283.922 69.328L284.462 69.922C283.754 70.582 283.112 71.134 282.536 71.578C281.96 72.022 281.414 72.376 280.898 72.64C280.394 72.904 279.89 73.09 279.386 73.198C278.882 73.306 278.336 73.36 277.748 73.36C276.212 73.36 275.084 72.898 274.364 71.974C273.644 71.038 273.284 69.622 273.284 67.726V58.294L270.512 57.376V56.674L276.308 56.404L276.146 58.276V67.726ZM283.652 73.342L283.472 70.03V58.294L280.7 57.376V56.674L286.532 56.404L286.352 58.276V70.714C286.46 70.81 286.61 70.912 286.802 71.02C287.006 71.128 287.228 71.236 287.468 71.344C287.708 71.452 287.942 71.554 288.17 71.65C288.41 71.734 288.626 71.794 288.818 71.83V72.316L283.922 73.342H283.652ZM293.938 58.384L293.218 58.762L290.086 58.24V57.682L293.452 56.602L294.316 56.638H301.192L300.886 58.384H293.938ZM296.008 71.632L299.05 72.388V73H290.446V72.388L293.128 71.632V56.242C293.128 54.682 293.38 53.326 293.884 52.174C294.388 51.022 295.072 50.068 295.936 49.312C296.812 48.556 297.79 47.992 298.87 47.62C299.962 47.248 301.084 47.062 302.236 47.062C302.86 47.062 303.394 47.116 303.838 47.224C304.282 47.32 304.648 47.458 304.936 47.638C305.224 47.818 305.434 48.022 305.566 48.25C305.698 48.478 305.764 48.724 305.764 48.988C305.764 49.456 305.608 49.852 305.296 50.176C304.984 50.488 304.594 50.644 304.126 50.644C303.814 50.644 303.514 50.542 303.226 50.338C302.938 50.134 302.638 49.906 302.326 49.654C302.014 49.39 301.666 49.156 301.282 48.952C300.898 48.748 300.448 48.646 299.932 48.646C299.212 48.646 298.552 48.82 297.952 49.168C297.364 49.516 296.89 50.08 296.53 50.86C296.182 51.628 296.008 52.666 296.008 53.974V71.632ZM305.996 58.384L305.276 58.762L302.144 58.24V57.682L305.51 56.602L306.374 56.638H313.25L312.944 58.384H305.996ZM308.066 71.632L311.108 72.388V73H302.504V72.388L305.186 71.632V56.242C305.186 54.682 305.438 53.326 305.942 52.174C306.446 51.022 307.13 50.068 307.994 49.312C308.87 48.556 309.848 47.992 310.928 47.62C312.02 47.248 313.142 47.062 314.294 47.062C314.918 47.062 315.452 47.116 315.896 47.224C316.34 47.32 316.706 47.458 316.994 47.638C317.282 47.818 317.492 48.022 317.624 48.25C317.756 48.478 317.822 48.724 317.822 48.988C317.822 49.456 317.666 49.852 317.354 50.176C317.042 50.488 316.652 50.644 316.184 50.644C315.872 50.644 315.572 50.542 315.284 50.338C314.996 50.134 314.696 49.906 314.384 49.654C314.072 49.39 313.724 49.156 313.34 48.952C312.956 48.748 312.506 48.646 311.99 48.646C311.27 48.646 310.61 48.82 310.01 49.168C309.422 49.516 308.948 50.08 308.588 50.86C308.24 51.628 308.066 52.666 308.066 53.974V71.632Z" fill="white"/>
</svg>
